<?xml version="1.0" standalone="no"?>
<!DOCTYPE svg PUBLIC "-//W3C//DTD SVG 20010904//EN"
 "http://www.w3.org/TR/2001/REC-SVG-20010904/DTD/svg10.dtd">
<svg version="1.0" xmlns="http://www.w3.org/2000/svg"
 width="16.000000pt" height="16.000000pt" viewBox="0 0 16.000000 16.000000"
 preserveAspectRatio="xMidYMid meet">
<metadata>
Created by potrace 1.11, written by Peter Selinger 2001-2013
</metadata>
<g transform="translate(0.000000,16.000000) scale(0.002204,-0.002204)"
fill="#000000" stroke="none">
<path d="M19 6429 c0 -10 -1 -35 -1 -54 0 -19 1 -42 1 -49 1 -13 467 -15 3616
-15 l3615 0 1 30 c0 16 1 43 1 59 0 17 -1 34 -1 40 -1 6 -1318 9 -3616 9
-3569 0 -3615 0 -3616 -20z"/>
<path d="M4840 5520 c-6 -11 -10 -161 -10 -386 l0 -368 -27 52 c-100 195 -314
306 -584 304 -96 -1 -144 -8 -227 -34 -265 -81 -444 -285 -505 -574 -20 -91
-16 -297 7 -384 52 -202 139 -336 291 -448 187 -138 437 -181 665 -116 141 40
268 139 343 265 l37 64 0 -156 c0 -107 4 -159 12 -167 15 -15 61 -15 76 0 9 9
12 239 12 972 0 529 -4 967 -8 974 -14 22 -71 23 -82 2z m-462 -521 c31 -7 62
-14 69 -15 6 -1 42 -17 80 -36 141 -69 248 -210 288 -378 23 -100 15 -442 -12
-526 -63 -192 -205 -324 -408 -380 -108 -29 -279 -23 -370 14 -174 71 -300
184 -375 340 -96 199 -95 448 2 652 86 180 271 309 483 337 22 3 41 6 42 7 8
7 151 -4 201 -15z"/>
<path d="M5540 5314 c-46 -20 -77 -50 -102 -99 -21 -39 -21 -54 -21 -676 l0
-637 24 -48 c35 -72 94 -108 174 -108 61 0 64 2 301 138 131 76 255 148 274
159 19 11 49 28 65 38 17 11 37 22 45 26 8 3 39 21 68 40 29 18 55 33 58 33 3
0 54 29 113 63 58 35 132 79 165 97 72 41 106 78 127 138 18 55 11 116 -21
167 -19 31 -97 85 -215 150 -27 15 -54 31 -60 35 -5 4 -30 19 -55 32 -25 14
-128 74 -230 133 -102 59 -205 119 -230 133 -25 14 -104 59 -175 102 -72 42
-146 82 -164 88 -46 16 -98 14 -141 -4z"/>
<path d="M2325 5120 c-126 -18 -268 -80 -363 -158 -73 -59 -150 -160 -197
-257 -219 -448 -16 -966 435 -1113 83 -28 143 -36 255 -36 113 -1 160 6 260
38 387 124 601 538 491 950 -77 290 -282 498 -554 562 -75 18 -250 25 -327 14z
m279 -115 c144 -30 246 -92 370 -227 51 -55 131 -237 144 -328 8 -55 8 -204 0
-245 -48 -253 -209 -439 -448 -515 -136 -44 -305 -43 -430 2 -212 75 -346 209
-417 417 -36 104 -42 289 -12 401 50 193 165 347 318 429 70 37 101 48 186 66
59 12 232 12 289 0z"/>
<path d="M689 5116 c-2 -2 -26 -6 -54 -10 -161 -19 -318 -106 -434 -241 -53
-62 -135 -230 -152 -310 -7 -33 -14 -67 -16 -75 -9 -40 -10 -222 -2 -278 23
-166 100 -315 223 -437 150 -148 342 -219 571 -210 186 8 348 74 480 197 81
76 94 108 55 143 -27 24 -60 14 -95 -31 -85 -107 -253 -189 -415 -203 -276
-24 -537 119 -648 353 -52 110 -66 179 -66 316 0 145 15 214 73 335 94 199
253 319 461 351 51 7 172 7 210 -1 14 -2 39 -7 55 -11 90 -19 208 -89 290
-173 68 -70 125 -69 125 3 0 24 -13 43 -60 88 -80 78 -165 131 -263 164 -69
23 -102 28 -208 31 -69 2 -128 1 -130 -1z"/>
<path d="M6592 3748 c-9 -9 -12 -70 -12 -215 l0 -203 -154 0 c-164 0 -186 -6
-186 -50 0 -44 22 -50 186 -50 l154 0 1 -512 c1 -561 0 -549 23 -637 51 -201
178 -301 381 -301 78 0 119 6 178 27 59 21 87 46 87 79 0 44 -35 49 -123 19
-164 -55 -311 -20 -380 89 -60 96 -60 101 -65 694 l-4 542 224 0 c240 0 248 2
248 50 0 48 -9 50 -247 50 l-223 0 0 203 c0 217 -2 227 -50 227 -14 0 -31 -5
-38 -12z"/>
<path d="M4198 3355 c-2 -1 -28 -5 -58 -8 -86 -8 -178 -35 -270 -80 -67 -33
-103 -60 -171 -127 -72 -72 -93 -100 -132 -180 -67 -137 -88 -228 -89 -380 -2
-337 140 -591 407 -728 171 -88 357 -110 537 -63 173 45 309 147 376 280 l32
64 0 -159 c0 -111 4 -164 12 -172 16 -16 70 -16 86 0 18 18 17 1501 0 1515
-24 18 -57 21 -77 6 -20 -13 -21 -24 -21 -171 l-1 -157 -32 60 c-89 168 -271
277 -487 291 -41 3 -83 7 -92 8 -9 2 -18 3 -20 1z m196 -131 c210 -46 361
-195 416 -408 24 -95 27 -366 5 -481 -40 -215 -176 -363 -400 -436 -107 -35
-251 -33 -368 5 -236 77 -404 270 -452 518 -12 65 -12 242 0 303 53 267 238
448 515 505 95 20 179 18 284 -6z"/>
<path d="M1167 3328 c-16 -6 -233 -129 -484 -274 -250 -145 -475 -275 -499
-289 -109 -61 -137 -86 -160 -142 -29 -69 -15 -154 35 -211 17 -20 167 -111
361 -220 25 -14 62 -36 82 -49 21 -13 62 -36 90 -52 29 -16 132 -75 228 -131
339 -198 344 -200 395 -204 87 -7 158 33 195 109 l23 47 -1 631 c0 572 -2 636
-17 674 -38 95 -152 146 -248 111z"/>
<path d="M5452 3324 l-22 -15 0 -744 0 -745 25 -16 c23 -15 27 -15 50 0 l25
16 1 403 c1 221 3 411 4 422 26 214 78 340 184 445 93 92 205 140 324 140 52
0 87 23 87 55 0 40 -38 57 -107 50 -200 -21 -377 -136 -458 -298 l-35 -70 0
170 c0 152 -2 172 -18 186 -23 21 -32 21 -60 1z"/>
<path d="M2157 3252 c-72 -18 -145 -61 -183 -107 -47 -56 -262 -429 -285 -492
-30 -82 -24 -179 14 -263 32 -70 253 -439 279 -467 35 -36 126 -87 178 -99 65
-14 540 -12 595 4 118 33 175 86 275 258 41 71 98 170 127 221 29 50 59 115
67 145 15 61 12 149 -8 204 -19 54 -238 431 -277 477 -46 55 -104 95 -168 113
-72 22 -538 26 -614 6z"/>
<path d="M19 918 c-2 -62 -1 -99 4 -104 4 -4 7074 -8 7210 -5 14 1 17 11 17
66 l0 65 -3615 0 -3615 0 -1 -22z"/>
</g>
</svg>
