<?xml version="1.0" encoding="utf-8"?>
<!-- Generator: Adobe Illustrator 18.1.0, SVG Export Plug-In . SVG Version: 6.00 Build 0)  -->
<svg version="1.1" id="Calque_1" xmlns="http://www.w3.org/2000/svg" xmlns:xlink="http://www.w3.org/1999/xlink" x="0px" y="0px"
	 viewBox="0 0 500 500" enable-background="new 0 0 500 500" xml:space="preserve">
<g>
	<path d="M373,118.6c0-15.2-12.3-27.6-27.6-27.6H152.6c-15.2,0-27.6,12.3-27.6,27.6v351.9c0,15.2,12.3,27.6,27.6,27.6h192.9
		c15.2,0,27.6-12.3,27.6-27.6V118.6z M358,438.6c0,4.1-3.3,7.4-7.4,7.4H147.4c-4.1,0-7.4-3.3-7.4-7.4V116.4c0-4.1,3.3-7.4,7.4-7.4
		h203.2c4.1,0,7.4,3.3,7.4,7.4V438.6z"/>
	<path fill="#FFFFFF" d="M181.9,36.5l19,11l18,11c4.9,2.8,10.1-0.7,10.1-6.4v-22v-22c0-5.7-5.2-9.2-10.1-6.4l-18.5,11l-18.8,11
		C176.8,26.6,177,33.7,181.9,36.5z"/>
	<path d="M181.9,36.5l19,11l18,11c4.9,2.8,10.1-0.7,10.1-6.4v-22v-22c0-5.7-5.2-9.2-10.1-6.4l-18.5,11l-18.8,11
		C176.8,26.6,177,33.7,181.9,36.5z"/>
	<circle fill="#FFFFFF" cx="256.4" cy="30.2" r="6.7"/>
	<circle cx="256.4" cy="30.2" r="6.7"/>
	<circle fill="#FFFFFF" cx="286.3" cy="30.2" r="6.7"/>
	<circle cx="286.3" cy="30.2" r="6.7"/>
</g>
</svg>
