<?xml version="1.0" encoding="utf-8"?>
<!-- Generator: Adobe Illustrator 18.1.0, SVG Export Plug-In . SVG Version: 6.00 Build 0)  -->
<svg version="1.1" id="Calque_1" xmlns="http://www.w3.org/2000/svg" xmlns:xlink="http://www.w3.org/1999/xlink" x="0px" y="0px"
	 viewBox="0 0 100 100" enable-background="new 0 0 100 100" xml:space="preserve">
<path fill="#FFFFFF" d="M50,97.7C23.7,97.7,2.3,76.3,2.3,50S23.7,2.3,50,2.3S97.7,23.7,97.7,50S76.3,97.7,50,97.7z M50,7.3
	C26.4,7.3,7.3,26.4,7.3,50c0,23.6,19.2,42.7,42.7,42.7c23.6,0,42.7-19.2,42.7-42.7C92.7,26.4,73.6,7.3,50,7.3z"/>
<g>
	<path fill="#FFFFFF" d="M44.2,43.6c0.9-5,0.1-6.9,0.1-6.9s1.2-0.7,4.2-0.7c6.2,0,6.9,2.3,5.9,7.9l-3,17.7c-1,5.8,0.3,7.4,2.4,7.4
		c2.3,0,3-2.2,3-2.2c1.1,0,1.7,0.9,1.5,2.3C58,72.3,54.2,76,49,76c-4.2,0-8.1-3.3-8.1-9.4c0-2.3,0.2-5,0.7-8.2L44.2,43.6z
		 M52.6,18.3c3,0,5,2.2,5,5c0,2.8-2.2,5.5-5.8,5.5c-2.9,0-4.8-2-4.8-4.8C47,20.7,49.6,18.3,52.6,18.3z"/>
</g>
</svg>
