<?xml version="1.0" encoding="utf-8"?>
<!-- Generator: Adobe Illustrator 18.1.0, SVG Export Plug-In . SVG Version: 6.00 Build 0)  -->
<svg version="1.1" id="Calque_1" xmlns="http://www.w3.org/2000/svg" xmlns:xlink="http://www.w3.org/1999/xlink" x="0px" y="0px"
	 viewBox="0 0 500 500" enable-background="new 0 0 500 500" xml:space="preserve">
<path d="M373,118.6c0-15.2-12.3-27.6-27.6-27.6H152.6c-15.2,0-27.6,12.3-27.6,27.6v351.9c0,15.2,12.3,27.6,27.6,27.6h192.9
	c15.2,0,27.6-12.3,27.6-27.6V118.6z M359,438.6c0,4.1-3.3,7.4-7.4,7.4H147.4c-4.1,0-7.4-3.3-7.4-7.4V116.4c0-4.1,3.3-7.4,7.4-7.4
	h204.2c4.1,0,7.4,3.3,7.4,7.4V438.6z"/>
<g>
	<path fill="#FFFFFF" d="M453.4,329.7l11-19l11-18.3c2.8-4.9-0.7-10.4-6.4-10.4h-22h-22c-5.7,0-9.2,5.5-6.4,10.4l11,18.6l11,18.8
		C443.5,334.8,450.5,334.6,453.4,329.7z"/>
	<path d="M453.4,329.7l11-19l11-18.3c2.8-4.9-0.7-10.4-6.4-10.4h-22h-22c-5.7,0-9.2,5.5-6.4,10.4l11,18.6l11,18.8
		C443.5,334.8,450.5,334.6,453.4,329.7z"/>
	<circle fill="#FFFFFF" cx="447" cy="255.2" r="6.7"/>
	<circle cx="447" cy="255.2" r="6.7"/>
	<circle fill="#FFFFFF" cx="447" cy="225.2" r="6.7"/>
	<circle cx="447" cy="225.2" r="6.7"/>
</g>
</svg>
