<?xml version="1.0" encoding="utf-8"?>
<!-- Generator: Adobe Illustrator 18.1.0, SVG Export Plug-In . SVG Version: 6.00 Build 0)  -->
<svg version="1.1" id="Calque_1" xmlns="http://www.w3.org/2000/svg" xmlns:xlink="http://www.w3.org/1999/xlink" x="0px" y="0px"
	 viewBox="0 0 500 500" enable-background="new 0 0 500 500" xml:space="preserve">
<g>
	<path d="M373,118.6c0-15.2-12.3-27.6-27.6-27.6H152.6c-15.2,0-27.6,12.3-27.6,27.6v351.9c0,15.2,12.3,27.6,27.6,27.6h192.9
		c15.2,0,27.6-12.3,27.6-27.6V118.6z M358,439.6c0,4.1-3.3,7.4-7.4,7.4H147.4c-4.1,0-7.4-3.3-7.4-7.4V116.4c0-4.1,3.3-7.4,7.4-7.4
		h203.2c4.1,0,7.4,3.3,7.4,7.4V439.6z"/>
	<g>
		<path fill="#FFFFFF" d="M302.7,23.8l-19-11l-18.3-11C260.5-1,255,2.6,255,8.2v22v22c0,5.7,5.5,9.2,10.4,6.4l18.6-11l18.8-11
			C307.7,33.7,307.6,26.6,302.7,23.8z"/>
		<path d="M302.7,23.8l-19-11l-18.3-11C260.5-1,255,2.6,255,8.2v22v22c0,5.7,5.5,9.2,10.4,6.4l18.6-11l18.8-11
			C307.7,33.7,307.6,26.6,302.7,23.8z"/>
		<circle fill="#FFFFFF" cx="228.2" cy="30.2" r="6.7"/>
		<circle cx="228.2" cy="30.2" r="6.7"/>
		<circle fill="#FFFFFF" cx="198.3" cy="30.2" r="6.7"/>
		<circle cx="198.3" cy="30.2" r="6.7"/>
	</g>
</g>
</svg>
