<?xml version="1.0" encoding="utf-8"?>
<!-- Generator: Adobe Illustrator 18.1.0, SVG Export Plug-In . SVG Version: 6.00 Build 0)  -->
<svg version="1.1" id="Calque_1" xmlns="http://www.w3.org/2000/svg" xmlns:xlink="http://www.w3.org/1999/xlink" x="0px" y="0px"
	 viewBox="0 0 100 100" enable-background="new 0 0 100 100" xml:space="preserve">
<g>
	<g>
		<path fill="#497244" d="M82.4,11.2c0,0-23.3-3.1-31.3-3.1c-8.5,0-34.2,3.1-34.2,3.1s-4.3,35.5,0,45.4C21.9,67.9,37.9,79.2,47.2,83
			c0.7,0.3,2.3,0.5,3,0.5c0.8,0,2.3-0.2,3-0.5c9.5-3.8,27.6-16.1,30-28C85.4,44.3,82.4,11.2,82.4,11.2z M61.2,56.2l-10.9-5.7
			l-10.9,5.7l2.1-12.1l-8.8-8.6l12.2-1.8l5.5-11l5.5,11L68,35.5l-8.8,8.6L61.2,56.2z"/>
	</g>
	<g>
		<g>
			<path fill="#497244" d="M10.6,29.9c-1.4,1.7-2.9,1.8-3.4,1.3c-0.5-0.6-0.6-2.5,0.9-4.3c2.1-2.5,5.5-2.9,5.5-2.9
				C13.5,24,12.4,27.6,10.6,29.9z"/>
			<path fill="#497244" d="M3,28.2c0.5,2.5,2,3,2.6,2.7c0.7-0.4,1.4-2.1,1-4.4c-0.5-3.2-2.5-6.1-2.6-6.1C4.1,20.3,2.3,24.8,3,28.2z"
				/>
		</g>
		<g>
			<path fill="#497244" d="M8.8,40.6c-1.1,1.9-2.5,2.3-3.1,1.9C5,42,4.6,40.1,5.7,38.1c1.6-2.8,4.9-3.8,4.9-3.8
				C10.6,34.4,10.1,38,8.8,40.6z"/>
			<path fill="#497244" d="M1.1,40.4c1,2.4,2.5,2.6,3.1,2.1c0.6-0.5,1-2.3,0.2-4.5c-1.1-3-3.6-5.5-3.6-5.5
				C0.7,32.5-0.3,37.2,1.1,40.4z"/>
		</g>
		<g>
			<path fill="#497244" d="M15.2,62.4c0.5,2.2-0.3,3.5-1.1,3.5c-0.8,0.1-2.4-1.1-2.9-3.4c-0.6-3.2,1.2-6.1,1.1-6.1
				C12.4,56.5,14.5,59.6,15.2,62.4z"/>
			<path fill="#497244" d="M9.2,67.4c2.3,1.2,3.6,0.3,3.8-0.4c0.1-0.8-0.8-2.4-2.9-3.6c-2.8-1.5-6.4-1.7-6.4-1.8
				C3.7,61.7,6.1,65.8,9.2,67.4z"/>
		</g>
		<g>
			<path fill="#497244" d="M11,51.9c-0.3,2.2-1.6,3.1-2.3,2.9C8,54.6,6.9,53,7.3,50.7c0.5-3.1,3.3-5.2,3.2-5.2
				C10.5,45.5,11.4,49,11,51.9z"/>
			<path fill="#497244" d="M3.7,54.4c1.7,1.9,3.3,1.5,3.6,0.9c0.4-0.7,0.2-2.5-1.4-4.3c-2.1-2.4-5.3-3.8-5.3-3.8
				C0.6,47.2,1.3,51.9,3.7,54.4z"/>
		</g>
		<g>
			<path fill="#497244" d="M22.5,72.3c1,2.1,0.4,3.5-0.3,3.7c-0.8,0.2-2.6-0.7-3.6-2.9c-1.3-3-0.1-6.3-0.1-6.3
				C18.6,66.9,21.2,69.6,22.5,72.3z"/>
			<path fill="#497244" d="M17.6,78.3c2.5,0.8,3.7-0.3,3.7-1.1c0-0.8-1.3-2.3-3.6-3.1c-3.1-1-6.7-0.6-6.7-0.6
				C11,73.6,14.1,77.3,17.6,78.3z"/>
		</g>
		<g>
			<path fill="#497244" d="M34.4,80.1c1.4,1.9,1.2,3.4,0.5,3.7c-0.7,0.4-2.8-0.2-4.2-2.2c-1.9-2.8-1.4-6.2-1.4-6.2
				C29.2,75.4,32.4,77.6,34.4,80.1z"/>
			<path fill="#497244" d="M30.7,86.8c2.7,0.3,3.7-1,3.5-1.7c-0.2-0.8-1.8-2.1-4.3-2.4c-3.4-0.5-6.8,0.6-6.8,0.6
				C23,83.3,26.9,86.5,30.7,86.8z"/>
		</g>
		<path fill="#497244" d="M7.7,18.1c-0.5,2.8,0.7,4.2,1.3,4.2c0.7,0,1.9-1.2,2.3-3.6c0.5-3.3,0-7.5,0-7.5
			C11.3,11.2,8.3,14.4,7.7,18.1z"/>
	</g>
	<g>
		<g>
			<path fill="#497244" d="M89.5,29.9c1.4,1.7,2.9,1.8,3.4,1.3c0.5-0.6,0.6-2.5-0.9-4.3C90,24.4,86.6,24,86.6,24
				C86.6,24,87.7,27.6,89.5,29.9z"/>
			<path fill="#497244" d="M97,28.2c-0.5,2.5-2,3-2.6,2.7c-0.7-0.4-1.4-2.1-1-4.4c0.5-3.2,2.5-6.1,2.5-6.1
				C95.9,20.3,97.7,24.8,97,28.2z"/>
		</g>
		<g>
			<path fill="#497244" d="M91.3,40.6c1,1.9,2.5,2.3,3.1,1.9c0.6-0.4,1.1-2.3-0.1-4.4c-1.6-2.8-4.8-3.8-4.8-3.8
				C89.5,34.4,90,38,91.3,40.6z"/>
			<path fill="#497244" d="M99,40.4c-0.9,2.4-2.5,2.6-3,2.1c-0.6-0.5-1-2.3-0.2-4.5c1.1-3,3.6-5.5,3.6-5.5
				C99.3,32.5,100.3,37.2,99,40.4z"/>
		</g>
		<g>
			<path fill="#497244" d="M85,62.4c-0.5,2.2,0.3,3.5,1,3.5c0.8,0.1,2.4-1.1,2.8-3.4c0.6-3.2-1.1-6.1-1.1-6.1
				C87.8,56.5,85.7,59.6,85,62.4z"/>
			<path fill="#497244" d="M90.9,67.4c-2.3,1.2-3.6,0.3-3.7-0.4c-0.1-0.8,0.8-2.4,2.8-3.6c2.8-1.5,6.3-1.7,6.3-1.8
				C96.3,61.7,94,65.8,90.9,67.4z"/>
		</g>
		<g>
			<path fill="#497244" d="M89.2,51.9c0.3,2.2,1.5,3.1,2.2,2.9c0.7-0.2,1.8-1.8,1.4-4.1c-0.5-3.1-3.2-5.2-3.2-5.2
				C89.6,45.5,88.8,49,89.2,51.9z"/>
			<path fill="#497244" d="M96.4,54.4c-1.7,1.9-3.2,1.5-3.6,0.9c-0.4-0.7-0.2-2.5,1.3-4.3c2.1-2.4,5.3-3.8,5.3-3.8
				C99.4,47.2,98.7,51.9,96.4,54.4z"/>
		</g>
		<g>
			<path fill="#497244" d="M77.7,72.3c-1,2.1-0.4,3.5,0.3,3.7c0.8,0.2,2.6-0.7,3.5-2.9c1.3-3,0.1-6.3,0.1-6.3
				C81.6,66.9,79,69.6,77.7,72.3z"/>
			<path fill="#497244" d="M82.6,78.3c-2.5,0.8-3.7-0.3-3.6-1.1c0-0.8,1.3-2.3,3.5-3.1c3.1-1,6.6-0.6,6.6-0.6
				C89.1,73.6,86,77.3,82.6,78.3z"/>
		</g>
		<g>
			<path fill="#497244" d="M66,80.1c-1.4,1.9-1.2,3.4-0.5,3.7c0.7,0.4,2.8-0.2,4.2-2.2c1.9-2.8,1.3-6.2,1.4-6.2
				C71.1,75.4,67.9,77.6,66,80.1z"/>
			<path fill="#497244" d="M69.7,86.8c-2.7,0.3-3.6-1-3.5-1.7c0.2-0.8,1.8-2.1,4.2-2.4c3.3-0.5,6.7,0.6,6.7,0.6
				C77.3,83.3,73.4,86.5,69.7,86.8z"/>
		</g>
		<path fill="#497244" d="M92.4,18.1c0.5,2.8-0.7,4.2-1.3,4.2c-0.7,0-1.9-1.2-2.3-3.6c-0.5-3.3,0-7.5,0-7.5
			C88.8,11.2,91.8,14.4,92.4,18.1z"/>
	</g>
</g>
</svg>
