<?xml version="1.0" encoding="utf-8"?>
<!-- Generator: Adobe Illustrator 18.1.0, SVG Export Plug-In . SVG Version: 6.00 Build 0)  -->
<svg version="1.1" id="Calque_1" xmlns="http://www.w3.org/2000/svg" xmlns:xlink="http://www.w3.org/1999/xlink" x="0px" y="0px"
	 viewBox="0 0 100 100" enable-background="new 0 0 100 100" xml:space="preserve">
<g>
	<path id="SVGID_1_" fill="#497244" d="M49.4,36.4c-17.5,0-31.6,14.2-31.6,31.6S32,99.6,49.4,99.6C66.8,99.7,81,85.6,81,68.1
		S66.8,36.4,49.4,36.4z M61.6,85l-12.3-6.5L37,85l2.3-13.7l-9.9-9.7l13.7-2l6.1-12.4l6.1,12.4l13.7,2l-9.9,9.7L61.6,85z"/>
</g>
<g>
	<polygon id="SVGID_2_" fill="#497244" points="58.3,35.8 34.9,36.5 15.7,0.4 39.5,0.4 	"/>
</g>
<g>
	<polygon id="SVGID_3_" fill="#497244" points="59.4,34.9 48.4,14.3 58.4,0.4 84.3,0.4 	"/>
</g>
</svg>
