<?xml version="1.0" encoding="utf-8"?>
<!-- Generator: Adobe Illustrator 18.1.0, SVG Export Plug-In . SVG Version: 6.00 Build 0)  -->
<svg version="1.1" id="Calque_1" xmlns="http://www.w3.org/2000/svg" xmlns:xlink="http://www.w3.org/1999/xlink" x="0px" y="0px"
	 viewBox="0 0 500 500" enable-background="new 0 0 500 500" xml:space="preserve">
<g>
	<g>
		<linearGradient id="SVGID_1_" gradientUnits="userSpaceOnUse" x1="6.0482" y1="245.889" x2="515.0793" y2="245.889">
			<stop  offset="0" style="stop-color:#3FA9F5"/>
			<stop  offset="1" style="stop-color:#7AC943"/>
		</linearGradient>
		<circle fill="url(#SVGID_1_)" cx="250.2" cy="245.9" r="60.5"/>
		<linearGradient id="SVGID_2_" gradientUnits="userSpaceOnUse" x1="7.1462" y1="427.3516" x2="514.8644" y2="427.3516">
			<stop  offset="0" style="stop-color:#3FA9F5"/>
			<stop  offset="1" style="stop-color:#7AC943"/>
		</linearGradient>
		<path fill="url(#SVGID_2_)" d="M262.7,403.3l97.3,96.8V427h71.8l-72.4-72.4C324.5,401.6,262.7,403.3,262.7,403.3z"/>
		<linearGradient id="SVGID_3_" gradientUnits="userSpaceOnUse" x1="6.0482" y1="427.4688" x2="515.0793" y2="427.4688">
			<stop  offset="0" style="stop-color:#3FA9F5"/>
			<stop  offset="1" style="stop-color:#7AC943"/>
		</linearGradient>
		<path fill="url(#SVGID_3_)" d="M68.6,426.8l72.6,0.7l0.7,72.6l96.1-96.8c-53.4-5-96.8-48.4-96.8-48.4L68.6,426.8z"/>
		<linearGradient id="SVGID_4_" gradientUnits="userSpaceOnUse" x1="6.0482" y1="245.889" x2="515.0793" y2="245.889">
			<stop  offset="0" style="stop-color:#3FA9F5"/>
			<stop  offset="1" style="stop-color:#7AC943"/>
		</linearGradient>
		<path fill="url(#SVGID_4_)" d="M383.3,245.9c0-73.4-59.8-133.2-133.2-133.2c-73.4,0-133.2,59.7-133.2,133.2S176.8,379,250.2,379
			C323.6,379,383.3,319.3,383.3,245.9z M250.2,330.6c-46.7,0-84.7-38-84.7-84.7s38-84.7,84.7-84.7s84.7,38,84.7,84.7
			S296.9,330.6,250.2,330.6z"/>
	</g>
	<g>
		<linearGradient id="SVGID_5_" gradientUnits="userSpaceOnUse" x1="30.3679" y1="171.6934" x2="469.3654" y2="171.6934">
			<stop  offset="0" style="stop-color:#3FA9F5"/>
			<stop  offset="1" style="stop-color:#7AC943"/>
		</linearGradient>
		<polygon fill="url(#SVGID_5_)" points="44.7,207.3 67.9,195.2 91,207.3 86.6,181.5 105.3,163.3 79.4,159.5 67.9,136 56.3,159.5 
			30.4,163.3 49.1,181.5 		"/>
		<linearGradient id="SVGID_6_" gradientUnits="userSpaceOnUse" x1="30.3679" y1="36.3253" x2="469.3655" y2="36.3253">
			<stop  offset="0" style="stop-color:#3FA9F5"/>
			<stop  offset="1" style="stop-color:#7AC943"/>
		</linearGradient>
		<polygon fill="url(#SVGID_6_)" points="262.4,24.1 250.8,0.7 239.2,24.1 213.3,27.9 232,46.2 227.6,72 250.8,59.8 273.9,72 
			269.5,46.2 288.3,27.9 		"/>
		<linearGradient id="SVGID_7_" gradientUnits="userSpaceOnUse" x1="30.3679" y1="171.6934" x2="469.3655" y2="171.6934">
			<stop  offset="0" style="stop-color:#3FA9F5"/>
			<stop  offset="1" style="stop-color:#7AC943"/>
		</linearGradient>
		<polygon fill="url(#SVGID_7_)" points="431.9,136 420.3,159.5 394.4,163.3 413.1,181.5 408.7,207.3 431.9,195.2 455,207.3 
			450.6,181.5 469.4,163.3 443.5,159.5 		"/>
	</g>
</g>
</svg>
