<?xml version="1.0" encoding="utf-8"?>
<!-- Generator: Adobe Illustrator 18.1.0, SVG Export Plug-In . SVG Version: 6.00 Build 0)  -->
<svg version="1.1" id="Calque_1" xmlns="http://www.w3.org/2000/svg" xmlns:xlink="http://www.w3.org/1999/xlink" x="0px" y="0px"
	 viewBox="0 0 100 100" enable-background="new 0 0 100 100" xml:space="preserve">
<g>
	<g>
		<path fill="#4CA53F" d="M50.1,48.1c-13.9,0-25.2,11.3-25.2,25.2c0,13.9,11.3,25.2,25.2,25.2c13.9,0,25.2-11.3,25.2-25.2
			C75.3,59.3,64,48.1,50.1,48.1z M59.9,86.7l-9.8-5.1l-9.8,5.1l1.9-10.9l-7.9-7.7l10.9-1.6l4.9-9.9l4.9,9.9l10.9,1.6L58,75.8
			L59.9,86.7z"/>
	</g>
	<g>
		<polygon fill="#4CA53F" points="25,4 25,28 24.7,28 39,38.2 39,28 39,4 		"/>
		<path fill="#4CA53F" d="M60.7,4c0,0,0.3-0.3,0.3-0.3v23.7v10.5l14-10.5V4H60.7z"/>
		<polygon fill="#4CA53F" points="42,4 42,27.4 42,39.6 50.1,45.5 58.8,39.4 59,27.4 59,4 		"/>
	</g>
</g>
</svg>
