<?xml version="1.0" encoding="utf-8"?>
<!-- Generator: Adobe Illustrator 18.1.0, SVG Export Plug-In . SVG Version: 6.00 Build 0)  -->
<svg version="1.1" id="Calque_1" xmlns="http://www.w3.org/2000/svg" xmlns:xlink="http://www.w3.org/1999/xlink" x="0px" y="0px"
	 viewBox="0 0 100 100" enable-background="new 0 0 100 100" xml:space="preserve">
<g>
	<path fill="#497244" d="M77.5,68.1C77.4,68.2,77.3,68.2,77.5,68.1L77.5,68.1c-0.3,0.1-0.7,0.3-1,0.4c-1.3,0.6-2.6,1.2-3.8,2
		c-3.4,2.3-5.9,6.4-9.9,7.6c-2.5,0.8-5.3,0.2-8.1-0.2c-0.5-0.1-0.9-0.2-1.4-0.2l14,22.6l7.6-12l15-0.1L77.5,68.1z"/>
	<path fill="#497244" d="M22.4,68.1C22.5,68.2,22.6,68.2,22.4,68.1L22.4,68.1c0.3,0.1,0.7,0.3,1,0.4c1.3,0.6,2.6,1.2,3.8,2
		c3.4,2.3,5.9,6.4,9.9,7.6c2.5,0.8,5.3,0.2,8.1-0.2c0.5-0.1,0.9-0.2,1.4-0.2l-14,22.6l-7.6-12l-15-0.1L22.4,68.1z"/>
	<g>
		<path fill="#497244" d="M86.7,25.7c-1.3-3.8-0.8-8.4-3.2-11.6C81.1,11,76.1,10,72.7,7.7c-3.4-2.3-5.9-6.4-9.9-7.6
			C58.9-1.1,54.3,0.8,50,0.8c-4.3,0-8.9-1.9-12.8-0.7c-4,1.2-6.5,5.3-9.9,7.6c-3.4,2.3-8.4,3.3-10.8,6.4c-2.4,3.1-1.9,7.8-3.2,11.6
			c-1.3,3.6-4.7,7.1-4.7,11.1c0,4,3.4,7.5,4.7,11.1c1.3,3.8,0.8,8.4,3.2,11.6c2.5,3.2,7.4,4.1,10.8,6.4c3.4,2.3,5.9,6.4,9.9,7.6
			c3.9,1.2,8.5-0.7,12.8-0.7c4.3,0,8.9,1.9,12.8,0.7c4-1.2,6.5-5.3,9.9-7.6c3.4-2.3,8.4-3.3,10.8-6.4c2.4-3.1,1.9-7.8,3.2-11.6
			c1.3-3.6,4.7-7.1,4.7-11.1C91.4,32.8,88,29.3,86.7,25.7z M50,67.2c-16.7,0-30.3-13.6-30.3-30.3S33.3,6.5,50,6.5
			c16.7,0,30.3,13.6,30.3,30.3S66.8,67.2,50,67.2z"/>
		<path fill="#497244" d="M50,9.6c-15,0-27.3,12.2-27.3,27.3S35,64.1,50,64.1c15,0,27.3-12.2,27.3-27.3S65.1,9.6,50,9.6z M49.9,52
			c-9.1,0-16.4-6.8-16.4-15.3c0-8.4,7.3-15.3,16.4-15.3c9.1,0,16.4,6.8,16.4,15.3C66.3,45.2,59,52,49.9,52z"/>
	</g>
</g>
</svg>
