<?xml version="1.0" encoding="utf-8"?>
<!-- Generator: Adobe Illustrator 18.1.0, SVG Export Plug-In . SVG Version: 6.00 Build 0)  -->
<svg version="1.1" id="Calque_1" xmlns="http://www.w3.org/2000/svg" xmlns:xlink="http://www.w3.org/1999/xlink" x="0px" y="0px"
	 viewBox="0 0 100 100" enable-background="new 0 0 100 100" xml:space="preserve">
<g>
	<rect x="13" y="76" fill="#4CA53F" width="73" height="5"/>
	<path fill="#79FF6A" d="M95.9,29.3c-2.2,0-4.1,1.8-4.1,4.1c0,1.9,1.3,3.5,3,3.9L76.7,56l-4.8-20.1c2.1-0.1,3.8-1.9,3.8-4
		c0-2.2-1.8-4.1-4.1-4.1c-2.2,0-4.1,1.8-4.1,4.1c0,2,1.4,3.6,3.3,4l-9.2,19.6l-8.3-19.6c1.9-0.4,3.3-2,3.3-4c0-2.2-1.8-4.1-4.1-4.1
		c-2.2,0-4.1,1.8-4.1,4.1c0,2,1.5,3.7,3.5,4L42,57l-9.6-21c1.8-0.4,3.1-2,3.1-3.9c0-2.2-1.8-4.1-4.1-4.1c-2.2,0-4.1,1.8-4.1,4.1
		c0,2.1,1.6,3.8,3.7,4l-8.1,22.5L6.1,36.5c1.4-0.6,2.4-2.1,2.4-3.7c0-2.2-1.8-4.1-4.1-4.1c-2.2,0-4.1,1.8-4.1,4.1
		c0,2.2,1.8,4.1,4.1,4.1c0.2,0,0.4,0,0.6-0.1l8.3,35.3l72,0.6l10.2-35.3c0.1,0,0.2,0,0.3,0c2.2,0,4.1-1.8,4.1-4.1
		C99.9,31.1,98.1,29.3,95.9,29.3z"/>
</g>
</svg>
