<?xml version="1.0" encoding="utf-8"?>
<!-- Generator: Adobe Illustrator 18.1.0, SVG Export Plug-In . SVG Version: 6.00 Build 0)  -->
<svg version="1.1" id="Calque_1" xmlns="http://www.w3.org/2000/svg" xmlns:xlink="http://www.w3.org/1999/xlink" x="0px" y="0px"
	 viewBox="0 0 100 100" enable-background="new 0 0 100 100" xml:space="preserve">
<g>
	<g>
		<path fill="#4CA53F" d="M66.7,53.8c-0.3,1-0.1,2.9-1,4.3c-1,1.4-3.2,2.7-4.1,3c-2.1,0.6-4.5,0.2-6.9-0.2c-0.4-0.1-0.8-0.1-1.2-0.2
			c-0.4-0.1-0.8-0.1-1.2-0.1c-0.6-0.1-1.1-0.1-1.6-0.1c-0.5,0-1.1,0-1.6,0.1c-0.4,0-0.8,0.1-1.2,0.1c-0.4,0.1-0.8,0.1-1.2,0.2
			c-2.4,0.4-4.8,0.8-6.9,0.2c-1.8-0.5-3.5-1.8-4.6-3.6c-0.5-0.8-0.9-1.9-1.3-2.9V100l17.3-22.2l15.7,22v-0.1v-46L66.7,53.8z"/>
	</g>
	<path fill="#4CA53F" d="M57,59.1c-1.3,0-2.6-0.2-3.8-0.4c-1.1-0.2-2.2-0.4-3.2-0.4c-1,0-2.1,0.2-3.2,0.4c-1.2,0.2-2.5,0.4-3.8,0.4
		c-1,0-1.8-0.1-2.7-0.4C38,58,36.4,56.4,35,55c-0.8-0.7-1.5-1.4-2.2-1.9C32,52.5,31,52.1,30,51.7c-1.9-0.8-4-1.8-5.4-3.6
		c-1.4-1.8-1.8-4-2-6c-0.2-1-0.3-2-0.6-2.8c-0.3-0.8-0.7-1.6-1.3-2.5c-1-1.7-2.2-3.7-2.2-6.1c0-2.4,1.2-4.3,2.2-6.1
		c0.5-0.9,1-1.7,1.3-2.5c0.3-0.8,0.4-1.8,0.6-2.8c0.3-1.9,0.6-4.1,2-6c1.4-1.8,3.5-2.8,5.4-3.6c1-0.5,2-0.9,2.7-1.4
		c0.7-0.5,1.4-1.2,2.2-1.9c1.4-1.4,3.1-3,5.4-3.7C41.1,2.4,42,2.3,43,2.3c1.3,0,2.6,0.2,3.8,0.4C47.9,2.9,49,3.1,50,3.1
		c1,0,2.1-0.2,3.2-0.4c1.2-0.2,2.5-0.4,3.8-0.4c1,0,1.8,0.1,2.7,0.4C62,3.4,63.6,5,65,6.4c0.8,0.7,1.5,1.4,2.2,1.9
		C68,8.8,69,9.3,70,9.7c1.9,0.8,4,1.8,5.4,3.6c1.4,1.8,1.8,4,2,6c0.2,1,0.3,2,0.6,2.8c0.3,0.8,0.7,1.6,1.3,2.5
		c1,1.7,2.2,3.7,2.2,6.1c0,2.4-1.2,4.3-2.2,6.1c-0.5,0.9-1,1.7-1.3,2.5c-0.3,0.8-0.4,1.8-0.6,2.8c-0.3,1.9-0.6,4.2-2,6
		c-1.4,1.8-3.5,2.8-5.4,3.6c-1,0.5-2,0.9-2.7,1.4c-0.7,0.5-1.4,1.2-2.2,1.9c-1.4,1.4-3.1,3-5.4,3.7C58.9,59,58,59.1,57,59.1z
		 M50,53.8c1.4,0,2.7,0.2,3.9,0.4c1.1,0.2,2.2,0.4,3.1,0.4c0.5,0,1-0.1,1.4-0.2c1.2-0.4,2.4-1.5,3.5-2.6c0.9-0.8,1.8-1.7,2.8-2.4
		c1.1-0.7,2.3-1.3,3.4-1.8c1.5-0.7,3-1.3,3.7-2.3c0.7-0.9,0.9-2.4,1.1-3.9c0.2-1.2,0.4-2.4,0.8-3.6c0.4-1.2,1-2.2,1.6-3.2
		c0.8-1.4,1.6-2.7,1.6-3.9c0-1.2-0.8-2.5-1.6-3.9c-0.6-1-1.2-2.1-1.6-3.2c-0.4-1.2-0.6-2.4-0.8-3.6c-0.2-1.5-0.4-3-1.1-3.9
		c-0.7-0.9-2.2-1.6-3.7-2.3c-1.1-0.5-2.3-1-3.4-1.8c-1.1-0.7-2-1.6-2.8-2.4c-1.2-1.2-2.3-2.3-3.5-2.6C58,6.8,57.5,6.7,57,6.7
		c-0.9,0-2,0.2-3.1,0.4c-1.3,0.2-2.6,0.4-3.9,0.4c-1.4,0-2.7-0.2-3.9-0.4C45,6.9,43.9,6.7,43,6.7c-0.5,0-1,0.1-1.4,0.2
		c-1.3,0.4-2.4,1.5-3.5,2.6c-0.9,0.8-1.8,1.7-2.8,2.4c-1.1,0.7-2.3,1.3-3.4,1.8c-1.5,0.7-3,1.3-3.7,2.3c-0.7,0.9-0.9,2.4-1.1,3.9
		c-0.2,1.2-0.4,2.4-0.8,3.6c-0.4,1.2-1,2.2-1.6,3.2c-0.8,1.4-1.6,2.7-1.6,3.9c0,1.2,0.8,2.5,1.6,3.9c0.6,1,1.2,2.1,1.6,3.2
		c0.4,1.2,0.6,2.4,0.8,3.6c0.2,1.5,0.4,3,1.1,3.9c0.7,0.9,2.2,1.6,3.7,2.3c1.1,0.5,2.3,1,3.4,1.8c1.1,0.7,2,1.6,2.8,2.4
		c1.2,1.2,2.3,2.3,3.5,2.6c0.4,0.1,0.8,0.2,1.4,0.2c0.9,0,2-0.2,3.1-0.4C47.3,54.1,48.6,53.8,50,53.8z"/>
	<g>
		<path fill="#4CA53F" d="M50.1,10.6c-10.8,0-19.6,8.8-19.6,19.6c0,10.8,8.8,19.6,19.6,19.6c10.8,0,19.6-8.8,19.6-19.6
			C69.7,19.4,60.9,10.6,50.1,10.6z M57.9,40.8l-7.6-4l-7.6,4l1.4-8.5l-6.1-6l8.5-1.2l3.8-7.7l3.8,7.7l8.5,1.2l-6.1,6L57.9,40.8z"/>
	</g>
</g>
</svg>
