<?xml version="1.0" encoding="utf-8"?>
<!-- Generator: Adobe Illustrator 18.1.0, SVG Export Plug-In . SVG Version: 6.00 Build 0)  -->
<svg version="1.1" id="Calque_1" xmlns="http://www.w3.org/2000/svg" xmlns:xlink="http://www.w3.org/1999/xlink" x="0px" y="0px"
	 viewBox="0 0 100 100" enable-background="new 0 0 100 100" xml:space="preserve">
<path fill="#79FF6A" d="M98.5,13l-0.6-2.5l-13.9,0c0.2-2.2,0.2-4.3,0.2-6.3c0-0.4,0-0.9,0-1.3L50.4,2.8L16,2.7c0,0.4,0,0.9,0,1.3
	c0,2.1,0.1,4.2,0.2,6.4l-13.9,0l-0.7,2.4c0,0.1-0.3,1.2-0.5,3.2h0C0.7,21,0,30.3,7,38.7c0,0,0,0,0,0c4,4.8,10.1,9.1,19.3,12.1
	c3.4,7.2,7.5,13.3,12,17.3c2.3,2.1,2.3,2.7,4.7,3.6l0.4,2.5L43,85.6l0,0v0l-14.7,5.8l-0.3,5.7L50,97.3v-0.1l21.7,0l0.1-5.2
	l-15.3-7.2l-0.1-12.3c7.3-2.6,12.2-10.9,17.3-21.7C105.4,40.8,98.6,13.3,98.5,13z M5.1,15.1c7.4,0,11.4,0,11.4,0s1.2,22.2,7.4,31.4
	C9.6,40.7,5.1,29.4,5.1,15.1z M59.4,37.2l2.1,13.1l-11.5-6v-0.1l0,0l-0.1-0.1l0.1,0l0,0.1v0.2l-11.3,5.9l2.2-13.1l-9.5-9.3L44.5,26
	l5.6-11.6L55.8,26l13.1,1.9L59.4,37.2z M76.4,46.5c6.2-9.2,7.4-31.4,7.4-31.4s4,0,11.4,0C95.3,29.4,90.8,40.7,76.4,46.5z"/>
</svg>
