<?xml version="1.0" encoding="utf-8"?>
<!-- Generator: Adobe Illustrator 18.1.0, SVG Export Plug-In . SVG Version: 6.00 Build 0)  -->
<svg version="1.1" id="Calque_1" xmlns="http://www.w3.org/2000/svg" xmlns:xlink="http://www.w3.org/1999/xlink" x="0px" y="0px"
	 viewBox="0 0 100 100" enable-background="new 0 0 100 100" xml:space="preserve">
<g>
	<g>
		<path fill="#497244" d="M50.1,20.1c-15.4,0-27.8,12.4-27.8,27.8c0,15.4,12.4,27.8,27.8,27.8c15.4,0,27.8-12.4,27.8-27.8
			C77.9,32.5,65.4,20.1,50.1,20.1z M50,69c-11.6,0-21-9.4-21-21c0-11.6,9.4-21,21-21c11.6,0,21,9.4,21,21C71,59.6,61.6,69,50,69z"/>
	</g>
	<circle fill="#497244" cx="50.2" cy="48.5" r="14.9"/>
	<path fill="#497244" d="M85.4,90.7L74,88.1l-3.3,11.2L57.6,77c0,0,6.1-2.2,7.9-3.3c1.8-1.1,6.7-5.3,6.7-5.3L85.4,90.7z"/>
	<path fill="#497244" d="M32,100l-4-10.9l-11.2,3.3l11.7-23.1c0,0,5.2,3.9,7.1,4.9c1.9,1,8.1,2.8,8.1,2.8L32,100z"/>
	<polygon fill="#497244" points="15.3,24.4 17.5,26.7 20.6,26.1 19.2,29 20.7,31.8 17.5,31.2 15.3,33.5 14.8,30.4 12,29 14.8,27.6 	
		"/>
	<polygon fill="#497244" points="85.4,27.1 85.3,30.6 88,32.7 84.7,33.6 83.5,36.9 81.6,34 78.1,33.9 80.3,31.1 79.3,27.8 82.6,29 	
		"/>
	<polygon fill="#497244" points="49.8,-0.3 51.6,3.4 55.7,4.1 52.7,6.9 53.3,11 49.7,9 46,10.9 46.8,6.8 43.9,3.9 48,3.3 	"/>
</g>
</svg>
