<?xml version="1.0" encoding="utf-8"?>
<!-- Generator: Adobe Illustrator 18.1.0, SVG Export Plug-In . SVG Version: 6.00 Build 0)  -->
<svg version="1.1" id="Calque_1" xmlns="http://www.w3.org/2000/svg" xmlns:xlink="http://www.w3.org/1999/xlink" x="0px" y="0px"
	 viewBox="0 0 100 100" enable-background="new 0 0 100 100" xml:space="preserve">
	<path d="M47.3,24.2c0-0.1,0-0.1,0-0.2c0,0,0,0,0,0c0-0.2-0.1-0.4-0.2-0.5c0-0.1-0.1-0.1-0.2-0.2c-0.5-0.4-1.5-0.2-1.6,0.6
		c0,0.3,0,0.5,0.2,0.7c0.1,0.2,0.5,0.5,0.9,0.4C46.9,24.9,47.2,24.6,47.3,24.2"/>
	<path d="M44,24c0-0.2,0-0.3-0.1-0.4c-0.1-0.1-0.1-0.2-0.2-0.3c-0.2-0.1-0.4-0.2-0.6-0.2c-0.2,0-0.4,0.1-0.6,0.2
		c-0.1,0.1-0.2,0.2-0.2,0.3c0,0,0,0.1-0.1,0.1c-0.1,0.2-0.1,0.4,0,0.6c0.1,0.4,0.5,0.8,1,0.7c0.3,0,0.5-0.1,0.6-0.3c0,0,0,0,0,0
		c0,0,0.1-0.1,0.1-0.1c0,0,0,0,0,0c0,0,0-0.1,0.1-0.1c0,0,0-0.1,0-0.1c0,0,0-0.1,0-0.1c0,0,0-0.1,0-0.1C44,24.1,44,24.1,44,24
		C44,24,44,24,44,24C44,24,44,24,44,24C44,24,44,24,44,24"/>
	<path d="M38.9,23.8C38.9,23.8,38.8,23.8,38.9,23.8C38.8,23.8,38.8,23.9,38.9,23.8c0,0.1,0,0.2,0,0.3v0c0,0,0,0,0,0.1c0,0,0,0,0,0.1
		c0,0,0,0,0,0c0.1,0.4,0.5,0.7,0.9,0.6c0.1,0,0.1,0,0.2,0h0c0,0,0.1,0,0.1,0c0,0,0,0,0.1,0c0,0,0,0,0.1,0c0,0,0.1,0,0.1-0.1
		c0,0,0,0,0,0c0.1-0.1,0.1-0.1,0.2-0.2c0,0,0-0.1,0-0.1c0,0,0,0,0,0c0,0,0,0,0-0.1c0,0,0,0,0,0c0,0,0,0,0,0c0-0.1,0-0.1,0-0.2v0v0
		c0-0.1,0-0.3-0.1-0.4c-0.1-0.1-0.2-0.3-0.3-0.3c-0.1-0.1-0.3-0.2-0.5-0.2c-0.2,0-0.4,0.1-0.5,0.2c-0.1,0-0.2,0.1-0.3,0.3
		c0,0.1-0.1,0.1-0.1,0.2C38.9,23.7,38.9,23.8,38.9,23.8"/>
	<path d="M36.9,24.7c0.2-0.2,0.4-0.4,0.4-0.8v0c0,0,0-0.1,0-0.1c0-0.1,0-0.1-0.1-0.2c-0.1-0.2-0.2-0.3-0.3-0.3c0,0,0,0,0,0
		c-0.1,0-0.2,0-0.3-0.1v1.7c0,0,0,0,0,0C36.7,24.9,36.8,24.8,36.9,24.7"/>
	<path d="M47,22.4c0,0.4,0.2,0.8,0.6,0.9c0,0,0,0,0,0c0.1,0,0.1,0,0.2,0.1c0,0,0,0,0,0c0,0,0,0,0.1,0c0,0,0,0,0,0c0,0,0,0,0,0v-2h0
		C47.4,21.4,47,21.8,47,22.4"/>
	<path d="M45.6,22.5c0-0.6-0.4-1-0.9-1c-0.8-0.1-1.4,0.8-0.9,1.5c0.1,0.1,0.3,0.3,0.5,0.4c0,0,0,0,0,0c0.2,0,0.4,0.1,0.5,0
		C45.3,23.2,45.6,22.9,45.6,22.5"/>
	<path d="M41.3,23.3C41.3,23.3,41.3,23.3,41.3,23.3c0,0,0.1,0,0.2,0h0c0.5-0.1,0.8-0.4,0.8-0.8c0.1-1.3-1.9-1.3-1.8,0
		C40.5,22.9,40.8,23.3,41.3,23.3"/>
	<path d="M38.2,23.2c0.4-0.1,0.7-0.3,0.8-0.8c0.1-0.6-0.5-1-1-0.9c-0.4,0-0.8,0.4-0.8,1C37.3,23,37.7,23.3,38.2,23.2"/>
	<path d="M47.3,20.9c0.1-1.3-1.8-1.5-1.9-0.2c0,0.3,0,0.5,0.2,0.7c0.1,0.2,0.5,0.5,0.9,0.4C46.9,21.6,47.2,21.3,47.3,20.9"/>
	<path d="M43,19.8c-0.5,0-0.9,0.4-0.9,0.9c0,0.5,0.5,1,1,0.9c0.5,0,0.9-0.4,0.9-0.9C44,20.2,43.6,19.8,43,19.8"/>
	<path d="M39.8,21.6c0.4,0,0.7-0.3,0.8-0.7c0.1-0.6-0.3-1.1-0.9-1.1c-0.5,0-0.9,0.4-0.9,0.9C38.8,21.3,39.3,21.6,39.8,21.6"/>
	<path d="M37.3,20.6c0-0.4-0.4-0.7-0.8-0.7v1.7c0,0,0,0,0.1,0C37,21.5,37.3,21.1,37.3,20.6"/>
	<path d="M47,19.1c0,0.5,0.4,1,1,1v-2h0C47.4,18.1,47,18.5,47,19.1"/>
	<path d="M44.8,18.1c-0.8-0.1-1.4,0.8-0.9,1.5c0.1,0.2,0.5,0.5,0.9,0.4c0.4-0.1,0.8-0.4,0.8-0.9C45.7,18.6,45.2,18.2,44.8,18.1"/>
	<path d="M41.5,20c0.5-0.1,0.8-0.4,0.8-0.8c0.1-1.3-1.9-1.3-1.8,0C40.5,19.6,40.9,20.1,41.5,20"/>
	<path d="M38.2,19.9c0.4-0.1,0.7-0.3,0.8-0.8c0.1-0.6-0.5-1-1-0.9c-0.4,0-0.8,0.4-0.8,1C37.3,19.7,37.7,20,38.2,19.9"/>
	<path d="M47.3,17.6c0.1-1.3-1.8-1.5-1.9-0.2c0,0.3,0,0.5,0.2,0.7c0.1,0.2,0.5,0.5,0.9,0.4C46.9,18.3,47.2,18,47.3,17.6"/>
	<path d="M43,16.5c-0.5,0-0.9,0.4-0.9,0.9c0,0.5,0.5,1,1,0.9c0.5,0,0.9-0.4,0.9-0.9C44,16.9,43.6,16.5,43,16.5"/>
	<path d="M39.8,18.3c0.4,0,0.7-0.3,0.8-0.7c0.1-0.6-0.3-1.1-0.9-1.1c-0.5,0-0.9,0.4-0.9,0.9C38.8,18,39.3,18.3,39.8,18.3"/>
	<path d="M37.3,17.3c0-0.4-0.4-0.7-0.8-0.7v1.7c0,0,0,0,0.1,0C37,18.2,37.3,17.8,37.3,17.3"/>
	<path d="M47,15.8c0,0.5,0.4,1,1,1v-2h0C47.4,14.8,47,15.2,47,15.8"/>
	<path d="M44.8,14.8c-0.8-0.1-1.4,0.8-0.9,1.5c0.1,0.2,0.5,0.4,0.9,0.4c0.4-0.1,0.8-0.4,0.8-0.9C45.7,15.3,45.2,14.9,44.8,14.8"/>
	<path d="M41.5,16.7c0.5-0.1,0.8-0.4,0.8-0.8c0.1-1.3-1.9-1.3-1.8,0C40.5,16.3,40.9,16.8,41.5,16.7"/>
	<path d="M38.2,16.6c0.4-0.1,0.7-0.3,0.8-0.8c0.1-0.6-0.5-1-1-0.9c-0.4,0-0.8,0.4-0.8,1C37.3,16.4,37.7,16.7,38.2,16.6"/>
	<path d="M47.3,14.3c0.1-1.3-1.8-1.5-1.9-0.2c0,0.3,0,0.5,0.2,0.7c0.1,0.2,0.5,0.5,0.9,0.4C46.9,15,47.2,14.7,47.3,14.3"/>
	<path d="M43,13.2c-0.5,0-0.9,0.4-0.9,0.9c0,0.5,0.5,1,1,0.9c0.5,0,0.9-0.4,0.9-0.9C44,13.6,43.6,13.2,43,13.2"/>
	<path d="M39.8,15c0.4,0,0.7-0.3,0.8-0.7c0.1-0.6-0.3-1.1-0.9-1.1c-0.5,0-0.9,0.4-0.9,0.9C38.8,14.7,39.3,15,39.8,15"/>
	<path d="M37.3,14c0-0.4-0.4-0.7-0.8-0.7V15c0,0,0,0,0.1,0C37,14.9,37.3,14.5,37.3,14"/>
	<path d="M54.6,11.4c-0.5,0-1,0.4-1,1.1c0,0,0,0,0,0.1h2.1c0,0,0,0,0-0.1C55.6,11.9,55.2,11.4,54.6,11.4"/>
	<path d="M51.4,11.5c-0.6-0.1-1.2,0.4-1.1,1.1h2C52.3,11.9,51.9,11.5,51.4,11.5"/>
	<path d="M48,11.5c-0.5,0-1,0.4-1,1c0,0.5,0.4,1,1,1v-0.9h1c0,0,0,0,0-0.1C48.9,11.9,48.5,11.5,48,11.5"/>
	<path d="M44.8,11.5c-0.8-0.1-1.4,0.8-0.9,1.5c0.1,0.2,0.5,0.4,0.9,0.4c0.4-0.1,0.8-0.4,0.8-0.9C45.7,12,45.2,11.6,44.8,11.5"/>
	<path d="M42.3,12.5c0.1-1.3-1.9-1.3-1.8,0c0,0.5,0.4,0.9,1,0.8C41.9,13.3,42.3,13,42.3,12.5"/>
	<path d="M38.2,13.3c0.4-0.1,0.7-0.3,0.8-0.8c0.1-0.6-0.5-1-1-0.9c-0.4,0-0.8,0.4-0.8,1C37.3,13.1,37.7,13.4,38.2,13.3"/>
	<path d="M54,10.8c0-0.6-0.4-1-1-1c-0.5,0-1,0.4-1,1c0,0.6,0.5,1.1,1.1,1C53.5,11.8,54,11.4,54,10.8"/>
	<path d="M50.6,10.9c0-0.6-0.4-1-0.9-1.1c-0.6-0.1-1.1,0.5-1.1,1.1c0.1,0.6,0.5,1,1.1,0.9c0.3,0,0.6-0.2,0.7-0.4
		C50.5,11.3,50.6,11.1,50.6,10.9"/>
	<path d="M47.3,11c0.1-1.3-1.8-1.5-1.9-0.2c0,0.3,0,0.5,0.2,0.7c0.1,0.2,0.5,0.5,0.9,0.4C46.9,11.7,47.2,11.4,47.3,11"/>
	<path d="M43,9.9c-0.5,0-0.9,0.4-0.9,0.9c0,0.5,0.5,1,1,0.9c0.5,0,0.9-0.4,0.9-0.9C44,10.3,43.6,9.9,43,9.9"/>
	<path d="M39.7,9.9c-0.5,0-0.9,0.4-0.9,0.9c0,0.5,0.4,0.9,0.9,0.9c0.4,0,0.7-0.3,0.8-0.7C40.7,10.5,40.3,9.9,39.7,9.9"/>
	<path d="M37.3,10.7c0-0.4-0.4-0.7-0.8-0.7v1.7c0,0,0,0,0.1,0C37,11.6,37.3,11.3,37.3,10.7"/>
	<path d="M54.6,10.2c0.6,0,1-0.4,1-1c0-0.6-0.5-1.1-1.1-1.1c-0.5,0-1,0.4-1,1.1C53.5,9.8,54,10.3,54.6,10.2"/>
	<path d="M50.8,10.1c0.1,0.1,0.4,0.1,0.6,0.1c0.5-0.1,0.8-0.4,0.9-0.9c0.1-0.7-0.4-1.1-0.9-1.1c-0.6-0.1-1.2,0.4-1.1,1.1
		C50.3,9.7,50.5,10,50.8,10.1"/>
	<path d="M48,10.2c0.5,0,0.9-0.4,0.9-1c0-0.5-0.4-1-1-1c-0.5,0-1,0.4-1,1C47,9.8,47.4,10.2,48,10.2"/>
	<path d="M44.8,8.2C44,8.2,43.4,9,43.9,9.7c0.1,0.2,0.5,0.5,0.9,0.4c0.4-0.1,0.8-0.4,0.8-0.9C45.7,8.7,45.2,8.3,44.8,8.2"/>
	<path d="M40.5,9.3c0,0.5,0.4,0.9,1,0.8c0.5-0.1,0.8-0.4,0.8-0.8C42.4,8,40.4,8,40.5,9.3"/>
	<path d="M38.2,10.1c0.4-0.1,0.7-0.3,0.8-0.8c0.1-0.6-0.5-1-1-1c-0.4,0-0.8,0.4-0.8,1C37.3,9.8,37.7,10.1,38.2,10.1"/>
	<path d="M54,7.5c0-0.6-0.4-1-1-1c-0.5,0-1,0.4-1,1c0,0.6,0.5,1.1,1.1,1C53.5,8.5,54,8.1,54,7.5"/>
	<path d="M49.7,8.5c0.3,0,0.6-0.2,0.7-0.4c0-0.1,0.1-0.2,0.2-0.5c0-0.6-0.4-1-0.9-1.1C49,6.5,48.6,7,48.6,7.6
		C48.7,8.2,49.1,8.6,49.7,8.5"/>
	<path d="M45.4,7.4c0,0.3,0,0.5,0.2,0.7c0.1,0.2,0.5,0.5,0.9,0.4c0.4-0.1,0.8-0.4,0.8-0.8C47.4,6.4,45.5,6.2,45.4,7.4"/>
	<path d="M43,6.6c-0.5,0-0.9,0.4-0.9,0.9c0,0.5,0.5,1,1,0.9c0.5,0,0.9-0.4,0.9-0.9C44,7,43.6,6.6,43,6.6"/>
	<path d="M39.7,6.6c-0.5,0-0.9,0.4-0.9,0.9c0,0.5,0.4,0.9,0.9,0.9c0.4,0,0.7-0.3,0.8-0.7C40.7,7.2,40.3,6.6,39.7,6.6"/>
	<path d="M37.3,7.4c0-0.4-0.4-0.7-0.8-0.7v1.7c0,0,0,0,0.1,0C37,8.3,37.3,8,37.3,7.4"/>
	<path d="M55.6,5.9c0-0.6-0.5-1.1-1.1-1.1c-0.5,0-1,0.4-1,1.1c0,0.6,0.5,1.1,1.1,1C55.2,6.9,55.6,6.5,55.6,5.9"/>
	<path d="M50.8,6.8c0.1,0.1,0.4,0.1,0.6,0.1c0.5-0.1,0.8-0.4,0.9-0.9c0.1-0.7-0.4-1.1-0.9-1.1c-0.6-0.1-1.2,0.4-1.1,1.1
		C50.3,6.4,50.5,6.7,50.8,6.8"/>
	<path d="M48,6.9c0.5,0,0.9-0.4,0.9-1c0-0.5-0.4-1-1-1c-0.5,0-1,0.4-1,1C47,6.5,47.4,6.9,48,6.9"/>
	<path d="M44.8,4.9c-0.8-0.1-1.4,0.8-0.9,1.5c0.1,0.2,0.5,0.4,0.9,0.4c0.4-0.1,0.8-0.4,0.8-0.9C45.7,5.4,45.2,5,44.8,4.9"/>
	<path d="M40.5,6c0,0.5,0.4,0.9,1,0.8c0.5-0.1,0.8-0.4,0.8-0.8C42.4,4.7,40.4,4.7,40.5,6"/>
	<path d="M38,5c-0.4,0-0.8,0.4-0.8,1c0,0.5,0.5,0.8,1,0.8c0.4-0.1,0.7-0.3,0.8-0.8C39,5.4,38.5,5,38,5"/>
	<path d="M51.9,4.2c0,0.6,0.5,1.1,1.1,1c0.5,0,1-0.5,1-1c0-0.6-0.4-1-1-1C52.4,3.2,51.9,3.6,51.9,4.2"/>
	<path d="M48.6,4.3c0.1,0.6,0.5,1,1.1,0.9c0.3,0,0.6-0.2,0.7-0.4c0-0.1,0.1-0.2,0.2-0.5c0-0.6-0.4-1-0.9-1.1
		C49,3.2,48.6,3.7,48.6,4.3"/>
	<path d="M45.5,4.8C45.7,5,46,5.3,46.5,5.2c0.4-0.1,0.8-0.4,0.8-0.8c0.1-1.3-1.8-1.5-1.9-0.2C45.3,4.4,45.4,4.6,45.5,4.8"/>
	<path d="M43.1,5.2c0.5,0,0.9-0.4,0.9-0.9c0-0.5-0.4-0.9-0.9-0.9c-0.5,0-0.9,0.4-0.9,0.9C42.1,4.8,42.5,5.2,43.1,5.2"/>
	<path d="M39.8,5.1c0.4,0,0.7-0.3,0.8-0.7c0.1-0.6-0.3-1.1-0.9-1.1c-0.5,0-0.9,0.4-0.9,0.9C38.8,4.8,39.3,5.2,39.8,5.1"/>
	<path d="M37.3,4.1c0-0.4-0.4-0.7-0.8-0.7v1.7c0,0,0,0,0.1,0C37,5,37.3,4.7,37.3,4.1"/>
	<path d="M54.6,3.6c0.5,0,0.9-0.4,1-1h-2.1C53.6,3.2,54,3.7,54.6,3.6"/>
	<path d="M50.8,3.5c0.1,0.1,0.4,0.1,0.6,0.1c0.5-0.1,0.8-0.4,0.9-0.9c0,0,0,0,0,0h-2c0,0,0,0,0,0.1C50.3,3.1,50.5,3.4,50.8,3.5"/>
	<path d="M48,3.6c0.5,0,0.9-0.4,0.9-0.9h-2C47,3.2,47.5,3.6,48,3.6"/>
	<path d="M44.8,3.5c0.4-0.1,0.8-0.4,0.8-0.9c0,0,0,0,0,0h-1.9c0,0.2,0.1,0.3,0.2,0.5C44,3.3,44.4,3.6,44.8,3.5"/>
	<path d="M41.5,3.5c0.5-0.1,0.8-0.4,0.8-0.8l-1.8,0C40.5,3.1,40.9,3.6,41.5,3.5"/>
	<path d="M38.2,3.5c0.4-0.1,0.7-0.3,0.8-0.8v0l-1.7,0v0C37.3,3.2,37.7,3.5,38.2,3.5"/>
	<path d="M33.1,46.3c-0.4-0.1-0.7-0.2-1-0.4c0,0,0,0,0,0c0,0,0.1-0.2,0.1-0.3c0.1-0.9-1-1.1-1.4-0.5c-0.1,0.1-0.1,0.2-0.1,0.4
		c-1.3-0.6-2.5-1.2-3.5-1.9c-0.1-0.2-0.3-0.4-0.6-0.4c-0.4-0.2-0.7-0.5-1-0.8c0,0,0-0.1,0-0.1c0.1-0.6-0.5-0.9-1-0.7
		c-0.3-0.2-0.5-0.5-0.8-0.7c0-0.1,0.1-0.1,0.1-0.2c0-0.4-0.2-0.6-0.4-0.7c-0.2-0.1-0.4,0-0.6,0c-0.3-0.3-0.5-0.6-0.8-0.9
		c0.1-0.2,0-0.5-0.1-0.6c-0.1-0.1-0.3-0.2-0.5-0.2c-1.4-1.9-2.3-3.8-2.8-5.6c0,0,0.1-0.1,0.1-0.2c-0.1-0.2-0.2-0.5-0.3-0.7
		c0,0,0,0-0.1,0c-0.3-1.2-0.4-2.4-0.4-3.4V2.7H6.5v26.1c0,10.8,6.7,18.5,20.8,18.6c3.9,0,6.9-0.7,6.9-0.7c-0.2-0.1-0.4-0.1-0.6-0.2
		C33.5,46.4,33.3,46.3,33.1,46.3"/>
	<path d="M38,44.6c-0.4,0-0.8,0.4-0.8,1c0,0,0,0.1,0,0.1c0.5-0.2,1.1-0.4,1.6-0.7C38.6,44.7,38.3,44.6,38,44.6"/>
	<path d="M34.8,44.6c-0.4,0-0.8,0.3-0.8,0.8c0,0.5,0.4,0.9,0.9,0.8c0.4,0,0.8-0.4,0.8-0.8C35.6,45,35.3,44.6,34.8,44.6"/>
	<path d="M39.7,42.9c-0.5,0-0.9,0.4-0.9,0.9c0,0.4,0.3,0.7,0.6,0.8c0.4-0.2,0.8-0.4,1.1-0.7C40.7,43.4,40.3,42.9,39.7,42.9"/>
	<path d="M35.6,43.7c-0.1,0.6,0.4,1,1,0.9c0.4-0.1,0.8-0.4,0.7-1C37.2,42.8,35.7,42.7,35.6,43.7"/>
	<path d="M33.2,44.6c0.6-0.1,1-0.9,0.5-1.4c-0.5-0.5-1.4-0.1-1.4,0.6C32.3,44.3,32.7,44.7,33.2,44.6"/>
	<path d="M30.2,43.1c-0.7-0.3-1.4,0.4-1,1c0.1,0.2,0.4,0.4,0.8,0.4c0.3,0,0.5-0.3,0.6-0.4C30.7,43.7,30.5,43.3,30.2,43.1"/>
	<path d="M40.5,42.2c0,0.5,0.4,0.9,1,0.8c0.5-0.1,0.8-0.4,0.8-0.8C42.4,41,40.4,41,40.5,42.2"/>
	<path d="M38.2,43c0.4-0.1,0.7-0.3,0.8-0.8c0.1-0.6-0.5-1-1-0.9c-0.4,0-0.8,0.4-0.8,1C37.3,42.7,37.7,43.1,38.2,43"/>
	<path d="M34.9,43c0.4,0,0.8-0.4,0.8-0.8c0-0.5-0.3-0.8-0.8-0.8c-0.4,0-0.8,0.3-0.8,0.8C34,42.6,34.4,43,34.9,43"/>
	<path d="M31.6,42.9c0.3,0,0.4-0.2,0.5-0.3c0,0,0.1-0.2,0.1-0.3c0.1-0.9-1-1.1-1.4-0.5c-0.1,0.2-0.2,0.6,0,0.9
		C30.9,42.8,31.2,43,31.6,42.9"/>
	<path d="M28.2,42.9c0.4,0,0.7-0.3,0.7-0.6c0.1-0.6-0.4-1-0.9-0.9c-0.3,0.1-0.7,0.4-0.6,0.9C27.5,42.7,27.8,42.9,28.2,42.9"/>
	<path d="M43,39.6c-0.5,0-0.9,0.4-0.9,0.9c0,0.5,0.5,1,1,0.9c0.5,0,0.9-0.4,0.9-0.9C44,40,43.6,39.6,43,39.6"/>
	<path d="M39.8,41.4c0.4,0,0.7-0.3,0.8-0.7c0.1-0.6-0.3-1.1-0.9-1.1c-0.5,0-0.9,0.4-0.9,0.9C38.8,41.1,39.3,41.4,39.8,41.4"/>
	<path d="M36.6,41.4c0.4-0.1,0.8-0.4,0.7-0.9c-0.1-0.9-1.6-1-1.7,0C35.5,41,36,41.4,36.6,41.4"/>
	<path d="M33.2,41.3c0.6-0.1,1-0.9,0.5-1.4c-0.5-0.5-1.4-0.1-1.4,0.6C32.3,41,32.7,41.4,33.2,41.3"/>
	<path d="M30.2,39.8c-0.7-0.3-1.4,0.4-1,1c0.1,0.2,0.4,0.4,0.8,0.4c0.3,0,0.5-0.3,0.6-0.4C30.7,40.4,30.5,40,30.2,39.8"/>
	<path d="M26.4,39.8c-0.3,0-0.5,0.3-0.6,0.6c-0.1,0.5,0.3,0.9,0.8,0.8c0.3,0,0.5-0.3,0.6-0.6C27.3,40.1,26.9,39.7,26.4,39.8"/>
	<path d="M44.8,37.9c-0.8-0.1-1.4,0.8-0.9,1.5c0.1,0.2,0.5,0.5,0.9,0.4c0,0,0.1,0,0.1,0c0.3-0.4,0.5-0.7,0.7-1.1
		C45.5,38.2,45.2,38,44.8,37.9"/>
	<path d="M41.5,39.8c0.5-0.1,0.8-0.4,0.8-0.8c0.1-1.3-1.9-1.3-1.8,0C40.5,39.4,40.9,39.8,41.5,39.8"/>
	<path d="M38,38c-0.4,0-0.8,0.4-0.8,1c0,0.5,0.5,0.8,1,0.8c0.4-0.1,0.7-0.3,0.8-0.8C39,38.3,38.5,37.9,38,38"/>
	<path d="M34.9,39.7c0.4,0,0.8-0.4,0.8-0.8c0-0.5-0.3-0.8-0.8-0.8c-0.4,0-0.8,0.3-0.8,0.8C34,39.3,34.4,39.7,34.9,39.7"/>
	<path d="M31.6,39.6c0.3,0,0.4-0.2,0.5-0.3c0,0,0.1-0.2,0.1-0.3c0.1-0.9-1-1.1-1.4-0.5c-0.1,0.2-0.2,0.6,0,0.9
		C30.9,39.5,31.2,39.7,31.6,39.6"/>
	<path d="M28.2,39.6c0.4,0,0.7-0.3,0.7-0.6c0.1-0.5-0.4-1-0.9-0.9c-0.3,0.1-0.7,0.4-0.6,0.9C27.5,39.4,27.8,39.6,28.2,39.6"/>
	<path d="M25,39.5c0.2,0,0.3-0.1,0.4-0.2c0.1-0.1,0.2-0.2,0.2-0.4c0.1-0.7-0.7-1-1.1-0.6c-0.3,0.3-0.2,0.7,0,1
		C24.5,39.5,24.7,39.6,25,39.5"/>
	<path d="M45.4,37.1c0,0.3,0,0.5,0.2,0.7c0.1,0.1,0.2,0.2,0.4,0.3c0.3-0.6,0.5-1.1,0.8-1.7C46.1,36.1,45.4,36.4,45.4,37.1"/>
	<path d="M43.1,38.1c0.5,0,0.9-0.4,0.9-0.9c0-0.5-0.4-0.9-0.9-0.9c-0.5,0-0.9,0.4-0.9,0.9C42.1,37.8,42.5,38.2,43.1,38.1"/>
	<path d="M39.8,38.1c0.4,0,0.7-0.3,0.8-0.7c0.1-0.6-0.3-1.1-0.9-1.1c-0.5,0-0.9,0.4-0.9,0.9C38.8,37.8,39.3,38.1,39.8,38.1"/>
	<path d="M35.6,37.1c-0.1,0.6,0.4,1,1,0.9c0.4-0.1,0.8-0.4,0.7-1C37.2,36.2,35.7,36.1,35.6,37.1"/>
	<path d="M33.2,38c0.6-0.1,1-0.9,0.5-1.4c-0.5-0.5-1.4-0.1-1.4,0.6C32.3,37.7,32.7,38.1,33.2,38"/>
	<path d="M29.9,38c0.3,0,0.5-0.3,0.6-0.4c0.1-0.2,0.1-0.5,0-0.6c-0.5,0.1-1,0.2-1.5,0.3c0,0.1,0,0.2,0.1,0.3
		C29.3,37.8,29.6,38,29.9,38"/>
	<path d="M26.7,37.9c0.3-0.1,0.5-0.3,0.6-0.5c-0.5,0-1,0-1.4-0.1C25.9,37.7,26.2,38,26.7,37.9"/>
	<path d="M23.3,37.9c0.3,0,0.5-0.2,0.5-0.5c0-0.2,0-0.3-0.1-0.5c-0.3-0.1-0.5-0.2-0.7-0.3c-0.2,0.1-0.3,0.2-0.4,0.4
		C22.4,37.5,22.9,37.9,23.3,37.9"/>
	<path d="M44.8,36.5c0.4-0.1,0.8-0.4,0.8-0.9c0-0.6-0.4-1-0.9-1c-0.8-0.1-1.4,0.8-0.9,1.5C44,36.3,44.4,36.6,44.8,36.5"/>
	<path d="M41.5,36.5c0.5-0.1,0.8-0.4,0.8-0.8c0.1-1.3-1.9-1.3-1.8,0C40.5,36.1,40.9,36.5,41.5,36.5"/>
	<path d="M38.2,36.4c0.4-0.1,0.7-0.3,0.8-0.8c0.1-0.6-0.5-1-1-0.9c-0.4,0-0.8,0.4-0.8,1C37.3,36.1,37.7,36.5,38.2,36.4"/>
	<path d="M34.9,36.4c0.4,0,0.8-0.4,0.8-0.8c0-0.5-0.3-0.8-0.8-0.8c-0.4,0-0.8,0.3-0.8,0.8C34,36.1,34.4,36.4,34.9,36.4"/>
	<path d="M21.7,36.2c0.1,0,0.2-0.1,0.3-0.1c-0.3-0.2-0.7-0.4-1-0.7C20.9,35.8,21.2,36.2,21.7,36.2"/>
	<path d="M45.4,33.8c0,0.3,0,0.5,0.2,0.7c0.1,0.2,0.5,0.5,0.9,0.4c0.4-0.1,0.8-0.4,0.8-0.8C47.4,32.7,45.5,32.6,45.4,33.8"/>
	<path d="M43.1,34.8c0.5,0,0.9-0.4,0.9-0.9c0-0.5-0.4-0.9-0.9-0.9c-0.5,0-0.9,0.4-0.9,0.9C42.1,34.5,42.5,34.9,43.1,34.8"/>
	<path d="M39.8,34.8c0.4,0,0.7-0.3,0.8-0.7c0.1-0.6-0.3-1.1-0.9-1.1c-0.5,0-0.9,0.4-0.9,0.9C38.8,34.5,39.3,34.8,39.8,34.8"/>
	<path d="M36.6,34.8c0.4-0.1,0.8-0.4,0.7-0.9c-0.1-0.9-1.6-1-1.7,0C35.5,34.4,36,34.8,36.6,34.8"/>
	<path d="M20,34.5c-0.2-0.3-0.4-0.5-0.6-0.8c-0.1,0.1-0.1,0.2-0.1,0.4C19.4,34.3,19.7,34.5,20,34.5"/>
	<path d="M47,32.3c0,0.4,0.2,0.7,0.6,0.9c0.1-0.6,0.2-1.2,0.3-1.9C47.4,31.4,47,31.7,47,32.3"/>
	<path d="M44.8,31.3c-0.8-0.1-1.4,0.8-0.9,1.5c0.1,0.2,0.5,0.5,0.9,0.4c0.4-0.1,0.8-0.4,0.8-0.9C45.7,31.8,45.2,31.4,44.8,31.3"/>
	<path d="M40.5,32.3c0,0.5,0.4,0.9,1,0.8c0.5-0.1,0.8-0.4,0.8-0.8C42.4,31.1,40.4,31.1,40.5,32.3"/>
	<path d="M38.2,33.1c0.4-0.1,0.7-0.3,0.8-0.8c0.1-0.6-0.5-1-1-1c-0.4,0-0.8,0.4-0.8,1C37.3,32.8,37.7,33.2,38.2,33.1"/>
	<path d="M46.5,31.6c0.4-0.1,0.8-0.4,0.8-0.8c0.1-1.3-1.8-1.5-1.9-0.2c0,0.3,0,0.5,0.2,0.7C45.7,31.4,46,31.6,46.5,31.6"/>
	<path d="M43,29.7c-0.5,0-0.9,0.4-0.9,0.9c0,0.5,0.5,1,1,0.9c0.5,0,0.9-0.4,0.9-0.9C44,30.1,43.6,29.7,43,29.7"/>
	<path d="M39.8,31.5c0.4,0,0.7-0.3,0.8-0.7c0.1-0.6-0.3-1.1-0.9-1.1c-0.5,0-0.9,0.4-0.9,0.9C38.8,31.2,39.3,31.5,39.8,31.5"/>
	<path d="M36.6,31.5c0.4-0.1,0.8-0.4,0.7-0.9c-0.1-0.5-0.5-0.7-0.8-0.7c-0.1,0.6-0.2,1.1-0.3,1.6C36.2,31.5,36.4,31.5,36.6,31.5"/>
	<path d="M47,29c0,0.5,0.4,0.9,0.9,1c0-0.4,0-0.8,0-1.2V28c0,0,0,0,0,0C47.4,28,47,28.4,47,29"/>
	<path d="M44.8,29.9c0.4-0.1,0.8-0.4,0.8-0.9c0-0.6-0.4-1-0.9-1c-0.8-0.1-1.4,0.8-0.9,1.5C44,29.7,44.4,30,44.8,29.9"/>
	<path d="M40.5,29c0,0.5,0.4,0.9,1,0.8c0.5-0.1,0.8-0.4,0.8-0.8C42.4,27.8,40.4,27.8,40.5,29"/>
	<path d="M38.2,29.8c0.4-0.1,0.7-0.3,0.8-0.8c0.1-0.6-0.5-1-1-0.9c-0.4,0-0.8,0.4-0.8,1C37.3,29.5,37.7,29.9,38.2,29.8"/>
	<path d="M47.3,27.4c0.1-1.3-1.8-1.5-1.9-0.2c0,0.3,0,0.5,0.2,0.7c0.1,0.2,0.5,0.5,0.9,0.4C46.9,28.2,47.2,27.9,47.3,27.4"/>
	<path d="M43.1,28.3c0.5,0,0.9-0.4,0.9-0.9c0-0.5-0.4-0.9-0.9-0.9c-0.5,0-0.9,0.4-0.9,0.9C42.1,27.9,42.5,28.3,43.1,28.3"/>
	<path d="M39.8,28.2c0.4,0,0.7-0.3,0.8-0.7c0.1-0.6-0.3-1.1-0.9-1.1c-0.5,0-0.9,0.4-0.9,0.9C38.8,27.9,39.3,28.2,39.8,28.2"/>
	<path d="M37.3,27.2c0-0.4-0.4-0.7-0.8-0.7v1.7c0,0,0,0,0.1,0C37,28.1,37.3,27.7,37.3,27.2"/>
	<path d="M47,25.7c0,0.5,0.4,1,1,1v-2h0C47.4,24.7,47,25.1,47,25.7"/>
	<path d="M44.8,24.7c-0.8-0.1-1.4,0.8-0.9,1.5c0.1,0.2,0.5,0.5,0.9,0.4c0.4-0.1,0.8-0.4,0.8-0.9C45.7,25.2,45.2,24.8,44.8,24.7"/>
	<path d="M40.6,26.1C40.6,26.1,40.6,26.1,40.6,26.1c0.2,0.3,0.5,0.5,0.9,0.4c0.4-0.1,0.7-0.3,0.8-0.8c0,0,0,0,0-0.1c0,0,0,0,0,0
		c0-0.5-0.2-0.8-0.5-0.9c-0.1,0-0.2-0.1-0.3-0.1c-0.1,0-0.3,0-0.4,0.1c-0.3,0.1-0.6,0.4-0.6,0.9C40.5,25.9,40.5,26,40.6,26.1"/>
	<path d="M38.2,26.5c0.4,0,0.7-0.3,0.7-0.7c0,0,0,0,0,0c0,0,0,0,0,0c0,0,0,0,0,0v0c0-0.6-0.5-0.9-1-0.9c-0.4,0-0.8,0.4-0.8,1
		C37.3,26.3,37.7,26.6,38.2,26.5"/>
	<path d="M89.5,24.8c-0.4,0-0.8,0.3-0.8,0.7c0,0,0,0,0,0.1c0,0,0,0,0,0v0c0,0,0,0.1,0,0.1c0.1,0.4,0.4,0.6,0.7,0.7
		c0.3,0,0.6-0.1,0.8-0.4c0,0,0,0,0,0c0,0,0-0.1,0.1-0.1l0,0c0-0.1,0.1-0.2,0.1-0.3C90.4,25.2,90,24.8,89.5,24.8"/>
	<path d="M70.5,23.4c-0.1,0.2-0.2,0.4-0.2,0.6c0,0.3,0.1,0.6,0.3,0.7c0,0,0,0,0,0c0,0,0,0,0,0c0.2,0.2,0.4,0.2,0.6,0.3
		c0.1,0,0.2,0,0.2,0c0,0,0.1,0,0.1,0c0,0,0,0,0,0c0.4-0.1,0.7-0.5,0.7-1c0-0.6-0.5-1-1-1c-0.3,0-0.6,0.1-0.8,0.3
		C70.6,23.3,70.6,23.4,70.5,23.4"/>
	<path d="M74.6,25c0.1,0,0.3,0,0.4,0c0.4-0.1,0.7-0.4,0.7-0.9c0-0.2,0-0.3-0.1-0.5c0,0,0,0,0,0c0,0,0-0.1-0.1-0.1c0,0,0,0,0,0
		C75.4,23.2,75,23,74.6,23c-0.5,0-1,0.4-0.9,1.1c0,0.2,0.1,0.4,0.2,0.5c0.1,0.1,0.2,0.3,0.4,0.3C74.4,25,74.5,25,74.6,25"/>
	<path d="M78.8,24.6c0.1-0.2,0.2-0.4,0.2-0.7c-0.1-0.9-1.1-1-1.6-0.6c-0.1,0-0.1,0.1-0.2,0.2c-0.1,0.1-0.2,0.3-0.2,0.5v0
		c0,0.1,0,0.1,0,0.2c0,0.4,0.4,0.8,0.8,0.8C78.3,25,78.7,24.8,78.8,24.6"/>
	<path d="M82.2,24.2c0-0.2,0-0.4,0-0.6c0,0,0-0.1-0.1-0.1c0-0.1-0.1-0.2-0.2-0.3c-0.2-0.1-0.4-0.2-0.6-0.2c-0.2,0-0.4,0.1-0.6,0.2
		c-0.1,0.1-0.2,0.2-0.2,0.3c-0.1,0.1-0.1,0.3-0.1,0.4c0,0,0,0,0,0v0v0c0,0,0,0.1,0,0.1c0,0,0,0.1,0,0.1c0,0,0,0.1,0,0.1
		c0,0,0,0.1,0,0.1c0,0,0,0.1,0.1,0.1c0,0,0,0,0,0c0,0,0.1,0.1,0.1,0.1c0,0,0,0,0,0c0.2,0.2,0.4,0.3,0.6,0.3
		C81.7,25,82.1,24.7,82.2,24.2"/>
	<path d="M83.7,24.2C83.7,24.2,83.7,24.2,83.7,24.2c0,0.1,0,0.1,0,0.1c0,0,0,0,0,0c0,0,0,0.1,0,0.1c0,0.1,0.1,0.2,0.2,0.2
		c0,0,0,0,0,0c0,0,0.1,0,0.1,0.1c0,0,0,0,0.1,0c0,0,0,0,0.1,0c0,0,0.1,0,0.1,0h0c0.1,0,0.1,0,0.2,0c0.4,0,0.8-0.2,0.9-0.6
		c0,0,0,0,0,0c0,0,0,0,0-0.1c0,0,0,0,0-0.1c0,0,0,0,0,0c0-0.1,0-0.2,0-0.3c0,0,0,0,0,0c0,0,0,0,0,0c0,0,0-0.1,0-0.1
		c0-0.1,0-0.1-0.1-0.2c-0.1-0.1-0.2-0.2-0.3-0.3c-0.1-0.1-0.3-0.2-0.5-0.2c-0.2,0-0.4,0.1-0.5,0.2c-0.1,0-0.2,0.2-0.3,0.3
		c-0.1,0.1-0.1,0.3-0.1,0.4c0,0,0,0,0,0v0C83.7,24.1,83.7,24.1,83.7,24.2C83.7,24.2,83.7,24.2,83.7,24.2"/>
	<path d="M87.4,24.7c0.1,0.1,0.2,0.1,0.4,0.1c0.2,0,0.5,0,0.6-0.1c0,0,0,0,0,0c0,0,0,0,0,0c0.2-0.1,0.3-0.4,0.3-0.7c0,0,0-0.1,0-0.1
		c0-0.1,0-0.1,0-0.1c0,0,0,0,0-0.1c0,0,0,0,0,0c-0.1-0.2-0.2-0.3-0.4-0.4c0,0,0,0,0,0c0,0,0,0,0,0c-0.2-0.1-0.5-0.1-0.7,0
		c0,0,0,0,0,0c-0.1,0-0.3,0.2-0.3,0.3c0,0.1-0.1,0.1-0.1,0.2c0,0,0,0.1,0,0.1v0C87,24.3,87.2,24.6,87.4,24.7"/>
	<path d="M91.5,23.3L91.5,23.3c-0.2-0.1-0.4-0.1-0.6,0h0c0,0,0,0,0,0c0,0,0,0,0,0c0,0-0.1,0-0.1,0.1c0,0,0,0,0,0c0,0-0.1,0-0.1,0.1
		c0,0,0,0,0,0c0,0,0,0,0,0c0,0,0,0-0.1,0.1c-0.2,0.2-0.2,0.5-0.1,0.8c0.1,0.3,0.3,0.5,0.7,0.5c0.2,0,0.3,0,0.5-0.1
		c0,0,0.1,0,0.1-0.1c0.1-0.2,0.2-0.4,0.3-0.6c0-0.1,0-0.3-0.1-0.4C91.8,23.5,91.7,23.4,91.5,23.3"/>
	<path d="M72,22.5c0,0.4,0.3,0.7,0.6,0.8c0.1,0,0.2,0.1,0.3,0.1c0.2,0,0.4,0,0.6-0.1c0.3-0.1,0.5-0.4,0.6-0.8c0-0.2,0-0.4-0.1-0.6
		h-1.9C72.1,22.1,72,22.3,72,22.5"/>
	<path d="M77.3,22.4c0-0.2,0-0.3-0.1-0.5c-0.2,0-0.5,0-0.7,0h-1.1c-0.1,0.1-0.1,0.3-0.1,0.4c0,0.4,0.2,0.8,0.6,0.9
		c0.1,0.1,0.2,0.1,0.4,0.1c0,0,0,0,0,0c0,0,0,0,0.1,0c0,0,0,0,0,0c0.1,0,0.2,0,0.2-0.1c0,0,0,0,0,0C77.1,23.1,77.3,22.8,77.3,22.4"
		/>
	<path d="M79.6,21.4c-0.5,0-0.9,0.5-0.9,1c0,0.4,0.3,0.7,0.7,0.8c0.1,0.1,0.4,0,0.5,0c0,0,0,0,0,0c0.2-0.1,0.4-0.2,0.5-0.4
		C80.9,22.2,80.3,21.4,79.6,21.4"/>
	<path d="M83.9,22.5c0.1-1.3-1.9-1.3-1.8,0c0,0.5,0.3,0.8,0.8,0.8h0c0,0,0.1,0,0.2,0c0,0,0,0,0,0C83.5,23.3,83.8,22.9,83.9,22.5"/>
	<path d="M86.1,23.2c0.5,0.1,0.9-0.3,1-0.8c0.1-0.6-0.4-0.9-0.8-1c-0.5-0.1-1,0.3-1,0.9C85.4,22.9,85.7,23.2,86.1,23.2"/>
	<path d="M89.5,21.6c-0.5,0-0.8,0.4-0.8,0.8c0,0.4,0.3,0.8,0.8,0.8c0.5,0,0.9-0.3,0.9-0.8C90.4,21.9,90,21.6,89.5,21.6"/>
	<path d="M92.1,22.5c0,0.2,0.1,0.3,0.1,0.3c0.1,0.1,0.1,0.2,0.3,0.2c0.2-0.5,0.3-0.9,0.5-1.4C92.5,21.6,92,21.9,92.1,22.5"/>
	<path d="M81.2,21.7c0.5,0,1-0.4,1-0.9c0-0.6-0.5-0.9-0.9-0.9c0,0,0,0-0.1,0c-0.2,0.4-0.5,0.7-0.9,0.9
		C80.4,21.3,80.7,21.6,81.2,21.7"/>
	<path d="M84.6,21.6c0.5,0,0.9-0.3,0.9-0.9c0-0.5-0.4-0.9-0.9-0.9c-0.6,0-1,0.5-0.9,1.1C83.8,21.3,84.1,21.6,84.6,21.6"/>
	<path d="M87.1,20.6c-0.1,0.5,0.3,0.9,0.7,1c0.6,0.1,1-0.3,1-0.9C88.6,19.6,87.2,19.7,87.1,20.6"/>
	<path d="M90.6,20.2c-0.5,0.5-0.2,1.3,0.5,1.4c0.5,0.1,0.9-0.3,0.9-0.8C92,20.1,91.1,19.6,90.6,20.2"/>
	<path d="M82.8,20c0.6,0.1,1-0.4,1-0.8c0.1-1.3-1.9-1.3-1.8,0C82.1,19.6,82.4,19.9,82.8,20"/>
	<path d="M86.3,18.2c-0.5-0.1-1,0.3-1,0.9c0,0.4,0.4,0.7,0.8,0.8c0.5,0.1,0.9-0.3,1-0.8C87.2,18.6,86.7,18.3,86.3,18.2"/>
	<path d="M89.5,18.3c-0.5,0-0.8,0.4-0.8,0.8c0,0.4,0.3,0.8,0.8,0.8c0.5,0,0.9-0.3,0.9-0.8C90.4,18.6,90,18.3,89.5,18.3"/>
	<path d="M92.1,19.2c0,0.2,0.1,0.3,0.1,0.3c0.1,0.1,0.3,0.3,0.5,0.3c0.3,0,0.5,0,0.6-0.2c0.1-0.4,0.1-0.7,0.1-1.1
		C93,18.1,92,18.3,92.1,19.2"/>
	<path d="M82.2,17.4c0-0.3-0.1-0.5-0.3-0.7c0,0.2,0,0.3,0,0.5c0,0,0,0,0,0c0,0.3,0,0.6-0.1,0.9C82.1,18,82.2,17.7,82.2,17.4"/>
	<path d="M84.6,16.5c-0.6,0-1,0.5-0.9,1.1c0.1,0.4,0.4,0.6,0.8,0.7c0.5,0,0.9-0.3,0.9-0.9C85.5,16.9,85.1,16.5,84.6,16.5"/>
	<path d="M87.1,17.3c-0.1,0.5,0.3,0.9,0.7,0.9c0.6,0.1,1-0.3,1-0.9C88.6,16.3,87.2,16.4,87.1,17.3"/>
	<path d="M90.6,16.9c-0.5,0.5-0.2,1.3,0.5,1.4c0.5,0.1,0.9-0.3,0.9-0.8C92,16.8,91.1,16.3,90.6,16.9"/>
	<path d="M82.8,16.7c0.6,0.1,1-0.4,1-0.8c0.1-1.3-1.9-1.3-1.8,0C82.1,16.3,82.4,16.6,82.8,16.7"/>
	<path d="M86.3,14.9c-0.5-0.1-1,0.3-1,0.9c0,0.4,0.4,0.7,0.8,0.8c0.5,0.1,0.9-0.3,1-0.8C87.2,15.3,86.7,15,86.3,14.9"/>
	<path d="M89.5,15c-0.5,0-0.8,0.4-0.8,0.8c0,0.4,0.3,0.8,0.8,0.8c0.5,0,0.9-0.3,0.9-0.8C90.4,15.3,90,15,89.5,15"/>
	<path d="M92.7,16.6c0.4,0.1,0.6-0.1,0.7-0.3c0-0.4-0.1-0.7-0.1-1c-0.5-0.4-1.4-0.1-1.3,0.7c0,0.2,0.1,0.3,0.1,0.3
		C92.3,16.4,92.5,16.5,92.7,16.6"/>
	<path d="M81.3,13.2c-0.4,0-0.7,0.3-0.9,0.6c0.4,0.3,0.8,0.8,1,1.2c0.4-0.1,0.8-0.4,0.8-0.9C82.2,13.6,81.8,13.2,81.3,13.2"/>
	<path d="M84.6,13.2c-0.6,0-1,0.5-0.9,1.1c0.1,0.4,0.4,0.6,0.8,0.7c0.5,0,0.9-0.3,0.9-0.9C85.5,13.6,85.1,13.2,84.6,13.2"/>
	<path d="M87.1,14c-0.1,0.5,0.3,0.9,0.7,0.9c0.6,0.1,1-0.3,1-0.9C88.6,13,87.2,13.1,87.1,14"/>
	<path d="M90.6,13.6c-0.5,0.5-0.2,1.3,0.5,1.4c0.5,0.1,0.9-0.3,0.9-0.8C92,13.5,91.1,13.1,90.6,13.6"/>
	<path d="M68.7,12.5C68.7,12.5,68.7,12.5,68.7,12.5l2.1,0c0,0,0,0,0,0c0-0.6-0.5-1-1-1.1C69.2,11.4,68.7,11.9,68.7,12.5"/>
	<path d="M72.9,11.5c-0.5,0-0.9,0.4-0.9,1.1h2C74.1,11.8,73.5,11.4,72.9,11.5"/>
	<path d="M76.4,11.5c-0.6,0-1,0.4-1,1c0,0,0,0,0,0.1h1.2c0.3,0,0.5,0,0.8,0c0,0,0-0.1,0-0.1C77.4,11.9,76.9,11.5,76.4,11.5"/>
	<path d="M79.6,11.5c-0.5,0-0.9,0.5-0.9,1c0,0.1,0,0.2,0.1,0.3c0.4,0.1,0.7,0.3,1.1,0.5c0.3-0.1,0.5-0.2,0.6-0.4
		C80.9,12.3,80.3,11.5,79.6,11.5"/>
	<path d="M82,12.5c0,0.5,0.3,0.8,0.8,0.8c0.6,0.1,1-0.4,1-0.8C83.9,11.3,82,11.3,82,12.5"/>
	<path d="M86.3,11.6c-0.5-0.1-1,0.3-1,0.9c0,0.4,0.4,0.7,0.8,0.8c0.5,0.1,0.9-0.3,1-0.8C87.2,12,86.7,11.7,86.3,11.6"/>
	<path d="M89.5,11.7c-0.5,0-0.8,0.4-0.8,0.8c0,0.4,0.3,0.8,0.8,0.8c0.5,0,0.9-0.3,0.9-0.8C90.4,12,90,11.7,89.5,11.7"/>
	<path d="M92.7,13.3c0.1,0,0.2,0,0.3,0c-0.1-0.5-0.3-1-0.5-1.5c-0.3,0.1-0.5,0.4-0.5,0.8c0,0.2,0.1,0.3,0.1,0.3
		C92.3,13.1,92.5,13.2,92.7,13.3"/>
	<path d="M70.4,10.8c0,0.6,0.4,1,1,1c0.6,0.1,1.1-0.4,1.1-1c0-0.6-0.5-1-1-1C70.8,9.8,70.4,10.3,70.4,10.8"/>
	<path d="M73.7,10.9c0,0.2,0.1,0.4,0.2,0.5c0.1,0.2,0.4,0.4,0.7,0.4c0.6,0.1,1.1-0.3,1.1-0.9c0.1-0.6-0.4-1.1-1.1-1.1
		C74.1,9.9,73.7,10.3,73.7,10.9"/>
	<path d="M77,11c0,0.4,0.4,0.8,0.8,0.8c0.5,0.1,0.8-0.2,1-0.4C79,11.2,79,11,79,10.7C78.8,9.5,76.9,9.7,77,11"/>
	<path d="M81.3,9.9c-0.5,0-0.9,0.4-0.9,0.9c0,0.5,0.4,0.9,0.9,0.9c0.5,0,1-0.4,1-0.9C82.2,10.3,81.8,9.9,81.3,9.9"/>
	<path d="M84.6,9.9c-0.6,0-1,0.5-0.9,1.1c0.1,0.4,0.4,0.6,0.8,0.7c0.5,0,0.9-0.3,0.9-0.9C85.5,10.3,85.1,9.9,84.6,9.9"/>
	<path d="M87.1,10.7c-0.1,0.5,0.3,0.9,0.7,0.9c0.6,0.1,1-0.3,1-0.9C88.6,9.7,87.2,9.8,87.1,10.7"/>
	<path d="M90.6,10.3c-0.5,0.5-0.2,1.3,0.5,1.4c0.5,0.1,0.9-0.3,0.9-0.8C92,10.2,91.1,9.8,90.6,10.3"/>
	<path d="M68.7,9.2c0,0.6,0.4,1,1,1c0.6,0.1,1.1-0.5,1.1-1c0-0.6-0.5-1-1-1.1C69.2,8.1,68.7,8.6,68.7,9.2"/>
	<path d="M72.9,8.2c-0.5,0.1-1,0.5-0.9,1.1c0,0.5,0.4,0.8,0.9,0.9c0.2,0,0.5,0,0.6-0.1c0.3-0.1,0.5-0.4,0.6-0.8
		C74.2,8.6,73.6,8.1,72.9,8.2"/>
	<path d="M76.4,8.2c-0.6,0-1,0.4-1,1c0,0.5,0.4,1,0.9,1c0.6,0,1-0.4,1.1-1C77.4,8.6,76.9,8.2,76.4,8.2"/>
	<path d="M79.6,8.2c-0.5,0-0.9,0.5-0.9,1c0,0.5,0.4,0.8,0.8,0.9c0.4,0.1,0.8-0.2,0.9-0.4C80.9,9,80.3,8.2,79.6,8.2"/>
	<path d="M82,9.2c0,0.5,0.3,0.8,0.8,0.8c0.6,0.1,1-0.4,1-0.8C83.9,8,82,8,82,9.2"/>
	<path d="M86.3,8.3c-0.5,0-1,0.3-1,1c0,0.4,0.4,0.7,0.8,0.8c0.5,0.1,0.9-0.3,1-0.8C87.2,8.7,86.7,8.4,86.3,8.3"/>
	<path d="M89.5,8.4c-0.5,0-0.8,0.4-0.8,0.8c0,0.4,0.3,0.8,0.8,0.8c0.5,0.1,0.9-0.3,0.9-0.8C90.4,8.7,90,8.4,89.5,8.4"/>
	<path d="M70.4,7.5c0,0.6,0.4,1,1,1c0.6,0.1,1.1-0.4,1.1-1c0-0.6-0.5-1-1-1C70.8,6.5,70.4,7,70.4,7.5"/>
	<path d="M73.7,7.6c0,0.2,0.1,0.4,0.2,0.5c0.1,0.2,0.4,0.4,0.7,0.4c0.6,0.1,1.1-0.3,1.1-0.9c0.1-0.6-0.4-1.1-1.1-1.1
		C74.1,6.6,73.7,7,73.7,7.6"/>
	<path d="M77,7.7c0,0.4,0.4,0.8,0.8,0.8c0.5,0.1,0.8-0.2,1-0.4C79,7.9,79,7.7,79,7.4C78.8,6.2,76.9,6.4,77,7.7"/>
	<path d="M81.3,6.6c-0.5,0-0.9,0.4-0.9,0.9c0,0.5,0.4,0.9,0.9,0.9c0.5,0,1-0.4,1-0.9C82.2,7,81.8,6.6,81.3,6.6"/>
	<path d="M84.6,6.6c-0.6,0-1,0.5-0.9,1.1c0.1,0.4,0.4,0.6,0.8,0.7c0.5,0,0.9-0.3,0.9-0.9C85.5,7,85.1,6.6,84.6,6.6"/>
	<path d="M87.8,8.4c0.6,0.1,1-0.3,1-0.9c-0.1-1-1.6-0.9-1.7,0C87,8,87.3,8.3,87.8,8.4"/>
	<path d="M69.8,4.8c-0.6,0-1.1,0.5-1.1,1.1c0,0.6,0.4,1,1,1c0.6,0.1,1.1-0.5,1.1-1C70.8,5.3,70.3,4.8,69.8,4.8"/>
	<path d="M72.9,4.9C72.4,4.9,72,5.4,72,6c0,0.5,0.4,0.8,0.9,0.9c0.2,0,0.5,0,0.6-0.1C73.8,6.7,74,6.4,74.1,6
		C74.2,5.3,73.6,4.8,72.9,4.9"/>
	<path d="M76.4,4.9c-0.6,0-1,0.4-1,1c0,0.6,0.4,0.9,0.9,1c0.6,0,1-0.4,1.1-1C77.4,5.3,76.9,4.9,76.4,4.9"/>
	<path d="M79.6,4.9c-0.5,0-0.9,0.5-0.9,1c0,0.5,0.4,0.8,0.8,0.9c0.4,0.1,0.8-0.2,0.9-0.4C80.9,5.7,80.3,4.9,79.6,4.9"/>
	<path d="M82,5.9c0,0.5,0.3,0.8,0.8,0.8c0.6,0.1,1-0.4,1-0.8C83.9,4.7,82,4.7,82,5.9"/>
	<path d="M86.1,6.8c0.5,0.1,0.9-0.3,1-0.8c0.1-0.6-0.4-0.9-0.8-1c-0.5-0.1-1,0.3-1,0.9C85.4,6.4,85.7,6.7,86.1,6.8"/>
	<path d="M70.4,4.2c0,0.6,0.4,1,1,1c0.6,0.1,1.1-0.4,1.1-1c0-0.6-0.5-1-1-1C70.8,3.2,70.4,3.7,70.4,4.2"/>
	<path d="M73.7,4.3c0,0.2,0.1,0.4,0.2,0.5C74,5,74.2,5.2,74.6,5.2c0.6,0.1,1.1-0.3,1.1-0.9c0.1-0.6-0.4-1.1-1.1-1.1
		C74.1,3.3,73.7,3.7,73.7,4.3"/>
	<path d="M77,4.4c0,0.4,0.4,0.8,0.8,0.8c0.5,0.1,0.8-0.2,1-0.4C79,4.6,79,4.4,79,4.1C78.8,2.9,76.9,3.1,77,4.4"/>
	<path d="M81.2,5.2c0.5,0,1-0.4,1-0.9c0-0.6-0.5-0.9-0.9-0.9c-0.5,0-0.9,0.4-0.9,0.9C80.4,4.8,80.7,5.1,81.2,5.2"/>
	<path d="M84.6,5.1c0.5,0,0.9-0.3,0.9-0.9c0,0,0-0.1,0-0.1C85,3.9,84.5,3.7,84,3.6c-0.2,0.2-0.4,0.5-0.3,0.9
		C83.8,4.8,84.1,5.1,84.6,5.1"/>
	<path d="M69.7,3.6c0.6,0.1,1.1-0.4,1.1-1H69h-0.3C68.7,3.2,69.1,3.6,69.7,3.6"/>
	<path d="M72.9,3.6c0.2,0,0.5,0,0.6-0.1c0.3-0.1,0.5-0.4,0.6-0.8c0,0,0,0,0-0.1h-2c0,0,0,0,0,0.1C72.1,3.2,72.4,3.5,72.9,3.6"/>
	<path d="M76.3,3.6c0.6,0,1-0.4,1.1-0.9h-2C75.4,3.2,75.8,3.5,76.3,3.6"/>
	<path d="M79.5,3.5c0.4,0.1,0.8-0.2,0.9-0.4c0.1-0.1,0.1-0.2,0.1-0.3c-0.6-0.1-1.2-0.1-1.9-0.1v0C78.7,3.2,79.1,3.5,79.5,3.5"/>
	<path d="M82.8,3.5c0.2,0,0.4,0,0.6-0.1c-0.4-0.1-0.8-0.2-1.3-0.3C82.3,3.3,82.5,3.5,82.8,3.5"/>
	<path d="M69.8,31.2c-0.4,0-0.8,0.2-1,0.6h1.9C70.5,31.5,70.2,31.2,69.8,31.2"/>
	<path d="M72.9,31.3c-0.3,0-0.7,0.2-0.8,0.6H74C73.8,31.4,73.4,31.2,72.9,31.3"/>
	<path d="M76.4,31.3c-0.4,0-0.7,0.2-0.9,0.5h1.8C77.1,31.5,76.7,31.3,76.4,31.3"/>
	<path d="M79.6,31.3c-0.3,0-0.6,0.2-0.7,0.5c0.5,0,1.1,0,1.6-0.1C80.2,31.5,79.9,31.3,79.6,31.3"/>
	<path d="M69.2,30.6c0-0.6-0.5-1-1.1-1c-0.2,0-0.3,0.1-0.5,0.1v-1.5c0.1,0.1,0.3,0.1,0.4,0.1c0.7,0.1,1.2-0.5,1.2-1.1
		c0-0.6-0.5-1-1.1-1c-0.2,0-0.3,0.1-0.5,0.1v-1.5c0.1,0.1,0.3,0.1,0.4,0.2c0.2,0,0.4,0,0.6-0.1c0.4-0.2,0.6-0.6,0.6-1
		c0-0.6-0.5-1-1.1-1c-0.2,0-0.3,0.1-0.5,0.1V11.8c0.1,0.1,0.3,0.1,0.4,0.1c0.7,0.1,1.2-0.5,1.2-1.1c0-0.6-0.5-1-1.1-1
		c-0.2,0-0.3,0.1-0.5,0.1V8.5c0.1,0.1,0.3,0.1,0.4,0.1c0.7,0.1,1.2-0.5,1.2-1.1c0-0.6-0.5-1-1.1-1c-0.2,0-0.3,0.1-0.5,0.1V5.2
		c0.1,0.1,0.3,0.1,0.4,0.1c0.7,0.1,1.2-0.5,1.2-1.1c0-0.6-0.5-1-1.1-1c-0.2,0-0.3,0.1-0.5,0.1V2.7H56.3v0.5c-0.6,0-1.1,0.4-1.1,1
		c0,0.6,0.5,1.2,1.1,1.1v1.2c-0.6,0-1.1,0.4-1.1,1c0,0.6,0.5,1.2,1.1,1.1v1.2c-0.6,0-1.1,0.4-1.1,1c0,0.6,0.5,1.2,1.1,1.1v34.7h11.3
		v-15c0.1,0.1,0.3,0.1,0.4,0.1C68.7,31.8,69.2,31.2,69.2,30.6"/>
	<path d="M71.4,29.6c-0.6,0-1,0.5-1,1c0,0.6,0.4,1,1,1c0.6,0.1,1.1-0.4,1.1-1C72.4,30,71.9,29.6,71.4,29.6"/>
	<path d="M74.6,29.6c-0.5,0-1,0.4-0.9,1.1c0,0.2,0.1,0.4,0.2,0.5c0.1,0.2,0.4,0.4,0.7,0.4c0.6,0.1,1.1-0.3,1.1-0.9
		C75.8,30.1,75.3,29.6,74.6,29.6"/>
	<path d="M77,30.7c0,0.4,0.4,0.8,0.8,0.8c0.5,0.1,0.8-0.2,1-0.4C79,31,79,30.8,79,30.5C78.8,29.3,76.9,29.4,77,30.7"/>
	<path d="M81.3,29.7c-0.5,0-0.9,0.4-0.9,0.9c0,0.5,0.4,0.9,0.9,0.9c0.5,0,1-0.4,1-0.9C82.2,30.1,81.8,29.7,81.3,29.7"/>
	<path d="M84.6,29.7c-0.6,0-1,0.5-0.9,1.1c0,0.1,0,0.1,0.1,0.2c0.6-0.2,1.1-0.4,1.7-0.6C85.4,30,85,29.7,84.6,29.7"/>
	<path d="M68.7,29c0,0.6,0.4,1,1,1c0.6,0.1,1.1-0.5,1.1-1c0-0.6-0.5-1-1-1.1C69.2,27.9,68.7,28.4,68.7,29"/>
	<path d="M72.9,30c0.2,0,0.5,0,0.6-0.1c0.3-0.1,0.5-0.4,0.6-0.8c0.1-0.7-0.5-1.2-1.1-1.1c-0.5,0.1-1,0.5-0.9,1.1
		C72.1,29.6,72.4,29.9,72.9,30"/>
	<path d="M76.3,30c0.6,0,1-0.4,1.1-1c0-0.6-0.5-1-1-1c-0.6,0-1,0.4-1,1C75.4,29.5,75.7,29.9,76.3,30"/>
	<path d="M79.5,29.9c0.4,0.1,0.8-0.2,0.9-0.4c0.5-0.7-0.1-1.6-0.9-1.5c-0.5,0-0.9,0.5-0.9,1C78.7,29.5,79.1,29.9,79.5,29.9"/>
	<path d="M82,29c0,0.5,0.3,0.8,0.8,0.8c0.6,0.1,1-0.4,1-0.8C83.9,27.8,82,27.8,82,29"/>
	<path d="M86.3,28.1c-0.5-0.1-1,0.3-1,0.9c0,0.4,0.4,0.7,0.8,0.8c0.5,0.1,0.9-0.3,1-0.8C87.2,28.5,86.7,28.1,86.3,28.1"/>
	<path d="M72.5,27.3c0-0.6-0.5-1-1-1c-0.6,0-1,0.5-1,1c0,0.6,0.4,1,1,1C72,28.4,72.5,27.9,72.5,27.3"/>
	<path d="M75.7,27.4c0.1-0.6-0.4-1.1-1.1-1.1c-0.5,0-1,0.4-0.9,1.1c0,0.2,0.1,0.4,0.2,0.5c0.1,0.2,0.4,0.4,0.7,0.4
		C75.2,28.4,75.7,28,75.7,27.4"/>
	<path d="M78.8,27.9c0.1-0.2,0.2-0.4,0.2-0.7c-0.1-1.2-2.1-1.1-1.9,0.2c0,0.4,0.4,0.8,0.8,0.8C78.3,28.3,78.7,28.1,78.8,27.9"/>
	<path d="M81.2,28.3c0.5,0,1-0.4,1-0.9c0-0.6-0.5-0.9-0.9-0.9c-0.5,0-0.9,0.4-0.9,0.9C80.4,27.9,80.7,28.2,81.2,28.3"/>
	<path d="M84.6,28.2c0.5,0,0.9-0.3,0.9-0.9c0-0.5-0.4-0.9-0.9-0.9c-0.6,0-1,0.5-0.9,1.1C83.8,27.9,84.1,28.2,84.6,28.2"/>
	<path d="M87.1,27.2c-0.1,0.5,0.3,0.9,0.7,1c0.6,0.1,1-0.3,1-0.9C88.6,26.2,87.2,26.3,87.1,27.2"/>
	<path d="M68.7,25.7c0,0.6,0.4,1,1,1c0.5,0,0.8-0.2,1-0.6h0c0,0,0,0,0,0c0.1-0.1,0.1-0.3,0.1-0.4c0-0.6-0.5-1-1-1.1
		C69.2,24.6,68.7,25.1,68.7,25.7"/>
	<path d="M72.9,26.7c0.2,0,0.5,0,0.6-0.1c0.3-0.1,0.5-0.4,0.6-0.8c0.1-0.7-0.5-1.2-1.1-1.1c-0.5,0-1,0.5-0.9,1.1
		C72.1,26.3,72.4,26.6,72.9,26.7"/>
	<path d="M76.3,26.7c0.6,0,1-0.4,1.1-1c0-0.6-0.5-1-1-1c-0.6,0-1,0.4-1,1C75.4,26.2,75.7,26.6,76.3,26.7"/>
	<path d="M79.5,26.6c0.4,0.1,0.8-0.2,0.9-0.4c0.5-0.7-0.1-1.6-0.9-1.5c-0.5,0-0.9,0.5-0.9,1C78.7,26.2,79.1,26.6,79.5,26.6"/>
	<path d="M82.8,26.6c0.4,0,0.7-0.1,0.9-0.4h0c0,0,0,0,0,0c0.1-0.1,0.1-0.3,0.1-0.4c0-0.5-0.2-0.8-0.6-0.9c-0.1-0.1-0.3-0.1-0.4-0.1
		c-0.1,0-0.2,0-0.3,0.1C82.3,25,82,25.3,82,25.7c0,0,0,0,0,0c0,0,0,0,0,0.1C82.1,26.2,82.4,26.5,82.8,26.6"/>
	<path d="M86.1,26.5c0.5,0.1,0.9-0.3,1-0.8c0.1-0.6-0.4-0.9-0.8-1c-0.5-0.1-1,0.3-1,0.9c0,0,0,0,0,0v0c0,0,0,0,0,0c0,0,0,0,0,0
		C85.5,26.2,85.8,26.5,86.1,26.5"/>
	<path d="M69.3,23.3c0.1,0,0.2,0.1,0.3,0.1c0,0,0,0,0,0c0.1,0,0.2,0,0.4,0c0.1,0,0.2-0.1,0.3-0.1c0,0,0,0,0,0
		c0.3-0.2,0.5-0.5,0.5-0.9c0-0.2,0-0.3-0.1-0.4h-1.9c-0.1,0.1-0.1,0.3-0.1,0.4C68.7,22.8,68.9,23.2,69.3,23.3"/>
	<path fill-rule="evenodd" clip-rule="evenodd" d="M76.7,53.9l-8.4,24.2l-0.6-1.6c0,0-0.1,0-0.1,0c-0.6,0-1,0.5-1.1,1
		c0,0.6,0.5,1.1,1.1,1.1c0.3,0,0.5-0.1,0.7-0.2V80c-0.3-0.3-0.7-0.4-1.2-0.1c-0.8,0.4-0.8,1.6,0,2c0.4,0.2,0.9,0.1,1.2-0.1v1.6
		c-0.2-0.2-0.5-0.3-0.8-0.2c-0.7,0.1-1,0.7-1,1.3c0.1,0.5,0.5,1,1.3,0.9c0.2,0,0.4-0.1,0.5-0.2v1.5c-0.2-0.1-0.4-0.2-0.7-0.2
		c-0.7,0-1.1,0.6-1.1,1.1c0,0.6,0.5,1.1,1.1,1.1c0.3,0,0.5-0.1,0.7-0.2v1.4c-0.2-0.1-0.4-0.2-0.7-0.2c-0.9,0-1.5,1.1-0.9,1.9
		c-0.3-0.3-1.1-0.3-1.4,0c0.3-0.3,0.3-1.2-0.1-1.5c0.7,0.6,1.9,0.1,1.9-0.9c0-0.6-0.5-1.2-1.2-1.2c-0.6,0-1.2,0.5-1.2,1.2
		c0,0.3,0.1,0.5,0.3,0.7c-0.2-0.1-0.4-0.3-0.8-0.3c-0.7,0-1.3,0.6-1.2,1.3l0.1,0.4c0,0,0.1,0.1,0.1,0.1c0,0,0,0-0.1,0l0.5,1.4
		c0.1-0.4,0-0.9-0.2-1.1c0.3,0.3,1.1,0.3,1.4,0c-0.3,0.3-0.3,1-0.1,1.3c-0.2-0.2-0.8-0.2-1.1-0.1l0.5,1.5l0.2,0.7v0l0.2,0.5l0.7,2.1
		h0h1h1.2h0.6h0h2.9l8.8-26.6v26.6h11.3V53.9H76.7z M66.6,94.6c-0.3-0.2-0.9-0.2-1.2,0c0.2-0.3,0.1-1,0-1.2c0.3,0.3,1,0.2,1.3,0
		C66.4,93.6,66.4,94.3,66.6,94.6 M68.2,96.2c-0.2-0.1-0.4-0.1-0.7-0.1c-0.2,0-0.3,0.1-0.4,0.1c0.2-0.3,0.1-0.9,0-1.1
		c0.3,0.2,0.9,0.2,1.1,0C68,95.3,68,95.9,68.2,96.2 M68.3,93c-0.3-0.3-1-0.2-1.3,0c0.3-0.3,0.2-1.1,0-1.3c0.3,0.3,1.1,0.3,1.4,0v0
		C68.1,92,68.1,92.7,68.3,93"/>
	<path fill-rule="evenodd" clip-rule="evenodd" d="M67.3,75.2l-0.5-1.6c-0.1,0.2-0.2,0.4-0.2,0.7C66.7,74.7,66.9,75.1,67.3,75.2"/>
	<path fill-rule="evenodd" clip-rule="evenodd" d="M67.1,85.8c0-0.7-0.4-1.2-1.1-1.2c-0.7,0-1.1,0.6-1.1,1.1c0,0.6,0.4,1.1,1.1,1.1
		C66.6,86.9,67.1,86.4,67.1,85.8"/>
	<path fill-rule="evenodd" clip-rule="evenodd" d="M67.1,82.6c0.1-0.7-0.3-1.2-0.9-1.3c-0.7-0.1-1.2,0.4-1.2,1
		c-0.1,0.8,0.5,1.3,1.2,1.2C66.6,83.5,67,83.1,67.1,82.6"/>
	<path fill-rule="evenodd" clip-rule="evenodd" d="M67,79.3c0.1-0.7-0.5-1.2-1.1-1.2c-0.6,0-1,0.5-1,1.1c0,0.6,0.5,1,1.1,1
		C66.6,80.2,67,79.8,67,79.3"/>
	<path fill-rule="evenodd" clip-rule="evenodd" d="M67,75.9c0.1-0.6-0.4-1.1-1-1.1c-0.6,0-1,0.5-1,1c0,0.6,0.5,1,1,1
		C66.5,76.9,67,76.5,67,75.9"/>
	<path fill-rule="evenodd" clip-rule="evenodd" d="M65,72.6c0,0.5,0.4,1,1.1,0.9c0.2,0,0.4-0.1,0.5-0.2c0,0,0.1-0.1,0.1-0.1
		l-0.6-1.7C65.5,71.5,64.9,72,65,72.6"/>
	<path fill-rule="evenodd" clip-rule="evenodd" d="M65.6,70.1l-0.5-1.3C64.9,69.3,65.1,69.9,65.6,70.1"/>
	<path fill-rule="evenodd" clip-rule="evenodd" d="M63.2,87.4c0,0.6,0.5,1.1,1.1,1.1c0.6,0,1.1-0.5,1.1-1.1c0-0.6-0.5-1.2-1.1-1.2
		C63.6,86.3,63.2,86.8,63.2,87.4"/>
	<path fill-rule="evenodd" clip-rule="evenodd" d="M64.5,85.2c0.5-0.1,0.9-0.5,0.9-0.9c0.1-0.7-0.4-1.4-1.2-1.3
		c-0.7,0.1-1,0.7-1,1.3C63.3,84.8,63.8,85.3,64.5,85.2"/>
	<path fill-rule="evenodd" clip-rule="evenodd" d="M63.8,81.8c0.7,0.4,1.5-0.2,1.6-0.8c0.1-0.8-0.7-1.5-1.6-1.1
		C63.1,80.2,63.1,81.4,63.8,81.8"/>
	<path fill-rule="evenodd" clip-rule="evenodd" d="M65.4,77.6c0.1-0.6-0.5-1.1-1-1.1c-0.6,0-1,0.5-1.1,1c0,0.6,0.5,1.1,1.1,1.1
		C64.9,78.6,65.3,78.2,65.4,77.6"/>
	<path fill-rule="evenodd" clip-rule="evenodd" d="M65.3,74.4c0-0.2,0-0.5-0.1-0.6c-0.1-0.3-0.4-0.5-0.8-0.6
		c-0.7-0.1-1.2,0.5-1.1,1.1c0.1,0.5,0.5,1,1.1,0.9C64.9,75.2,65.3,74.8,65.3,74.4"/>
	<path fill-rule="evenodd" clip-rule="evenodd" d="M65.3,71c0-0.6-0.4-1-1-1.1c-0.6,0-1,0.5-1,1c0,0.6,0.4,1,1,1
		C64.9,71.9,65.3,71.5,65.3,71"/>
	<path fill-rule="evenodd" clip-rule="evenodd" d="M64.4,68.6c0.2,0,0.4-0.1,0.5-0.2l-0.6-1.7c-0.5,0-1,0.5-1,1.1
		C63.4,68.2,63.8,68.6,64.4,68.6"/>
	<path fill-rule="evenodd" clip-rule="evenodd" d="M63.8,85.8c0-0.7-0.4-1.2-1.1-1.2c-0.7,0-1.1,0.6-1.1,1.1c0,0.1,0,0.1,0,0.2
		l0.1,0.3c0.2,0.4,0.5,0.6,1,0.6C63.3,86.9,63.8,86.4,63.8,85.8"/>
	<path fill-rule="evenodd" clip-rule="evenodd" d="M61.6,82.3c-0.1,0.8,0.5,1.3,1.2,1.2c0.5,0,0.9-0.4,1-0.9
		c0.1-0.7-0.3-1.2-0.9-1.2C62.1,81.3,61.6,81.8,61.6,82.3"/>
	<path fill-rule="evenodd" clip-rule="evenodd" d="M62.8,80.2c0.5,0,0.9-0.4,1-0.9c0.1-0.7-0.5-1.2-1.1-1.2c-0.6,0-1,0.5-1,1.1
		C61.7,79.8,62.1,80.3,62.8,80.2"/>
	<path fill-rule="evenodd" clip-rule="evenodd" d="M61.6,75.9c0,0.6,0.5,1,1,1c0.6,0,1-0.4,1-1c0.1-0.6-0.4-1.1-1-1.1
		C62.1,74.8,61.6,75.3,61.6,75.9"/>
	<path fill-rule="evenodd" clip-rule="evenodd" d="M62.8,73.6c0.2,0,0.4-0.1,0.5-0.2c0.2-0.1,0.4-0.4,0.4-0.7
		c0.1-0.6-0.3-1.1-0.9-1.1c-0.6-0.1-1.1,0.4-1.1,1.1C61.7,73.1,62.1,73.6,62.8,73.6"/>
	<path fill-rule="evenodd" clip-rule="evenodd" d="M63.2,68.5c-0.2-0.1-0.4-0.2-0.7-0.2c-1.2,0.1-1.1,2.1,0.2,1.9
		c0.4,0,0.8-0.4,0.8-0.8C63.7,68.9,63.5,68.6,63.2,68.5"/>
	<path fill-rule="evenodd" clip-rule="evenodd" d="M61.7,66c0,0.5,0.4,0.9,0.9,0.9c0.5,0,0.9-0.4,0.9-0.9c0-0.5-0.4-1-0.9-1
		C62.1,65,61.7,65.5,61.7,66"/>
	<path fill-rule="evenodd" clip-rule="evenodd" d="M62.9,63.5c0.1,0,0.2-0.1,0.3-0.1l-0.6-1.6c-0.5,0-0.9,0.4-0.9,0.9
		C61.8,63.2,62.3,63.7,62.9,63.5"/>
	<path fill-rule="evenodd" clip-rule="evenodd" d="M62.1,84.3c0.1-0.7-0.4-1.4-1.2-1.3c-0.1,0-0.2,0-0.3,0.1l0.7,2.1
		C61.8,85.1,62.1,84.7,62.1,84.3"/>
	<path fill-rule="evenodd" clip-rule="evenodd" d="M62.1,80.9c0.1-0.8-0.7-1.5-1.6-1.1c-0.8,0.4-0.8,1.6,0,2
		C61.3,82.1,62,81.6,62.1,80.9"/>
	<path fill-rule="evenodd" clip-rule="evenodd" d="M60,77.5c0,0.6,0.5,1.1,1.1,1.1c0.6,0,1-0.4,1-1c0.1-0.6-0.5-1.1-1-1.1
		C60.4,76.5,60,77,60,77.5"/>
	<path fill-rule="evenodd" clip-rule="evenodd" d="M61.2,75.2c0.5,0,0.8-0.4,0.9-0.9c0-0.2,0-0.5-0.1-0.6c-0.1-0.3-0.4-0.5-0.8-0.6
		c-0.7-0.1-1.2,0.5-1.1,1.1C60.1,74.8,60.5,75.3,61.2,75.2"/>
	<path fill-rule="evenodd" clip-rule="evenodd" d="M61,69.9c-0.6,0-1,0.5-1,1c0,0.6,0.4,1,1,1c0.5,0,0.9-0.4,1-0.9
		C62.1,70.4,61.6,69.9,61,69.9"/>
	<path fill-rule="evenodd" clip-rule="evenodd" d="M61.6,66.8c-0.7-0.5-1.6,0.1-1.5,0.9c0,0.5,0.5,0.9,1,0.9c0.5,0,0.8-0.4,0.9-0.8
		C62,67.3,61.8,67,61.6,66.8"/>
	<path fill-rule="evenodd" clip-rule="evenodd" d="M61.1,63.4c-1.3-0.1-1.3,1.9,0,1.8c0.5,0,0.8-0.3,0.8-0.8
		C62,63.8,61.6,63.4,61.1,63.4"/>
	<path fill-rule="evenodd" clip-rule="evenodd" d="M60.2,60.9c-0.1,0.5,0.3,1,1,1c0.4,0,0.7-0.4,0.8-0.8c0.1-0.5-0.3-0.9-0.8-1
		C60.6,60.1,60.2,60.5,60.2,60.9"/>
	<path fill-rule="evenodd" clip-rule="evenodd" d="M61,58.6c0.2,0,0.3,0,0.4-0.1L61,56.9c-0.5,0-0.7,0.4-0.7,0.8
		C60.2,58.2,60.6,58.6,61,58.6"/>
	<path fill-rule="evenodd" clip-rule="evenodd" d="M60.4,79.3c0.1-0.7-0.5-1.2-1.1-1.2c-0.1,0-0.2,0-0.3,0.1l0.7,2
		C60.1,80.1,60.4,79.7,60.4,79.3"/>
	<path fill-rule="evenodd" clip-rule="evenodd" d="M60.4,75.9c0.1-0.6-0.4-1.1-1-1.1c-0.6,0-1,0.5-1,1c0,0.6,0.5,1,1,1
		C60,76.9,60.4,76.5,60.4,75.9"/>
	<path fill-rule="evenodd" clip-rule="evenodd" d="M58.4,72.6c0,0.5,0.4,1,1.1,0.9c0.2,0,0.4-0.1,0.5-0.2c0.2-0.1,0.4-0.4,0.4-0.7
		c0.1-0.6-0.3-1.1-0.9-1.1C58.9,71.5,58.3,72,58.4,72.6"/>
	<path fill-rule="evenodd" clip-rule="evenodd" d="M59.5,70.2c0.4,0,0.8-0.4,0.8-0.8c0.1-0.5-0.2-0.8-0.4-0.9
		c-0.2-0.1-0.4-0.2-0.7-0.2C58,68.4,58.2,70.4,59.5,70.2"/>
	<path fill-rule="evenodd" clip-rule="evenodd" d="M59.4,65c-0.6,0-0.9,0.5-0.9,0.9c0,0.5,0.4,0.9,0.9,0.9c0.5,0,0.9-0.4,0.9-0.9
		C60.4,65.5,59.9,65,59.4,65"/>
	<path fill-rule="evenodd" clip-rule="evenodd" d="M59.4,61.8c-0.5,0-0.9,0.4-0.9,0.9c0,0.6,0.5,1,1.1,0.9c0.4-0.1,0.6-0.4,0.7-0.8
		C60.3,62.2,59.9,61.8,59.4,61.8"/>
	<path fill-rule="evenodd" clip-rule="evenodd" d="M59.3,58.5c-1,0.1-0.9,1.6,0,1.7c0.5,0.1,0.9-0.3,1-0.7
		C60.3,58.9,59.9,58.5,59.3,58.5"/>
	<path fill-rule="evenodd" clip-rule="evenodd" d="M60.2,56.2c0.1-0.5-0.3-0.9-0.8-0.9c-0.7,0-1.1,0.9-0.6,1.4
		C59.3,57.1,60.1,56.8,60.2,56.2"/>
	<path fill-rule="evenodd" clip-rule="evenodd" d="M58.7,74.4c0-0.2,0-0.5-0.1-0.6c-0.1-0.3-0.4-0.5-0.8-0.6c-0.2,0-0.3,0-0.5,0.1
		l0.6,1.9C58.4,75.1,58.7,74.8,58.7,74.4"/>
	<path fill-rule="evenodd" clip-rule="evenodd" d="M58.7,71c0-0.6-0.4-1-1-1.1c-0.6,0-1,0.5-1,1c0,0.6,0.4,1,1,1
		C58.3,71.9,58.7,71.5,58.7,71"/>
	<path fill-rule="evenodd" clip-rule="evenodd" d="M57.8,68.6c0.5,0,0.8-0.4,0.9-0.8c0.1-0.4-0.2-0.8-0.4-0.9
		c-0.7-0.5-1.6,0.1-1.5,0.9C56.8,68.2,57.2,68.6,57.8,68.6"/>
	<path fill-rule="evenodd" clip-rule="evenodd" d="M57.8,65.2c0.5,0,0.8-0.3,0.8-0.8c0.1-0.6-0.4-1-0.8-1
		C56.5,63.3,56.5,65.3,57.8,65.2"/>
	<path fill-rule="evenodd" clip-rule="evenodd" d="M57.8,60.1c-0.6-0.1-0.9,0.4-1,0.8c-0.1,0.5,0.3,1,0.9,1c0.4,0,0.7-0.4,0.8-0.8
		C58.7,60.6,58.3,60.2,57.8,60.1"/>
	<path fill-rule="evenodd" clip-rule="evenodd" d="M57.7,58.6c0.4,0,0.8-0.3,0.8-0.8c0-0.5-0.3-0.9-0.8-0.9c-0.5,0-0.8,0.4-0.8,0.8
		C56.9,58.2,57.3,58.6,57.7,58.6"/>
	<path fill-rule="evenodd" clip-rule="evenodd" d="M57.8,55.2c0.2,0,0.3-0.1,0.3-0.1c0.2-0.1,0.3-0.3,0.3-0.5c0-0.3-0.1-0.5-0.2-0.7
		h-1.1C56.7,54.3,57,55.3,57.8,55.2"/>
	<path fill-rule="evenodd" clip-rule="evenodd" d="M57,69.4c0.1-0.5-0.2-0.8-0.4-0.9c0,0,0,0,0,0v-1.7c0.2-0.2,0.4-0.4,0.4-0.7
		c0-0.3-0.1-0.6-0.4-0.8v-1.8c0.2-0.2,0.3-0.4,0.3-0.7c0-0.3-0.1-0.6-0.3-0.7V60c0.2-0.1,0.3-0.3,0.3-0.5c0-0.3-0.1-0.6-0.3-0.8
		v-2.1c0.1-0.1,0.2-0.3,0.3-0.5c0-0.3-0.1-0.5-0.3-0.7v-1.6H45.3v34H17.8v-7.4h19v-9.9h-19v-6.7h0.8c0-0.1,0-0.1,0-0.2
		c-0.1-0.7-0.7-1-1.3-1c-0.2,0-0.4,0.1-0.6,0.3v0h-0.1c0.2-0.2,0.3-0.5,0.3-0.8c0-0.7-0.6-1.1-1.1-1.1c-0.6,0-1.1,0.4-1.1,1.1
		c0,0.3,0.1,0.6,0.3,0.8H15c-0.2-0.2-0.5-0.3-0.8-0.3c-0.3,0-0.6,0.1-0.8,0.3h0c0.2-0.2,0.3-0.5,0.3-0.8c0-0.6-0.5-1.2-1.2-1.2
		c-0.3,0-0.5,0.1-0.7,0.3c0.1-0.2,0.3-0.4,0.3-0.7c0-0.8-0.8-1.4-1.6-1.1c-0.1,0-0.1,0.1-0.2,0.1c0.3-0.3,0.3-1.1,0-1.4
		c0.3,0.3,1.2,0.3,1.5-0.1c-0.1,0.2-0.3,0.4-0.3,0.7c0,0.7,0.5,1.2,1.2,1.2c0.6,0,1.2-0.5,1.2-1.2c0-1-1.2-1.5-1.9-0.9
		c0.1-0.2,0.3-0.4,0.3-0.8c0-0.9-1.1-1.5-1.9-0.9c0.3-0.3,0.3-1.1,0-1.4c0.3,0.3,1.2,0.3,1.5-0.1c-0.2,0.2-0.3,0.4-0.3,0.7
		c0,0.7,0.5,1.2,1.2,1.2c0.6,0,1.2-0.5,1.2-1.2c0-1-1.2-1.5-1.9-0.9c0.1-0.2,0.2-0.4,0.3-0.7H9.7c0,0.2,0.1,0.5,0.2,0.6
		c-0.3-0.3-1-0.3-1.3-0.1c0.1-0.1,0.2-0.3,0.2-0.6H6.5v43.7h50.1V70.1C56.8,69.9,57,69.7,57,69.4 M8.2,62.8c-0.3-0.2-0.9-0.2-1.2,0
		c0.2-0.3,0.2-0.9,0-1.2c0.3,0.2,1,0.1,1.2,0C8,61.9,8,62.6,8.2,62.8 M8.2,59.5c-0.3-0.2-0.9-0.2-1.2,0c0.2-0.3,0.2-0.9,0-1.2
		c0.3,0.2,1,0.1,1.2,0C8,58.6,8,59.3,8.2,59.5 M8.2,56.2C7.9,56,7.3,56,7,56.2c0.2-0.3,0.2-0.9,0-1.2c0.3,0.2,1,0.1,1.2,0
		C8,55.3,8,56,8.2,56.2 M9.9,61.2c-0.3-0.3-1-0.3-1.3-0.1c0.3-0.3,0.2-1,0-1.3c0.3,0.3,1.1,0.2,1.3,0C9.6,60.2,9.7,61,9.9,61.2
		 M9.9,57.9c-0.3-0.3-1-0.3-1.3-0.1c0.3-0.3,0.2-1,0-1.3c0.3,0.3,1.1,0.2,1.3,0C9.6,56.9,9.7,57.7,9.9,57.9 M11.7,63
		c-0.4-0.3-1-0.5-1.5-0.1c0.3-0.3,0.3-1.1,0-1.4c0.3,0.3,1.2,0.3,1.5-0.1C11.2,61.9,11.3,62.6,11.7,63L11.7,63z"/>
	<path fill-rule="evenodd" clip-rule="evenodd" d="M63.8,89.1c0-0.6-0.5-1.2-1.2-1.2c-0.2,0-0.3,0-0.4,0.1l0.7,2.2
		C63.5,90.1,63.8,89.6,63.8,89.1"/>
	<path fill-rule="evenodd" clip-rule="evenodd" d="M21.8,63.3c-0.4-0.8-1.6-0.8-2,0c-0.1,0.2-0.1,0.4-0.1,0.6h2.2
		C21.9,63.7,21.8,63.5,21.8,63.3"/>
	<path fill-rule="evenodd" clip-rule="evenodd" d="M25.1,63.9C25.1,63.9,25.1,63.9,25.1,63.9c0-0.7-0.5-1.1-1-1.1
		c-0.6,0-1.1,0.5-1.1,1.1c0,0,0,0,0,0.1H25.1z"/>
	<path fill-rule="evenodd" clip-rule="evenodd" d="M27.3,62.8c-0.5,0.1-0.9,0.5-0.9,1.1h2C28.4,63.2,27.8,62.8,27.3,62.8"/>
	<path fill-rule="evenodd" clip-rule="evenodd" d="M31.7,63.9C31.7,63.9,31.7,63.9,31.7,63.9c0-0.7-0.5-1.1-1-1.1c-0.6,0-1,0.4-1,1
		c0,0,0,0.1,0,0.1H31.7z"/>
	<path fill-rule="evenodd" clip-rule="evenodd" d="M33.9,62.9c-0.5,0-0.9,0.5-0.9,1h1.9C35,63.3,34.5,62.8,33.9,62.9"/>
	<path fill-rule="evenodd" clip-rule="evenodd" d="M37.4,63.9v-1c-0.5-0.1-1.1,0.2-1.1,0.9c0,0,0,0,0,0H37.4z"/>
	<path fill-rule="evenodd" clip-rule="evenodd" d="M19,63.3c0.7,0.1,1.2-0.3,1.3-0.9c0.1-0.7-0.4-1.2-1-1.2C18.5,61,18,61.6,18,62.3
		C18.1,62.8,18.5,63.2,19,63.3"/>
	<path fill-rule="evenodd" clip-rule="evenodd" d="M23.5,62.1c0-0.6-0.5-1-1.1-1c-0.6,0-1,0.5-1,1.1c0,0.5,0.4,0.9,0.9,1
		C23,63.3,23.5,62.8,23.5,62.1"/>
	<path fill-rule="evenodd" clip-rule="evenodd" d="M26.8,62.2c0-0.6-0.5-1-1-1c-0.6,0-1,0.5-1,1c0,0.6,0.4,1,1,1
		C26.3,63.3,26.8,62.8,26.8,62.2"/>
	<path fill-rule="evenodd" clip-rule="evenodd" d="M30,62.3c0.1-0.6-0.4-1.1-1.1-1.1c-0.5,0-1,0.4-0.9,1.1c0,0.2,0.1,0.4,0.2,0.5
		c0.1,0.2,0.4,0.4,0.7,0.4C29.5,63.2,30,62.8,30,62.3"/>
	<path fill-rule="evenodd" clip-rule="evenodd" d="M33.1,62.7c0.1-0.2,0.2-0.4,0.2-0.7c-0.1-1.2-2.1-1.1-1.9,0.2
		c0,0.4,0.4,0.8,0.8,0.8C32.6,63.2,33,63,33.1,62.7"/>
	<path fill-rule="evenodd" clip-rule="evenodd" d="M35.6,63.1c0.5,0,1-0.4,1-0.9c0-0.6-0.5-0.9-0.9-0.9c-0.5,0-0.9,0.4-0.9,0.9
		C34.7,62.7,35.1,63.1,35.6,63.1"/>
	<path fill-rule="evenodd" clip-rule="evenodd" d="M13,60.5c0,0.6,0.5,1.1,1.1,1.1c0.6,0,1.2-0.5,1.2-1.1c0-0.7-0.6-1.1-1.1-1.1
		C13.6,59.4,13,59.9,13,60.5"/>
	<path fill-rule="evenodd" clip-rule="evenodd" d="M17.3,61.6c0.7,0.1,1.4-0.4,1.3-1.2c-0.1-0.7-0.7-1-1.3-1c-0.5,0.1-1,0.5-0.9,1.3
		C16.4,61.2,16.8,61.6,17.3,61.6"/>
	<path fill-rule="evenodd" clip-rule="evenodd" d="M19.8,60c-0.4,0.7,0.2,1.5,0.8,1.6c0.8,0.1,1.5-0.7,1.1-1.6
		C21.4,59.3,20.2,59.3,19.8,60"/>
	<path fill-rule="evenodd" clip-rule="evenodd" d="M24.1,59.5c-0.6,0-1.1,0.5-1.1,1.1c0,0.6,0.4,1,1,1c0.6,0.1,1.1-0.5,1.1-1
		C25.1,59.9,24.6,59.5,24.1,59.5"/>
	<path fill-rule="evenodd" clip-rule="evenodd" d="M27.3,59.5c-0.5,0.1-1,0.5-0.9,1.1c0,0.5,0.4,0.8,0.9,0.9c0.2,0,0.5,0,0.6-0.1
		c0.3-0.1,0.5-0.4,0.6-0.8C28.5,59.9,27.9,59.5,27.3,59.5"/>
	<path fill-rule="evenodd" clip-rule="evenodd" d="M30.7,59.5c-0.6,0-1,0.4-1,1c0,0.6,0.4,0.9,0.9,1c0.6,0,1-0.4,1.1-1
		C31.7,60,31.2,59.6,30.7,59.5"/>
	<path fill-rule="evenodd" clip-rule="evenodd" d="M33.9,59.6c-0.5,0-0.9,0.5-0.9,1c0,0.5,0.4,0.8,0.8,0.9c0.4,0.1,0.8-0.2,0.9-0.4
		C35.2,60.4,34.7,59.5,33.9,59.6"/>
	<path fill-rule="evenodd" clip-rule="evenodd" d="M37.4,59.7c-0.5-0.1-1.1,0.2-1.1,0.9c0,0.5,0.3,0.8,0.8,0.8c0.1,0,0.2,0,0.3,0
		V59.7z"/>
	<path fill-rule="evenodd" clip-rule="evenodd" d="M17,58.9c0-0.7-0.6-1.1-1.1-1.1c-0.6,0-1.1,0.4-1.1,1.1c0,0.6,0.5,1.1,1.1,1.1
		C16.4,60,17,59.6,17,58.9"/>
	<path fill-rule="evenodd" clip-rule="evenodd" d="M18,59c0,0.5,0.4,0.9,0.9,0.9c0.7,0.1,1.2-0.3,1.3-0.9c0.1-0.7-0.4-1.2-1-1.2
		C18.5,57.7,18,58.3,18,59"/>
	<path fill-rule="evenodd" clip-rule="evenodd" d="M21.4,59c0,0.5,0.4,0.9,0.9,1c0.7,0.1,1.2-0.5,1.2-1.1c0-0.6-0.5-1-1.1-1
		C21.8,57.9,21.3,58.3,21.4,59"/>
	<path fill-rule="evenodd" clip-rule="evenodd" d="M24.7,58.9c0,0.6,0.4,1,1,1c0.6,0.1,1.1-0.4,1.1-1c0-0.6-0.5-1-1-1
		C25.1,57.8,24.7,58.3,24.7,58.9"/>
	<path fill-rule="evenodd" clip-rule="evenodd" d="M28,59c0,0.2,0.1,0.4,0.2,0.5c0.1,0.2,0.4,0.4,0.7,0.4c0.6,0.1,1.1-0.3,1.1-0.9
		c0.1-0.6-0.4-1.1-1.1-1.1C28.4,57.9,28,58.3,28,59"/>
	<path fill-rule="evenodd" clip-rule="evenodd" d="M31.4,59c0,0.4,0.4,0.8,0.8,0.8c0.5,0.1,0.8-0.2,1-0.4c0.1-0.2,0.2-0.4,0.2-0.7
		C33.2,57.5,31.2,57.7,31.4,59"/>
	<path fill-rule="evenodd" clip-rule="evenodd" d="M35.6,59.8c0.5,0,1-0.4,1-0.9c0-0.6-0.5-0.9-0.9-0.9c-0.5,0-0.9,0.4-0.9,0.9
		C34.7,59.4,35.1,59.8,35.6,59.8"/>
	<path fill-rule="evenodd" clip-rule="evenodd" d="M15.3,57.2c0-0.7-0.6-1.1-1.1-1.1c-0.6,0-1.1,0.5-1.1,1.1c0,0.6,0.5,1.1,1.1,1.1
		C14.8,58.4,15.3,57.9,15.3,57.2"/>
	<path fill-rule="evenodd" clip-rule="evenodd" d="M17.3,56.1c-0.5,0.1-1,0.5-0.9,1.3c0.1,0.5,0.5,0.9,0.9,0.9
		c0.7,0.1,1.4-0.4,1.3-1.2C18.5,56.4,17.9,56.1,17.3,56.1"/>
	<path fill-rule="evenodd" clip-rule="evenodd" d="M19.8,56.7c-0.4,0.7,0.2,1.5,0.8,1.6c0.8,0.1,1.5-0.7,1.1-1.6
		C21.4,56,20.2,56,19.8,56.7"/>
	<path fill-rule="evenodd" clip-rule="evenodd" d="M24.1,56.2c-0.6,0-1.1,0.5-1.1,1.1c0,0.6,0.4,1,1,1c0.6,0.1,1.1-0.5,1.1-1
		C25.1,56.6,24.6,56.2,24.1,56.2"/>
	<path fill-rule="evenodd" clip-rule="evenodd" d="M27.3,56.2c-0.5,0.1-1,0.5-0.9,1.1c0,0.5,0.4,0.8,0.9,0.9c0.2,0,0.5,0,0.6-0.1
		c0.3-0.1,0.5-0.4,0.6-0.8C28.5,56.6,27.9,56.2,27.3,56.2"/>
	<path fill-rule="evenodd" clip-rule="evenodd" d="M30.7,56.2c-0.6,0-1,0.4-1,1c0,0.6,0.4,1,0.9,1c0.6,0,1-0.4,1.1-1
		C31.7,56.6,31.2,56.3,30.7,56.2"/>
	<path fill-rule="evenodd" clip-rule="evenodd" d="M33.9,56.3c-0.5,0-0.9,0.5-0.9,1c0,0.5,0.4,0.8,0.8,0.9c0.4,0.1,0.8-0.2,0.9-0.4
		C35.2,57.1,34.7,56.2,33.9,56.3"/>
	<path fill-rule="evenodd" clip-rule="evenodd" d="M37.4,56.4c-0.5-0.1-1.1,0.2-1.1,0.9c0,0.5,0.3,0.8,0.8,0.8c0.1,0,0.2,0,0.3,0
		V56.4z"/>
	<path fill-rule="evenodd" clip-rule="evenodd" d="M14.7,55.6c0,0.6,0.5,1.1,1.1,1.1c0.7,0,1.2-0.4,1.2-1.1c0-0.7-0.6-1.1-1.1-1.2
		C15.2,54.4,14.7,54.9,14.7,55.6"/>
	<path fill-rule="evenodd" clip-rule="evenodd" d="M18,55.7c0,0.5,0.4,0.9,0.9,1c0.7,0.1,1.2-0.3,1.3-0.9c0.1-0.7-0.4-1.2-1-1.2
		C18.5,54.4,18,55,18,55.7"/>
	<path fill-rule="evenodd" clip-rule="evenodd" d="M21.4,55.7c0,0.5,0.4,0.9,0.9,1c0.7,0.1,1.2-0.5,1.2-1.1c0-0.6-0.5-1-1.1-1
		C21.8,54.6,21.3,55,21.4,55.7"/>
	<path fill-rule="evenodd" clip-rule="evenodd" d="M24.7,55.6c0,0.6,0.4,1,1,1c0.6,0.1,1.1-0.4,1.1-1c0-0.6-0.5-1-1-1
		C25.1,54.5,24.7,55,24.7,55.6"/>
	<path fill-rule="evenodd" clip-rule="evenodd" d="M28,55.7c0,0.2,0.1,0.4,0.2,0.5c0.1,0.2,0.4,0.4,0.7,0.4c0.6,0.1,1.1-0.3,1.1-0.9
		c0.1-0.6-0.4-1.1-1.1-1.1C28.4,54.6,28,55,28,55.7"/>
	<path fill-rule="evenodd" clip-rule="evenodd" d="M31.4,55.7c0,0.4,0.4,0.8,0.8,0.8c0.5,0.1,0.8-0.2,1-0.4c0.1-0.2,0.2-0.4,0.2-0.7
		C33.2,54.2,31.2,54.4,31.4,55.7"/>
	<path fill-rule="evenodd" clip-rule="evenodd" d="M35.6,56.5c0.5,0,1-0.4,1-0.9c0-0.6-0.5-0.9-0.9-0.9c-0.5,0-0.9,0.4-0.9,0.9
		C34.7,56.1,35.1,56.5,35.6,56.5"/>
	<path fill-rule="evenodd" clip-rule="evenodd" d="M14.1,55.1c0.6,0,1.1-0.4,1.2-1H13C13.1,54.6,13.5,55,14.1,55.1"/>
	<path fill-rule="evenodd" clip-rule="evenodd" d="M17.3,55c0.7,0.1,1.2-0.3,1.3-1h-2.2c0,0,0,0.1,0,0.1C16.4,54.6,16.8,55,17.3,55"
		/>
	<path fill-rule="evenodd" clip-rule="evenodd" d="M20.6,55c0.6,0.1,1.2-0.4,1.2-1h-2.2C19.7,54.5,20.1,54.9,20.6,55"/>
	<path fill-rule="evenodd" clip-rule="evenodd" d="M24,55c0.6,0,1.1-0.4,1.1-1H23C23.1,54.6,23.5,54.9,24,55"/>
	<path fill-rule="evenodd" clip-rule="evenodd" d="M27.2,54.9c0.2,0,0.5,0,0.6-0.1c0.3-0.1,0.5-0.4,0.6-0.8c0,0,0,0,0,0h-2
		c0,0,0,0,0,0C26.4,54.5,26.8,54.9,27.2,54.9"/>
	<path fill-rule="evenodd" clip-rule="evenodd" d="M30.6,54.9c0.6,0,1-0.4,1-0.9h-2C29.7,54.5,30.1,54.9,30.6,54.9"/>
	<path fill-rule="evenodd" clip-rule="evenodd" d="M33.8,54.9c0.4,0.1,0.8-0.2,0.9-0.4c0.1-0.1,0.1-0.3,0.2-0.4H33
		C33.1,54.5,33.4,54.8,33.8,54.9"/>
	<path fill-rule="evenodd" clip-rule="evenodd" d="M37.2,54.8c0.1,0,0.2,0,0.3,0V54h-1.1C36.4,54.5,36.7,54.8,37.2,54.8"/>
</svg>
