<?xml version="1.0" encoding="utf-8"?>
<!-- Generator: Adobe Illustrator 18.1.0, SVG Export Plug-In . SVG Version: 6.00 Build 0)  -->
<svg version="1.1" id="Calque_1" xmlns="http://www.w3.org/2000/svg" xmlns:xlink="http://www.w3.org/1999/xlink" x="0px" y="0px"
	 viewBox="0 0 100 39.2" enable-background="new 0 0 100 39.2" xml:space="preserve">

	<path fill="#FFF" d="M20,10.3C20,10.3,20,10.3,20,10.3C20,10.3,20,10.2,20,10.3c0-0.1,0-0.2-0.1-0.2c0,0,0,0-0.1-0.1c-0.2-0.1-0.5-0.1-0.6,0.2
		c0,0.1,0,0.2,0.1,0.2c0.1,0.1,0.2,0.2,0.3,0.1C19.9,10.6,20,10.5,20,10.3"/>
	<path fill="#FFF" d="M18.8,10.3c0-0.1,0-0.1,0-0.1c0,0,0-0.1-0.1-0.1c-0.1,0-0.1-0.1-0.2-0.1c-0.1,0-0.1,0-0.2,0.1c0,0-0.1,0.1-0.1,0.1
		c0,0,0,0,0,0c0,0.1,0,0.1,0,0.2c0,0.2,0.2,0.3,0.4,0.3c0.1,0,0.2,0,0.2-0.1c0,0,0,0,0,0c0,0,0,0,0,0c0,0,0,0,0,0c0,0,0,0,0,0
		c0,0,0,0,0,0C18.8,10.4,18.8,10.4,18.8,10.3C18.8,10.3,18.8,10.3,18.8,10.3C18.8,10.3,18.8,10.3,18.8,10.3
		C18.8,10.3,18.8,10.3,18.8,10.3C18.8,10.3,18.8,10.3,18.8,10.3C18.8,10.3,18.8,10.3,18.8,10.3"/>
	<path fill="#FFF" d="M17,10.2C17,10.2,17,10.2,17,10.2C17,10.2,17,10.2,17,10.2c0,0.1,0,0.1,0,0.1v0c0,0,0,0,0,0c0,0,0,0,0,0c0,0,0,0,0,0
		c0,0.1,0.2,0.2,0.3,0.2c0,0,0,0,0.1,0h0c0,0,0,0,0,0c0,0,0,0,0,0c0,0,0,0,0,0c0,0,0,0,0,0c0,0,0,0,0,0c0,0,0.1-0.1,0.1-0.1
		c0,0,0,0,0,0c0,0,0,0,0,0c0,0,0,0,0,0c0,0,0,0,0,0c0,0,0,0,0,0c0,0,0,0,0-0.1v0v0c0-0.1,0-0.1,0-0.1c0,0-0.1-0.1-0.1-0.1
		c-0.1,0-0.1-0.1-0.2-0.1c-0.1,0-0.1,0-0.2,0.1C17.1,10,17.1,10.1,17,10.2C17,10.1,17,10.1,17,10.2C17,10.2,17,10.2,17,10.2"/>
	<path fill="#FFF" d="M16.3,10.5c0.1-0.1,0.1-0.2,0.1-0.3v0c0,0,0,0,0,0c0,0,0-0.1,0-0.1c0-0.1-0.1-0.1-0.1-0.1c0,0,0,0,0,0c0,0-0.1,0-0.1,0v0.6
		c0,0,0,0,0,0C16.2,10.6,16.3,10.6,16.3,10.5"/>
	<path fill="#FFF" d="M19.9,9.7c0,0.1,0.1,0.3,0.2,0.3c0,0,0,0,0,0c0,0,0.1,0,0.1,0c0,0,0,0,0,0c0,0,0,0,0,0c0,0,0,0,0,0c0,0,0,0,0,0V9.3h0
		C20.1,9.3,19.9,9.5,19.9,9.7"/>
	<path fill="#FFF" d="M19.4,9.7c0-0.2-0.1-0.4-0.3-0.4c-0.3,0-0.5,0.3-0.3,0.5c0,0,0.1,0.1,0.2,0.1c0,0,0,0,0,0c0.1,0,0.1,0,0.2,0
		C19.3,10,19.4,9.9,19.4,9.7"/>
	<path fill="#FFF" d="M17.9,10C17.9,10,17.9,10,17.9,10C17.9,10,17.9,10,17.9,10L17.9,10c0.2,0,0.3-0.1,0.4-0.3c0-0.5-0.7-0.4-0.7,0
		C17.6,9.9,17.7,10,17.9,10"/>
	<path fill="#FFF" d="M16.8,10c0.1,0,0.3-0.1,0.3-0.3c0-0.2-0.2-0.4-0.3-0.3c-0.1,0-0.3,0.1-0.3,0.3C16.4,9.9,16.6,10,16.8,10"/>
	<path fill="#FFF" d="M20,9.1c0-0.5-0.6-0.5-0.7-0.1c0,0.1,0,0.2,0.1,0.2c0.1,0.1,0.2,0.2,0.3,0.1C19.9,9.4,20,9.3,20,9.1"/>
	<path fill="#FFF" d="M18.5,8.8c-0.2,0-0.3,0.1-0.3,0.3c0,0.2,0.2,0.3,0.4,0.3c0.2,0,0.3-0.1,0.3-0.3C18.8,8.9,18.7,8.8,18.5,8.8"/>
	<path fill="#FFF" d="M17.3,9.4c0.1,0,0.3-0.1,0.3-0.2c0.1-0.2-0.1-0.4-0.3-0.4c-0.2,0-0.3,0.1-0.3,0.3C17,9.3,17.2,9.4,17.3,9.4"/>
	<path fill="#FFF" d="M16.4,9.1c0-0.2-0.1-0.2-0.3-0.3v0.6c0,0,0,0,0,0C16.3,9.4,16.5,9.2,16.4,9.1"/>
	<path fill="#FFF" d="M19.9,8.5c0,0.2,0.2,0.3,0.3,0.3V8.2h0C20.1,8.2,19.9,8.3,19.9,8.5"/>
	<path fill="#FFF" d="M19.1,8.2c-0.3,0-0.5,0.3-0.3,0.5c0,0.1,0.2,0.2,0.3,0.1c0.2,0,0.3-0.1,0.3-0.3C19.4,8.3,19.3,8.2,19.1,8.2"/>
	<path fill="#FFF" d="M17.9,8.8c0.2,0,0.3-0.1,0.3-0.3c0-0.5-0.7-0.4-0.6,0C17.6,8.7,17.7,8.9,17.9,8.8"/>
	<path fill="#FFF" d="M16.8,8.8c0.1,0,0.3-0.1,0.3-0.3c0-0.2-0.2-0.4-0.3-0.3c-0.1,0-0.3,0.1-0.3,0.3C16.4,8.7,16.6,8.8,16.8,8.8"/>
	<path fill="#FFF" d="M20,8c0-0.5-0.6-0.5-0.7-0.1c0,0.1,0,0.2,0.1,0.2c0.1,0.1,0.2,0.2,0.3,0.1C19.9,8.2,20,8.1,20,8"/>
	<path fill="#FFF" d="M18.5,7.6c-0.2,0-0.3,0.1-0.3,0.3c0,0.2,0.2,0.3,0.4,0.3c0.2,0,0.3-0.1,0.3-0.3C18.8,7.7,18.7,7.6,18.5,7.6"/>
	<path fill="#FFF" d="M17.3,8.2c0.1,0,0.3-0.1,0.3-0.2c0.1-0.2-0.1-0.4-0.3-0.4c-0.2,0-0.3,0.1-0.3,0.3C17,8.1,17.2,8.2,17.3,8.2"/>
	<path fill="#FFF" d="M16.4,7.9c0-0.2-0.1-0.2-0.3-0.3v0.6c0,0,0,0,0,0C16.3,8.2,16.5,8.1,16.4,7.9"/>
	<path fill="#FFF" d="M19.9,7.3c0,0.2,0.2,0.3,0.3,0.3V7h0C20.1,7,19.9,7.1,19.9,7.3"/>
	<path fill="#FFF" d="M19.1,7c-0.3,0-0.5,0.3-0.3,0.5c0,0.1,0.2,0.2,0.3,0.1c0.2,0,0.3-0.1,0.3-0.3C19.4,7.2,19.3,7,19.1,7"/>
	<path fill="#FFF" d="M17.9,7.7c0.2,0,0.3-0.1,0.3-0.3c0-0.5-0.7-0.4-0.6,0C17.6,7.5,17.7,7.7,17.9,7.7"/>
	<path fill="#FFF" d="M16.8,7.6c0.1,0,0.3-0.1,0.3-0.3c0-0.2-0.2-0.4-0.3-0.3c-0.1,0-0.3,0.1-0.3,0.3C16.4,7.5,16.6,7.7,16.8,7.6"/>
	<path fill="#FFF" d="M20,6.8c0-0.5-0.6-0.5-0.7-0.1c0,0.1,0,0.2,0.1,0.2c0.1,0.1,0.2,0.2,0.3,0.1C19.9,7.1,20,6.9,20,6.8"/>
	<path fill="#FFF" d="M18.5,6.4c-0.2,0-0.3,0.1-0.3,0.3c0,0.2,0.2,0.3,0.4,0.3c0.2,0,0.3-0.1,0.3-0.3C18.8,6.6,18.7,6.4,18.5,6.4"/>
	<path fill="#FFF" d="M17.3,7.1c0.1,0,0.3-0.1,0.3-0.2c0.1-0.2-0.1-0.4-0.3-0.4c-0.2,0-0.3,0.1-0.3,0.3C17,6.9,17.2,7.1,17.3,7.1"/>
	<path fill="#FFF" d="M16.4,6.7c0-0.2-0.1-0.2-0.3-0.3V7c0,0,0,0,0,0C16.3,7,16.5,6.9,16.4,6.7"/>
	<path fill="#FFF" d="M22.6,5.8c-0.2,0-0.4,0.1-0.4,0.4c0,0,0,0,0,0H23c0,0,0,0,0,0C23,6,22.8,5.8,22.6,5.8"/>
	<path fill="#FFF" d="M21.5,5.8c-0.2,0-0.4,0.1-0.4,0.4h0.7C21.8,6,21.6,5.8,21.5,5.8"/>
	<path fill="#FFF" d="M20.2,5.8c-0.2,0-0.4,0.1-0.3,0.4c0,0.2,0.2,0.3,0.3,0.3V6.2h0.4c0,0,0,0,0,0C20.6,6,20.5,5.8,20.2,5.8"/>
	<path fill="#FFF" d="M19.1,5.8c-0.3,0-0.5,0.3-0.3,0.5c0,0.1,0.2,0.2,0.3,0.1c0.2,0,0.3-0.1,0.3-0.3C19.4,6,19.3,5.8,19.1,5.8"/>
	<path fill="#FFF" d="M18.2,6.2c0-0.5-0.7-0.4-0.6,0c0,0.2,0.1,0.3,0.4,0.3C18.1,6.5,18.2,6.3,18.2,6.2"/>
	<path fill="#FFF" d="M16.8,6.5c0.1,0,0.3-0.1,0.3-0.3c0-0.2-0.2-0.4-0.3-0.3c-0.1,0-0.3,0.1-0.3,0.3C16.4,6.4,16.6,6.5,16.8,6.5"/>
	<path fill="#FFF" d="M22.4,5.6c0-0.2-0.2-0.4-0.4-0.4c-0.2,0-0.4,0.1-0.4,0.4c0,0.2,0.2,0.4,0.4,0.4C22.2,5.9,22.4,5.8,22.4,5.6"/>
	<path fill="#FFF" d="M21.2,5.6c0-0.2-0.2-0.4-0.3-0.4c-0.2,0-0.4,0.2-0.4,0.4c0,0.2,0.2,0.3,0.4,0.3c0.1,0,0.2-0.1,0.3-0.2
		C21.2,5.8,21.2,5.7,21.2,5.6"/>
	<path fill="#FFF" d="M20,5.6c0-0.5-0.6-0.5-0.7-0.1c0,0.1,0,0.2,0.1,0.2c0.1,0.1,0.2,0.2,0.3,0.1C19.9,5.9,20,5.8,20,5.6"/>
	<path fill="#FFF" d="M18.5,5.2c-0.2,0-0.3,0.1-0.3,0.3c0,0.2,0.2,0.3,0.4,0.3c0.2,0,0.3-0.1,0.3-0.3C18.8,5.4,18.7,5.2,18.5,5.2"/>
	<path fill="#FFF" d="M17.3,5.3c-0.2,0-0.3,0.1-0.3,0.3c0,0.2,0.2,0.3,0.3,0.3c0.1,0,0.3-0.1,0.3-0.2C17.7,5.4,17.5,5.3,17.3,5.3"/>
	<path fill="#FFF" d="M16.4,5.5c0-0.2-0.1-0.2-0.3-0.3v0.6c0,0,0,0,0,0C16.3,5.9,16.5,5.7,16.4,5.5"/>
	<path fill="#FFF" d="M22.6,5.4C22.8,5.3,23,5.2,23,5c0-0.2-0.2-0.4-0.4-0.4c-0.2,0-0.4,0.1-0.4,0.4C22.2,5.2,22.4,5.4,22.6,5.4"/>
	<path fill="#FFF" d="M21.3,5.3c0,0,0.1,0,0.2,0c0.2,0,0.3-0.2,0.3-0.3c0-0.2-0.1-0.4-0.3-0.4c-0.2,0-0.4,0.1-0.4,0.4
		C21.1,5.2,21.2,5.3,21.3,5.3"/>
	<path fill="#FFF" d="M20.3,5.3c0.2,0,0.3-0.2,0.3-0.4c0-0.2-0.2-0.4-0.4-0.3c-0.2,0-0.4,0.1-0.3,0.4C19.9,5.2,20.1,5.4,20.3,5.3"/>
	<path fill="#FFF" d="M19.1,4.7c-0.3,0-0.5,0.3-0.3,0.5c0,0.1,0.2,0.2,0.3,0.1c0.2,0,0.3-0.1,0.3-0.3C19.4,4.8,19.3,4.7,19.1,4.7"/>
	<path fill="#FFF" d="M17.6,5c0,0.2,0.1,0.3,0.4,0.3c0.2,0,0.3-0.1,0.3-0.3C18.3,4.6,17.6,4.6,17.6,5"/>
	<path fill="#FFF" d="M16.8,5.3C16.9,5.3,17,5.2,17,5c0-0.2-0.2-0.4-0.3-0.3c-0.1,0-0.3,0.1-0.3,0.3C16.4,5.2,16.6,5.3,16.8,5.3"/>
	<path fill="#FFF" d="M22.4,4.4C22.4,4.2,22.2,4,22,4c-0.2,0-0.4,0.1-0.4,0.4c0,0.2,0.2,0.4,0.4,0.4C22.2,4.8,22.4,4.6,22.4,4.4"/>
	<path fill="#FFF" d="M20.9,4.8c0.1,0,0.2-0.1,0.3-0.2c0,0,0.1-0.1,0.1-0.2c0-0.2-0.2-0.4-0.3-0.4c-0.2,0-0.4,0.2-0.4,0.4
		C20.5,4.6,20.7,4.8,20.9,4.8"/>
	<path fill="#FFF" d="M19.3,4.4c0,0.1,0,0.2,0.1,0.2c0.1,0.1,0.2,0.2,0.3,0.1c0.2,0,0.3-0.1,0.3-0.3C20.1,4,19.4,3.9,19.3,4.4"/>
	<path fill="#FFF" d="M18.5,4.1c-0.2,0-0.3,0.1-0.3,0.3c0,0.2,0.2,0.3,0.4,0.3c0.2,0,0.3-0.1,0.3-0.3C18.8,4.2,18.7,4.1,18.5,4.1"/>
	<path fill="#FFF" d="M17.3,4.1c-0.2,0-0.3,0.1-0.3,0.3c0,0.2,0.2,0.3,0.3,0.3c0.1,0,0.3-0.1,0.3-0.2C17.7,4.3,17.5,4.1,17.3,4.1"/>
	<path fill="#FFF" d="M16.4,4.4c0-0.2-0.1-0.2-0.3-0.3v0.6c0,0,0,0,0,0C16.3,4.7,16.5,4.5,16.4,4.4"/>
	<path fill="#FFF" d="M23,3.8c0-0.2-0.2-0.4-0.4-0.4c-0.2,0-0.4,0.1-0.4,0.4c0,0.2,0.2,0.4,0.4,0.4C22.8,4.2,23,4,23,3.8"/>
	<path fill="#FFF" d="M21.3,4.1c0,0,0.1,0,0.2,0c0.2,0,0.3-0.2,0.3-0.3c0-0.2-0.1-0.4-0.3-0.4c-0.2,0-0.4,0.1-0.4,0.4C21.1,4,21.2,4.1,21.3,4.1"
		/>
	<path fill="#FFF" d="M20.3,4.2c0.2,0,0.3-0.2,0.3-0.4c0-0.2-0.2-0.4-0.4-0.3c-0.2,0-0.4,0.1-0.3,0.4C19.9,4,20.1,4.2,20.3,4.2"/>
	<path fill="#FFF" d="M19.1,3.5c-0.3,0-0.5,0.3-0.3,0.5c0,0.1,0.2,0.2,0.3,0.1c0.2,0,0.3-0.1,0.3-0.3C19.4,3.6,19.3,3.5,19.1,3.5"/>
	<path fill="#FFF" d="M17.6,3.8c0,0.2,0.1,0.3,0.4,0.3c0.2,0,0.3-0.1,0.3-0.3C18.3,3.4,17.6,3.4,17.6,3.8"/>
	<path fill="#FFF" d="M16.7,3.5c-0.1,0-0.3,0.1-0.3,0.3c0,0.2,0.2,0.3,0.4,0.3C16.9,4.1,17,4,17,3.8C17.1,3.6,16.9,3.5,16.7,3.5"/>
	<path fill="#FFF" d="M21.6,3.2c0,0.2,0.2,0.4,0.4,0.4c0.2,0,0.3-0.2,0.3-0.4c0-0.2-0.2-0.4-0.4-0.4C21.8,2.9,21.6,3,21.6,3.2"/>
	<path fill="#FFF" d="M20.5,3.3c0,0.2,0.2,0.3,0.4,0.3c0.1,0,0.2-0.1,0.3-0.2c0,0,0.1-0.1,0.1-0.2c0-0.2-0.2-0.4-0.3-0.4
		C20.6,2.9,20.5,3,20.5,3.3"/>
	<path fill="#FFF" d="M19.4,3.4c0.1,0.1,0.2,0.2,0.3,0.1c0.2,0,0.3-0.1,0.3-0.3c0-0.5-0.6-0.5-0.7-0.1C19.3,3.3,19.3,3.3,19.4,3.4"/>
	<path fill="#FFF" d="M18.5,3.6c0.2,0,0.3-0.1,0.3-0.3c0-0.2-0.1-0.3-0.3-0.3c-0.2,0-0.3,0.1-0.3,0.3C18.2,3.4,18.3,3.6,18.5,3.6"/>
	<path fill="#FFF" d="M17.3,3.5c0.1,0,0.3-0.1,0.3-0.2c0.1-0.2-0.1-0.4-0.3-0.4C17.2,2.9,17,3,17,3.2C17,3.4,17.2,3.6,17.3,3.5"/>
	<path fill="#FFF" d="M16.4,3.2c0-0.2-0.1-0.2-0.3-0.3v0.6c0,0,0,0,0,0C16.3,3.5,16.5,3.4,16.4,3.2"/>
	<path fill="#FFF" d="M22.6,3C22.8,3,23,2.9,23,2.7h-0.7C22.2,2.9,22.4,3,22.6,3"/>
	<path fill="#FFF" d="M21.3,3c0,0,0.1,0,0.2,0c0.2,0,0.3-0.2,0.3-0.3c0,0,0,0,0,0h-0.7c0,0,0,0,0,0C21.1,2.8,21.2,2.9,21.3,3"/>
	<path fill="#FFF" d="M20.3,3c0.2,0,0.3-0.1,0.3-0.3h-0.7C19.9,2.9,20.1,3,20.3,3"/>
	<path fill="#FFF" d="M19.1,3c0.2,0,0.3-0.1,0.3-0.3c0,0,0,0,0,0h-0.7c0,0.1,0,0.1,0.1,0.2C18.8,2.9,19,3,19.1,3"/>
	<path fill="#FFF" d="M17.9,3c0.2,0,0.3-0.1,0.3-0.3l-0.6,0C17.6,2.8,17.7,3,17.9,3"/>
	<path fill="#FFF" d="M16.8,2.9c0.1,0,0.3-0.1,0.3-0.3v0l-0.6,0v0C16.4,2.8,16.6,3,16.8,2.9"/>
	<path fill="#FFF" d="M15,18.2c-0.1,0-0.2-0.1-0.4-0.1c0,0,0,0,0,0c0,0,0-0.1,0-0.1c0-0.3-0.4-0.4-0.5-0.2c0,0,0,0.1,0,0.1
		c-0.5-0.2-0.9-0.4-1.3-0.7c0-0.1-0.1-0.1-0.2-0.1c-0.1-0.1-0.3-0.2-0.4-0.3c0,0,0,0,0,0c0-0.2-0.2-0.3-0.3-0.2
		c-0.1-0.1-0.2-0.2-0.3-0.3c0,0,0-0.1,0-0.1c0-0.1-0.1-0.2-0.1-0.3c-0.1,0-0.1,0-0.2,0c-0.1-0.1-0.2-0.2-0.3-0.3c0-0.1,0-0.2,0-0.2
		c0,0-0.1-0.1-0.2-0.1c-0.5-0.7-0.8-1.4-1-2c0,0,0,0,0-0.1c0-0.1-0.1-0.2-0.1-0.3c0,0,0,0,0,0c-0.1-0.4-0.2-0.8-0.2-1.2V2.7H5.5V12
		c0,3.8,2.4,6.6,7.4,6.6c1.4,0,2.5-0.3,2.5-0.3c-0.1,0-0.1,0-0.2-0.1C15.1,18.2,15,18.2,15,18.2"/>
	<path fill="#FFF" d="M16.7,17.6c-0.1,0-0.3,0.1-0.3,0.3c0,0,0,0,0,0.1c0.2-0.1,0.4-0.2,0.6-0.2C16.9,17.6,16.8,17.6,16.7,17.6"/>
	<path fill="#FFF" d="M15.6,17.6c-0.1,0-0.3,0.1-0.3,0.3c0,0.2,0.1,0.3,0.3,0.3c0.2,0,0.3-0.1,0.3-0.3C15.9,17.7,15.7,17.6,15.6,17.6"/>
	<path fill="#FFF" d="M17.3,17c-0.2,0-0.3,0.1-0.3,0.3c0,0.2,0.1,0.3,0.2,0.3c0.1-0.1,0.3-0.2,0.4-0.2C17.7,17.2,17.5,17,17.3,17"/>
	<path fill="#FFF" d="M15.8,17.3c0,0.2,0.1,0.4,0.3,0.3c0.1,0,0.3-0.2,0.3-0.3C16.4,17,15.9,16.9,15.8,17.3"/>
	<path fill="#FFF" d="M15,17.6c0.2,0,0.3-0.3,0.2-0.5c-0.2-0.2-0.5,0-0.5,0.2C14.7,17.5,14.8,17.6,15,17.6"/>
	<path fill="#FFF" d="M13.9,17.1c-0.2-0.1-0.5,0.1-0.4,0.4c0,0.1,0.1,0.2,0.3,0.1c0.1,0,0.2-0.1,0.2-0.1C14.1,17.3,14,17.1,13.9,17.1"/>
	<path fill="#FFF" d="M17.6,16.8c0,0.2,0.1,0.3,0.4,0.3c0.2,0,0.3-0.1,0.3-0.3C18.3,16.3,17.6,16.3,17.6,16.8"/>
	<path fill="#FFF" d="M16.8,17c0.1,0,0.3-0.1,0.3-0.3c0-0.2-0.2-0.4-0.3-0.3c-0.1,0-0.3,0.1-0.3,0.3C16.4,16.9,16.6,17.1,16.8,17"/>
	<path fill="#FFF" d="M15.6,17c0.2,0,0.3-0.1,0.3-0.3c0-0.2-0.1-0.3-0.3-0.3c-0.1,0-0.3,0.1-0.3,0.3C15.3,16.9,15.4,17,15.6,17"/>
	<path fill="#FFF" d="M14.4,17c0.1,0,0.2-0.1,0.2-0.1c0,0,0-0.1,0-0.1c0-0.3-0.4-0.4-0.5-0.2c0,0.1-0.1,0.2,0,0.3C14.2,16.9,14.3,17,14.4,17"/>
	<path fill="#FFF" d="M13.2,17c0.1,0,0.2-0.1,0.3-0.2c0-0.2-0.1-0.3-0.3-0.3c-0.1,0-0.2,0.1-0.2,0.3C13,16.9,13.1,17,13.2,17"/>
	<path fill="#FFF" d="M18.5,15.8c-0.2,0-0.3,0.1-0.3,0.3c0,0.2,0.2,0.3,0.4,0.3c0.2,0,0.3-0.1,0.3-0.3C18.8,16,18.7,15.8,18.5,15.8"/>
	<path fill="#FFF" d="M17.3,16.5c0.1,0,0.3-0.1,0.3-0.2c0.1-0.2-0.1-0.4-0.3-0.4c-0.2,0-0.3,0.1-0.3,0.3C17,16.3,17.2,16.5,17.3,16.5"/>
	<path fill="#FFF" d="M16.2,16.4c0.1,0,0.3-0.1,0.3-0.3c0-0.3-0.6-0.4-0.6,0C15.8,16.3,16,16.5,16.2,16.4"/>
	<path fill="#FFF" d="M15,16.4c0.2,0,0.3-0.3,0.2-0.5c-0.2-0.2-0.5,0-0.5,0.2C14.7,16.3,14.8,16.4,15,16.4"/>
	<path fill="#FFF" d="M13.9,15.9c-0.2-0.1-0.5,0.1-0.4,0.4c0,0.1,0.1,0.2,0.3,0.1c0.1,0,0.2-0.1,0.2-0.1C14.1,16.1,14,16,13.9,15.9"/>
	<path fill="#FFF" d="M12.6,15.9c-0.1,0-0.2,0.1-0.2,0.2c0,0.2,0.1,0.3,0.3,0.3c0.1,0,0.2-0.1,0.2-0.2C12.9,16,12.7,15.9,12.6,15.9"/>
	<path fill="#FFF" d="M19.1,15.2c-0.3,0-0.5,0.3-0.3,0.5c0,0.1,0.2,0.2,0.3,0.1c0,0,0,0,0,0c0.1-0.1,0.2-0.3,0.2-0.4
		C19.4,15.3,19.3,15.2,19.1,15.2"/>
	<path fill="#FFF" d="M17.9,15.9c0.2,0,0.3-0.1,0.3-0.3c0-0.5-0.7-0.4-0.6,0C17.6,15.8,17.7,15.9,17.9,15.9"/>
	<path fill="#FFF" d="M16.7,15.2c-0.1,0-0.3,0.1-0.3,0.3c0,0.2,0.2,0.3,0.4,0.3c0.1,0,0.3-0.1,0.3-0.3C17.1,15.4,16.9,15.2,16.7,15.2"/>
	<path fill="#FFF" d="M15.6,15.9c0.2,0,0.3-0.1,0.3-0.3c0-0.2-0.1-0.3-0.3-0.3c-0.1,0-0.3,0.1-0.3,0.3C15.3,15.7,15.4,15.9,15.6,15.9"/>
	<path fill="#FFF" d="M14.4,15.8c0.1,0,0.2-0.1,0.2-0.1c0,0,0-0.1,0-0.1c0-0.3-0.4-0.4-0.5-0.2c0,0.1-0.1,0.2,0,0.3
		C14.2,15.8,14.3,15.9,14.4,15.8"/>
	<path fill="#FFF" d="M13.2,15.8c0.1,0,0.2-0.1,0.3-0.2c0-0.2-0.1-0.3-0.3-0.3c-0.1,0-0.2,0.1-0.2,0.3C13,15.7,13.1,15.8,13.2,15.8"/>
	<path fill="#FFF" d="M12.1,15.8c0.1,0,0.1,0,0.1-0.1c0,0,0.1-0.1,0.1-0.1c0-0.2-0.3-0.3-0.4-0.2c-0.1,0.1-0.1,0.3,0,0.3
		C11.9,15.8,12,15.8,12.1,15.8"/>
	<path fill="#FFF" d="M19.3,14.9c0,0.1,0,0.2,0.1,0.2c0,0,0.1,0.1,0.1,0.1c0.1-0.2,0.2-0.4,0.3-0.6C19.6,14.6,19.3,14.7,19.3,14.9"/>
	<path fill="#FFF" d="M18.5,15.3c0.2,0,0.3-0.1,0.3-0.3c0-0.2-0.1-0.3-0.3-0.3c-0.2,0-0.3,0.1-0.3,0.3C18.2,15.2,18.3,15.3,18.5,15.3"/>
	<path fill="#FFF" d="M17.3,15.3c0.1,0,0.3-0.1,0.3-0.2c0.1-0.2-0.1-0.4-0.3-0.4c-0.2,0-0.3,0.1-0.3,0.3C17,15.2,17.2,15.3,17.3,15.3"/>
	<path fill="#FFF" d="M15.8,14.9c0,0.2,0.1,0.4,0.3,0.3c0.1,0,0.3-0.2,0.3-0.3C16.4,14.6,15.9,14.6,15.8,14.9"/>
	<path fill="#FFF" d="M15,15.3c0.2,0,0.3-0.3,0.2-0.5c-0.2-0.2-0.5,0-0.5,0.2C14.7,15.2,14.8,15.3,15,15.3"/>
	<path fill="#FFF" d="M13.8,15.2c0.1,0,0.2-0.1,0.2-0.1c0-0.1,0-0.2,0-0.2c-0.2,0-0.3,0.1-0.5,0.1c0,0,0,0.1,0,0.1
		C13.6,15.2,13.7,15.3,13.8,15.2"/>
	<path fill="#FFF" d="M12.7,15.2c0.1,0,0.2-0.1,0.2-0.2c-0.2,0-0.3,0-0.5,0C12.4,15.1,12.5,15.2,12.7,15.2"/>
	<path fill="#FFF" d="M11.5,15.2c0.1,0,0.2-0.1,0.2-0.2c0-0.1,0-0.1,0-0.2c-0.1,0-0.2-0.1-0.3-0.1c-0.1,0-0.1,0.1-0.1,0.1
		C11.2,15.1,11.3,15.2,11.5,15.2"/>
	<path fill="#FFF" d="M19.1,14.7c0.2,0,0.3-0.1,0.3-0.3c0-0.2-0.1-0.4-0.3-0.4c-0.3,0-0.5,0.3-0.3,0.5C18.8,14.6,19,14.7,19.1,14.7"/>
	<path fill="#FFF" d="M17.9,14.7c0.2,0,0.3-0.1,0.3-0.3c0-0.5-0.7-0.4-0.6,0C17.6,14.6,17.7,14.7,17.9,14.7"/>
	<path fill="#FFF" d="M16.8,14.7c0.1,0,0.3-0.1,0.3-0.3c0-0.2-0.2-0.4-0.3-0.3c-0.1,0-0.3,0.1-0.3,0.3C16.4,14.6,16.6,14.7,16.8,14.7"/>
	<path fill="#FFF" d="M15.6,14.7c0.2,0,0.3-0.1,0.3-0.3c0-0.2-0.1-0.3-0.3-0.3c-0.1,0-0.3,0.1-0.3,0.3C15.3,14.6,15.4,14.7,15.6,14.7"/>
	<path fill="#FFF" d="M10.9,14.6c0,0,0.1,0,0.1,0c-0.1-0.1-0.2-0.2-0.3-0.2C10.6,14.5,10.7,14.6,10.9,14.6"/>
	<path fill="#FFF" d="M19.3,13.8c0,0.1,0,0.2,0.1,0.2c0.1,0.1,0.2,0.2,0.3,0.1c0.2,0,0.3-0.1,0.3-0.3C20.1,13.4,19.4,13.3,19.3,13.8"/>
	<path fill="#FFF" d="M18.5,14.1c0.2,0,0.3-0.1,0.3-0.3c0-0.2-0.1-0.3-0.3-0.3c-0.2,0-0.3,0.1-0.3,0.3C18.2,14,18.3,14.1,18.5,14.1"/>
	<path fill="#FFF" d="M17.3,14.1c0.1,0,0.3-0.1,0.3-0.2c0.1-0.2-0.1-0.4-0.3-0.4c-0.2,0-0.3,0.1-0.3,0.3C17,14,17.2,14.1,17.3,14.1"/>
	<path fill="#FFF" d="M16.2,14.1c0.1,0,0.3-0.1,0.3-0.3c0-0.3-0.6-0.4-0.6,0C15.8,14,16,14.1,16.2,14.1"/>
	<path fill="#FFF" d="M10.3,14c-0.1-0.1-0.2-0.2-0.2-0.3c0,0,0,0.1,0,0.1C10.1,13.9,10.2,14,10.3,14"/>
	<path fill="#FFF" d="M19.9,13.2c0,0.1,0.1,0.3,0.2,0.3c0-0.2,0.1-0.4,0.1-0.7C20,12.9,19.9,13,19.9,13.2"/>
	<path fill="#FFF" d="M19.1,12.9c-0.3,0-0.5,0.3-0.3,0.5c0,0.1,0.2,0.2,0.3,0.1c0.2,0,0.3-0.1,0.3-0.3C19.4,13,19.3,12.9,19.1,12.9"/>
	<path fill="#FFF" d="M17.6,13.2c0,0.2,0.1,0.3,0.4,0.3c0.2,0,0.3-0.1,0.3-0.3C18.3,12.8,17.6,12.8,17.6,13.2"/>
	<path fill="#FFF" d="M16.8,13.5c0.1,0,0.3-0.1,0.3-0.3c0-0.2-0.2-0.4-0.3-0.3c-0.1,0-0.3,0.1-0.3,0.3C16.4,13.4,16.6,13.5,16.8,13.5"/>
	<path fill="#FFF" d="M19.7,13c0.2,0,0.3-0.1,0.3-0.3c0-0.5-0.6-0.5-0.7-0.1c0,0.1,0,0.2,0.1,0.2C19.4,12.9,19.6,13,19.7,13"/>
	<path fill="#FFF" d="M18.5,12.3c-0.2,0-0.3,0.1-0.3,0.3c0,0.2,0.2,0.3,0.4,0.3c0.2,0,0.3-0.1,0.3-0.3C18.8,12.4,18.7,12.3,18.5,12.3"/>
	<path fill="#FFF" d="M17.3,12.9c0.1,0,0.3-0.1,0.3-0.2c0.1-0.2-0.1-0.4-0.3-0.4c-0.2,0-0.3,0.1-0.3,0.3C17,12.8,17.2,12.9,17.3,12.9"/>
	<path fill="#FFF" d="M16.2,12.9c0.1,0,0.3-0.1,0.3-0.3c0-0.2-0.2-0.3-0.3-0.3c0,0.2-0.1,0.4-0.1,0.6C16.1,12.9,16.1,12.9,16.2,12.9"/>
	<path fill="#FFF" d="M19.9,12c0,0.2,0.1,0.3,0.3,0.3c0-0.1,0-0.3,0-0.4v-0.3c0,0,0,0,0,0C20.1,11.7,19.9,11.8,19.9,12"/>
	<path fill="#FFF" d="M19.1,12.4c0.2,0,0.3-0.1,0.3-0.3c0-0.2-0.1-0.4-0.3-0.4c-0.3,0-0.5,0.3-0.3,0.5C18.8,12.3,19,12.4,19.1,12.4"/>
	<path fill="#FFF" d="M17.6,12.1c0,0.2,0.1,0.3,0.4,0.3c0.2,0,0.3-0.1,0.3-0.3C18.3,11.6,17.6,11.6,17.6,12.1"/>
	<path fill="#FFF" d="M16.8,12.3c0.1,0,0.3-0.1,0.3-0.3c0-0.2-0.2-0.4-0.3-0.3c-0.1,0-0.3,0.1-0.3,0.3C16.4,12.2,16.6,12.4,16.8,12.3"/>
	<path fill="#FFF" d="M20,11.5c0-0.5-0.6-0.5-0.7-0.1c0,0.1,0,0.2,0.1,0.2c0.1,0.1,0.2,0.2,0.3,0.1C19.9,11.8,20,11.6,20,11.5"/>
	<path fill="#FFF" d="M18.5,11.8c0.2,0,0.3-0.1,0.3-0.3c0-0.2-0.1-0.3-0.3-0.3c-0.2,0-0.3,0.1-0.3,0.3C18.2,11.6,18.3,11.8,18.5,11.8"/>
	<path fill="#FFF" d="M17.3,11.8c0.1,0,0.3-0.1,0.3-0.2c0.1-0.2-0.1-0.4-0.3-0.4c-0.2,0-0.3,0.1-0.3,0.3C17,11.6,17.2,11.8,17.3,11.8"/>
	<path fill="#FFF" d="M16.4,11.4c0-0.2-0.1-0.2-0.3-0.3v0.6c0,0,0,0,0,0C16.3,11.7,16.5,11.6,16.4,11.4"/>
	<path fill="#FFF" d="M19.9,10.9c0,0.2,0.2,0.3,0.3,0.3v-0.7h0C20.1,10.5,19.9,10.7,19.9,10.9"/>
	<path fill="#FFF" d="M19.1,10.5c-0.3,0-0.5,0.3-0.3,0.5c0,0.1,0.2,0.2,0.3,0.1c0.2,0,0.3-0.1,0.3-0.3C19.4,10.7,19.3,10.5,19.1,10.5"/>
	<path fill="#FFF" d="M17.6,11C17.6,11,17.6,11,17.6,11c0.1,0.1,0.2,0.2,0.3,0.2c0.2,0,0.3-0.1,0.3-0.3c0,0,0,0,0,0c0,0,0,0,0,0
		c0-0.2-0.1-0.3-0.2-0.3c0,0-0.1,0-0.1,0c-0.1,0-0.1,0-0.1,0c-0.1,0-0.2,0.1-0.2,0.3C17.6,10.9,17.6,11,17.6,11"/>
	<path fill="#FFF" d="M16.8,11.2c0.1,0,0.2-0.1,0.3-0.2c0,0,0,0,0,0c0,0,0,0,0,0c0,0,0,0,0,0v0c0-0.2-0.2-0.3-0.3-0.3c-0.1,0-0.3,0.1-0.3,0.3
		C16.4,11.1,16.6,11.2,16.8,11.2"/>
	<path fill="#FFF" d="M35.1,10.6c-0.2,0-0.3,0.1-0.3,0.3c0,0,0,0,0,0c0,0,0,0,0,0v0c0,0,0,0,0,0c0,0.1,0.1,0.2,0.3,0.2c0.1,0,0.2,0,0.3-0.1
		c0,0,0,0,0,0c0,0,0,0,0,0l0,0c0,0,0-0.1,0-0.1C35.4,10.7,35.2,10.6,35.1,10.6"/>
	<path fill="#FFF" d="M28.3,10.1c0,0.1-0.1,0.1-0.1,0.2c0,0.1,0,0.2,0.1,0.3c0,0,0,0,0,0c0,0,0,0,0,0c0.1,0.1,0.1,0.1,0.2,0.1c0,0,0.1,0,0.1,0
		c0,0,0,0,0,0c0,0,0,0,0,0c0.2,0,0.3-0.2,0.3-0.4c0-0.2-0.2-0.4-0.4-0.4C28.5,9.9,28.4,9.9,28.3,10.1C28.3,10,28.3,10,28.3,10.1"/>
	<path fill="#FFF" d="M29.7,10.6c0.1,0,0.1,0,0.1,0c0.1,0,0.2-0.2,0.3-0.3c0-0.1,0-0.1,0-0.2c0,0,0,0,0,0c0,0,0,0,0,0c0,0,0,0,0,0
		C30,10,29.9,9.9,29.7,9.9c-0.2,0-0.3,0.2-0.3,0.4c0,0.1,0,0.2,0.1,0.2c0,0.1,0.1,0.1,0.1,0.1C29.7,10.6,29.7,10.6,29.7,10.6"/>
	<path fill="#FFF" d="M31.2,10.5c0.1-0.1,0.1-0.1,0.1-0.2c0-0.3-0.4-0.4-0.6-0.2c0,0,0,0-0.1,0.1c0,0-0.1,0.1-0.1,0.2v0c0,0,0,0,0,0.1
		c0,0.2,0.1,0.3,0.3,0.3C31.1,10.6,31.2,10.5,31.2,10.5"/>
	<path fill="#FFF" d="M32.5,10.3c0-0.1,0-0.1,0-0.2c0,0,0,0,0,0c0,0,0-0.1-0.1-0.1c-0.1,0-0.1-0.1-0.2-0.1c-0.1,0-0.2,0-0.2,0.1
		c0,0-0.1,0.1-0.1,0.1c0,0,0,0.1,0,0.1c0,0,0,0,0,0v0v0c0,0,0,0,0,0c0,0,0,0,0,0c0,0,0,0,0,0c0,0,0,0,0,0c0,0,0,0,0,0c0,0,0,0,0,0
		c0,0,0,0,0,0c0,0,0,0,0,0c0.1,0.1,0.1,0.1,0.2,0.1C32.3,10.6,32.4,10.5,32.5,10.3"/>
	<path fill="#FFF" d="M33,10.3C33,10.3,33,10.3,33,10.3C33,10.4,33,10.4,33,10.3C33,10.4,33,10.4,33,10.3C33,10.4,33,10.4,33,10.3
		c0.1,0.1,0.1,0.2,0.1,0.2c0,0,0,0,0,0c0,0,0,0,0,0c0,0,0,0,0,0c0,0,0,0,0,0c0,0,0,0,0,0h0c0,0,0,0,0.1,0c0.1,0,0.3-0.1,0.3-0.2
		c0,0,0,0,0,0c0,0,0,0,0,0c0,0,0,0,0,0c0,0,0,0,0,0c0,0,0-0.1,0-0.1c0,0,0,0,0,0c0,0,0,0,0,0c0,0,0,0,0,0c0,0,0,0,0-0.1
		c0,0-0.1-0.1-0.1-0.1c-0.1,0-0.1-0.1-0.2-0.1c-0.1,0-0.1,0-0.2,0.1c0,0-0.1,0.1-0.1,0.1C33,10.2,33,10.2,33,10.3
		C33,10.3,33,10.3,33,10.3L33,10.3C33,10.3,33,10.3,33,10.3C33,10.3,33,10.3,33,10.3"/>
	<path fill="#FFF" d="M34.3,10.5c0,0,0.1,0,0.1,0c0.1,0,0.2,0,0.2-0.1c0,0,0,0,0,0c0,0,0,0,0,0c0.1-0.1,0.1-0.1,0.1-0.2c0,0,0,0,0,0
		c0,0,0,0,0-0.1c0,0,0,0,0,0c0,0,0,0,0,0c0-0.1-0.1-0.1-0.1-0.1c0,0,0,0,0,0c0,0,0,0,0,0c-0.1,0-0.2,0-0.3,0c0,0,0,0,0,0
		c0,0-0.1,0.1-0.1,0.1c0,0,0,0,0,0.1c0,0,0,0,0,0v0C34.2,10.4,34.2,10.5,34.3,10.5"/>
	<path fill="#FFF" d="M35.8,10L35.8,10c-0.1,0-0.1,0-0.2,0h0c0,0,0,0,0,0c0,0,0,0,0,0c0,0,0,0,0,0c0,0,0,0,0,0c0,0,0,0,0,0c0,0,0,0,0,0
		c0,0,0,0,0,0c0,0,0,0,0,0c-0.1,0.1-0.1,0.2,0,0.3c0,0.1,0.1,0.2,0.2,0.2c0.1,0,0.1,0,0.2,0c0,0,0,0,0,0c0-0.1,0.1-0.1,0.1-0.2
		c0,0,0-0.1,0-0.1C35.9,10.1,35.8,10,35.8,10"/>
	<path fill="#FFF" d="M28.8,9.7c0,0.1,0.1,0.2,0.2,0.3c0,0,0.1,0,0.1,0c0.1,0,0.2,0,0.2,0c0.1,0,0.2-0.2,0.2-0.3c0-0.1,0-0.1,0-0.2h-0.7
		C28.8,9.6,28.8,9.7,28.8,9.7"/>
	<path fill="#FFF" d="M30.7,9.7c0-0.1,0-0.1,0-0.2c-0.1,0-0.2,0-0.2,0H30c0,0,0,0.1,0,0.1c0,0.2,0.1,0.3,0.2,0.3c0,0,0.1,0,0.1,0c0,0,0,0,0,0
		c0,0,0,0,0,0c0,0,0,0,0,0c0,0,0.1,0,0.1,0c0,0,0,0,0,0C30.6,10,30.7,9.8,30.7,9.7"/>
	<path fill="#FFF" d="M31.5,9.3c-0.2,0-0.3,0.2-0.3,0.4c0,0.2,0.1,0.3,0.2,0.3c0.1,0,0.1,0,0.2,0c0,0,0,0,0,0c0.1,0,0.2-0.1,0.2-0.1
		C32,9.6,31.8,9.3,31.5,9.3"/>
	<path fill="#FFF" d="M33,9.7c0-0.5-0.7-0.5-0.6,0c0,0.2,0.1,0.3,0.3,0.3h0c0,0,0,0,0.1,0c0,0,0,0,0,0C32.9,10,33,9.9,33,9.7"/>
	<path fill="#FFF" d="M33.8,10c0.2,0,0.3-0.1,0.4-0.3c0-0.2-0.1-0.3-0.3-0.3c-0.2,0-0.4,0.1-0.3,0.3C33.6,9.9,33.7,10,33.8,10"/>
	<path fill="#FFF" d="M35.1,9.4c-0.2,0-0.3,0.1-0.3,0.3c0,0.2,0.1,0.3,0.3,0.3c0.2,0,0.3-0.1,0.3-0.3C35.4,9.5,35.2,9.4,35.1,9.4"/>
	<path fill="#FFF" d="M36,9.7c0,0.1,0,0.1,0,0.1c0,0,0.1,0.1,0.1,0.1c0.1-0.2,0.1-0.3,0.2-0.5C36.1,9.4,35.9,9.5,36,9.7"/>
	<path fill="#FFF" d="M32.1,9.4c0.2,0,0.4-0.1,0.4-0.3c0-0.2-0.2-0.3-0.3-0.3c0,0,0,0,0,0C32,8.9,31.9,9,31.8,9.1C31.8,9.3,31.9,9.4,32.1,9.4"/>
	<path fill="#FFF" d="M33.3,9.4c0.2,0,0.3-0.1,0.3-0.3c0-0.2-0.2-0.3-0.3-0.3c-0.2,0-0.4,0.2-0.3,0.4C33,9.3,33.1,9.4,33.3,9.4"/>
	<path fill="#FFF" d="M34.2,9.1c0,0.2,0.1,0.3,0.3,0.3c0.2,0,0.4-0.1,0.3-0.3C34.7,8.7,34.2,8.7,34.2,9.1"/>
	<path fill="#FFF" d="M35.4,8.9c-0.2,0.2-0.1,0.5,0.2,0.5c0.2,0,0.3-0.1,0.3-0.3C35.9,8.9,35.6,8.7,35.4,8.9"/>
	<path fill="#FFF" d="M32.7,8.8c0.2,0,0.4-0.1,0.4-0.3c0-0.5-0.7-0.5-0.6,0C32.4,8.7,32.5,8.8,32.7,8.8"/>
	<path fill="#FFF" d="M33.9,8.2c-0.2,0-0.4,0.1-0.3,0.3c0,0.2,0.1,0.3,0.3,0.3c0.2,0,0.3-0.1,0.4-0.3C34.2,8.3,34.1,8.2,33.9,8.2"/>
	<path fill="#FFF" d="M35.1,8.2c-0.2,0-0.3,0.1-0.3,0.3c0,0.2,0.1,0.3,0.3,0.3c0.2,0,0.3-0.1,0.3-0.3C35.4,8.3,35.2,8.2,35.1,8.2"/>
	<path fill="#FFF" d="M36,8.5c0,0.1,0,0.1,0,0.1c0,0.1,0.1,0.1,0.2,0.1c0.1,0,0.2,0,0.2-0.1c0-0.1,0-0.3,0-0.4C36.3,8.1,35.9,8.2,36,8.5"/>
	<path fill="#FFF" d="M32.5,7.9c0-0.1,0-0.2-0.1-0.2C32.4,7.7,32.4,7.8,32.5,7.9C32.4,7.9,32.4,7.9,32.5,7.9c-0.1,0.1-0.1,0.2-0.1,0.3
		C32.4,8.1,32.5,8,32.5,7.9"/>
	<path fill="#FFF" d="M33.3,7.6c-0.2,0-0.4,0.2-0.3,0.4c0,0.1,0.1,0.2,0.3,0.2c0.2,0,0.3-0.1,0.3-0.3C33.6,7.7,33.5,7.6,33.3,7.6"/>
	<path fill="#FFF" d="M34.2,7.9c0,0.2,0.1,0.3,0.3,0.3c0.2,0,0.4-0.1,0.3-0.3C34.7,7.5,34.2,7.6,34.2,7.9"/>
	<path fill="#FFF" d="M35.4,7.7c-0.2,0.2-0.1,0.5,0.2,0.5c0.2,0,0.3-0.1,0.3-0.3C35.9,7.7,35.6,7.5,35.4,7.7"/>
	<path fill="#FFF" d="M32.7,7.7c0.2,0,0.4-0.1,0.4-0.3c0-0.5-0.7-0.5-0.6,0C32.4,7.5,32.5,7.6,32.7,7.7"/>
	<path fill="#FFF" d="M33.9,7c-0.2,0-0.4,0.1-0.3,0.3c0,0.2,0.1,0.3,0.3,0.3c0.2,0,0.3-0.1,0.4-0.3C34.2,7.2,34.1,7,33.9,7"/>
	<path fill="#FFF" d="M35.1,7c-0.2,0-0.3,0.1-0.3,0.3c0,0.2,0.1,0.3,0.3,0.3c0.2,0,0.3-0.1,0.3-0.3C35.4,7.2,35.2,7,35.1,7"/>
	<path fill="#FFF" d="M36.2,7.6c0.1,0,0.2-0.1,0.3-0.1c0-0.1,0-0.2,0-0.4c-0.2-0.2-0.5,0-0.5,0.2c0,0.1,0,0.1,0,0.1C36,7.5,36.1,7.6,36.2,7.6"/>
	<path fill="#FFF" d="M32.1,6.4c-0.1,0-0.3,0.1-0.3,0.2c0.1,0.1,0.3,0.3,0.4,0.4c0.2,0,0.3-0.2,0.3-0.3C32.5,6.5,32.3,6.4,32.1,6.4"/>
	<path fill="#FFF" d="M33.3,6.4c-0.2,0-0.4,0.2-0.3,0.4c0,0.1,0.1,0.2,0.3,0.2c0.2,0,0.3-0.1,0.3-0.3C33.6,6.6,33.5,6.4,33.3,6.4"/>
	<path fill="#FFF" d="M34.2,6.7c0,0.2,0.1,0.3,0.3,0.3c0.2,0,0.4-0.1,0.3-0.3C34.7,6.4,34.2,6.4,34.2,6.7"/>
	<path fill="#FFF" d="M35.4,6.5C35.3,6.7,35.4,7,35.6,7c0.2,0,0.3-0.1,0.3-0.3C35.9,6.5,35.6,6.4,35.4,6.5"/>
	<path fill="#FFF" d="M27.6,6.2C27.6,6.2,27.6,6.2,27.6,6.2l0.8,0c0,0,0,0,0,0c0-0.2-0.2-0.4-0.4-0.4C27.8,5.8,27.6,6,27.6,6.2"/>
	<path fill="#FFF" d="M29.1,5.8c-0.2,0-0.3,0.2-0.3,0.4h0.7C29.6,5.9,29.4,5.8,29.1,5.8"/>
	<path fill="#FFF" d="M30.4,5.8C30.2,5.8,30,6,30,6.2c0,0,0,0,0,0h0.4c0.1,0,0.2,0,0.3,0c0,0,0,0,0,0C30.7,6,30.5,5.8,30.4,5.8"/>
	<path fill="#FFF" d="M31.5,5.8c-0.2,0-0.3,0.2-0.3,0.4c0,0,0,0.1,0,0.1c0.1,0,0.3,0.1,0.4,0.2c0.1,0,0.2-0.1,0.2-0.1C32,6.1,31.8,5.8,31.5,5.8"
		/>
	<path fill="#FFF" d="M32.4,6.2c0,0.2,0.1,0.3,0.3,0.3c0.2,0,0.4-0.1,0.4-0.3C33.1,5.7,32.4,5.7,32.4,6.2"/>
	<path fill="#FFF" d="M33.9,5.9c-0.2,0-0.4,0.1-0.3,0.3c0,0.2,0.1,0.3,0.3,0.3c0.2,0,0.3-0.1,0.4-0.3C34.2,6,34.1,5.9,33.9,5.9"/>
	<path fill="#FFF" d="M35.1,5.9c-0.2,0-0.3,0.1-0.3,0.3c0,0.2,0.1,0.3,0.3,0.3c0.2,0,0.3-0.1,0.3-0.3C35.4,6,35.2,5.9,35.1,5.9"/>
	<path fill="#FFF" d="M36.2,6.4c0,0,0.1,0,0.1,0c0-0.2-0.1-0.4-0.2-0.5C36,5.9,35.9,6,36,6.2c0,0.1,0,0.1,0,0.1C36,6.4,36.1,6.4,36.2,6.4"/>
	<path fill="#FFF" d="M28.2,5.6c0,0.2,0.1,0.3,0.3,0.4C28.8,6,29,5.8,29,5.6c0-0.2-0.2-0.4-0.4-0.4C28.4,5.2,28.2,5.4,28.2,5.6"/>
	<path fill="#FFF" d="M29.4,5.6c0,0.1,0,0.2,0.1,0.2c0.1,0.1,0.1,0.1,0.3,0.2c0.2,0,0.4-0.1,0.4-0.3c0-0.2-0.2-0.4-0.4-0.4
		C29.6,5.2,29.4,5.4,29.4,5.6"/>
	<path fill="#FFF" d="M30.6,5.6c0,0.2,0.1,0.3,0.3,0.3c0.2,0,0.3-0.1,0.3-0.1c0.1-0.1,0.1-0.1,0.1-0.2C31.2,5.1,30.6,5.2,30.6,5.6"/>
	<path fill="#FFF" d="M32.1,5.2c-0.2,0-0.3,0.2-0.3,0.3c0,0.2,0.1,0.3,0.3,0.3c0.2,0,0.4-0.1,0.4-0.3C32.5,5.4,32.3,5.2,32.1,5.2"/>
	<path fill="#FFF" d="M33.3,5.3c-0.2,0-0.4,0.2-0.3,0.4c0,0.1,0.1,0.2,0.3,0.2c0.2,0,0.3-0.1,0.3-0.3C33.6,5.4,33.5,5.3,33.3,5.3"/>
	<path fill="#FFF" d="M34.2,5.5c0,0.2,0.1,0.3,0.3,0.3c0.2,0,0.4-0.1,0.3-0.3C34.7,5.2,34.2,5.2,34.2,5.5"/>
	<path fill="#FFF" d="M35.4,5.4c-0.2,0.2-0.1,0.5,0.2,0.5c0.2,0,0.3-0.1,0.3-0.3C35.9,5.3,35.6,5.2,35.4,5.4"/>
	<path fill="#FFF" d="M27.6,5c0,0.2,0.1,0.4,0.3,0.4c0.2,0,0.4-0.2,0.4-0.4c0-0.2-0.2-0.4-0.4-0.4C27.8,4.6,27.6,4.8,27.6,5"/>
	<path fill="#FFF" d="M29.1,4.6c-0.2,0-0.3,0.2-0.3,0.4c0,0.2,0.1,0.3,0.3,0.3c0.1,0,0.2,0,0.2,0c0.1,0,0.2-0.2,0.2-0.3
		C29.6,4.8,29.4,4.6,29.1,4.6"/>
	<path fill="#FFF" d="M30.4,4.6C30.2,4.6,30,4.8,30,5c0,0.2,0.1,0.3,0.3,0.4c0.2,0,0.4-0.1,0.4-0.3C30.7,4.8,30.5,4.6,30.4,4.6"/>
	<path fill="#FFF" d="M31.5,4.7c-0.2,0-0.3,0.2-0.3,0.4c0,0.2,0.1,0.3,0.3,0.3c0.2,0,0.3-0.1,0.3-0.1C32,4.9,31.8,4.6,31.5,4.7"/>
	<path fill="#FFF" d="M32.4,5c0,0.2,0.1,0.3,0.3,0.3C32.9,5.3,33,5.2,33,5C33.1,4.6,32.4,4.6,32.4,5"/>
	<path fill="#FFF" d="M33.9,4.7c-0.2,0-0.4,0.1-0.3,0.3c0,0.2,0.1,0.3,0.3,0.3c0.2,0,0.3-0.1,0.4-0.3C34.2,4.8,34.1,4.7,33.9,4.7"/>
	<path fill="#FFF" d="M35.1,4.7c-0.2,0-0.3,0.1-0.3,0.3c0,0.2,0.1,0.3,0.3,0.3c0.2,0,0.3-0.1,0.3-0.3C35.4,4.8,35.2,4.7,35.1,4.7"/>
	<path fill="#FFF" d="M28.2,4.4c0,0.2,0.1,0.4,0.3,0.4c0.2,0,0.4-0.2,0.4-0.4C29,4.2,28.8,4,28.6,4C28.4,4,28.2,4.2,28.2,4.4"/>
	<path fill="#FFF" d="M29.4,4.4c0,0.1,0,0.1,0.1,0.2c0.1,0.1,0.1,0.1,0.3,0.2c0.2,0,0.4-0.1,0.4-0.3C30.2,4.2,30,4,29.7,4
		C29.6,4.1,29.4,4.2,29.4,4.4"/>
	<path fill="#FFF" d="M30.6,4.4c0,0.2,0.1,0.3,0.3,0.3c0.2,0,0.3-0.1,0.3-0.1c0.1-0.1,0.1-0.1,0.1-0.2C31.2,3.9,30.6,4,30.6,4.4"/>
	<path fill="#FFF" d="M32.1,4.1c-0.2,0-0.3,0.1-0.3,0.3c0,0.2,0.1,0.3,0.3,0.3c0.2,0,0.4-0.1,0.4-0.3C32.5,4.2,32.3,4.1,32.1,4.1"/>
	<path fill="#FFF" d="M33.3,4.1c-0.2,0-0.4,0.2-0.3,0.4c0,0.1,0.1,0.2,0.3,0.2c0.2,0,0.3-0.1,0.3-0.3C33.6,4.2,33.5,4.1,33.3,4.1"/>
	<path fill="#FFF" d="M34.4,4.7c0.2,0,0.4-0.1,0.3-0.3c0-0.4-0.6-0.3-0.6,0C34.2,4.5,34.3,4.7,34.4,4.7"/>
	<path fill="#FFF" d="M28,3.4c-0.2,0-0.4,0.2-0.4,0.4c0,0.2,0.1,0.4,0.3,0.4c0.2,0,0.4-0.2,0.4-0.4C28.4,3.6,28.2,3.4,28,3.4"/>
	<path fill="#FFF" d="M29.1,3.5c-0.2,0-0.3,0.2-0.3,0.4c0,0.2,0.1,0.3,0.3,0.3c0.1,0,0.2,0,0.2,0c0.1,0,0.2-0.2,0.2-0.3
		C29.6,3.6,29.4,3.4,29.1,3.5"/>
	<path fill="#FFF" d="M30.4,3.5c-0.2,0-0.4,0.2-0.4,0.3c0,0.2,0.1,0.3,0.3,0.4c0.2,0,0.4-0.1,0.4-0.3C30.7,3.6,30.5,3.5,30.4,3.5"/>
	<path fill="#FFF" d="M31.5,3.5c-0.2,0-0.3,0.2-0.3,0.4c0,0.2,0.1,0.3,0.3,0.3c0.2,0,0.3-0.1,0.3-0.1C32,3.8,31.8,3.5,31.5,3.5"/>
	<path fill="#FFF" d="M32.4,3.8c0,0.2,0.1,0.3,0.3,0.3C32.9,4.2,33,4,33,3.8C33.1,3.4,32.4,3.4,32.4,3.8"/>
	<path fill="#FFF" d="M33.8,4.1c0.2,0,0.3-0.1,0.4-0.3c0-0.2-0.1-0.3-0.3-0.3c-0.2,0-0.4,0.1-0.3,0.3C33.6,4,33.7,4.1,33.8,4.1"/>
	<path fill="#FFF" d="M28.2,3.2c0,0.2,0.1,0.4,0.3,0.4c0.2,0,0.4-0.2,0.4-0.4c0-0.2-0.2-0.4-0.4-0.4C28.4,2.9,28.2,3,28.2,3.2"/>
	<path fill="#FFF" d="M29.4,3.2c0,0.1,0,0.2,0.1,0.2c0.1,0.1,0.1,0.1,0.3,0.2c0.2,0,0.4-0.1,0.4-0.3c0-0.2-0.2-0.4-0.4-0.4
		C29.6,2.9,29.4,3,29.4,3.2"/>
	<path fill="#FFF" d="M30.6,3.3c0,0.2,0.1,0.3,0.3,0.3c0.2,0,0.3-0.1,0.3-0.1c0.1-0.1,0.1-0.1,0.1-0.2C31.2,2.7,30.6,2.8,30.6,3.3"/>
	<path fill="#FFF" d="M32.1,3.6c0.2,0,0.4-0.1,0.4-0.3c0-0.2-0.2-0.3-0.3-0.3c-0.2,0-0.3,0.1-0.3,0.3C31.8,3.4,31.9,3.5,32.1,3.6"/>
	<path fill="#FFF" d="M33.3,3.5c0.2,0,0.3-0.1,0.3-0.3c0,0,0,0,0,0C33.4,3.1,33.3,3,33.1,3C33,3.1,33,3.2,33,3.3C33,3.4,33.1,3.5,33.3,3.5"/>
	<path fill="#FFF" d="M28,3c0.2,0,0.4-0.1,0.4-0.3h-0.6h-0.1C27.7,2.9,27.8,3,28,3"/>
	<path fill="#FFF" d="M29.1,3c0.1,0,0.2,0,0.2,0c0.1,0,0.2-0.2,0.2-0.3c0,0,0,0,0,0h-0.7c0,0,0,0,0,0C28.8,2.8,29,3,29.1,3"/>
	<path fill="#FFF" d="M30.3,3c0.2,0,0.4-0.1,0.4-0.3H30C30,2.8,30.2,3,30.3,3"/>
	<path fill="#FFF" d="M31.5,3c0.2,0,0.3-0.1,0.3-0.1c0,0,0-0.1,0.1-0.1c-0.2,0-0.4,0-0.7,0v0C31.2,2.8,31.3,3,31.5,3"/>
	<path fill="#FFF" d="M32.7,3c0.1,0,0.2,0,0.2,0c-0.1,0-0.3-0.1-0.5-0.1C32.5,2.9,32.6,2.9,32.7,3"/>
	<path fill="#FFF" d="M28,12.8c-0.2,0-0.3,0.1-0.3,0.2h0.7C28.3,12.9,28.2,12.8,28,12.8"/>
	<path fill="#FFF" d="M29.1,12.8c-0.1,0-0.2,0.1-0.3,0.2h0.7C29.4,12.9,29.3,12.8,29.1,12.8"/>
	<path fill="#FFF" d="M30.4,12.9c-0.1,0-0.3,0.1-0.3,0.2h0.6C30.6,12.9,30.5,12.9,30.4,12.9"/>
	<path fill="#FFF" d="M31.5,12.9c-0.1,0-0.2,0.1-0.3,0.2c0.2,0,0.4,0,0.6,0C31.7,12.9,31.6,12.9,31.5,12.9"/>
	<path fill="#FFF" d="M27.8,12.6c0-0.2-0.2-0.4-0.4-0.4c-0.1,0-0.1,0-0.2,0.1v-0.5c0,0,0.1,0,0.2,0.1c0.2,0,0.4-0.2,0.4-0.4
		c0-0.2-0.2-0.4-0.4-0.4c-0.1,0-0.1,0-0.2,0.1v-0.5c0,0,0.1,0.1,0.2,0.1c0.1,0,0.1,0,0.2,0c0.1-0.1,0.2-0.2,0.2-0.4
		c0-0.2-0.2-0.4-0.4-0.4c-0.1,0-0.1,0-0.2,0.1v-4c0,0,0.1,0,0.2,0.1c0.2,0,0.4-0.2,0.4-0.4c0-0.2-0.2-0.4-0.4-0.4
		c-0.1,0-0.1,0-0.2,0.1V4.7c0,0,0.1,0,0.2,0.1c0.2,0,0.4-0.2,0.4-0.4c0-0.2-0.2-0.4-0.4-0.4c-0.1,0-0.1,0-0.2,0.1V3.6
		c0,0,0.1,0,0.2,0.1c0.2,0,0.4-0.2,0.4-0.4c0-0.2-0.2-0.4-0.4-0.4c-0.1,0-0.1,0-0.2,0.1V2.7h-4v0.2c-0.2,0-0.4,0.2-0.4,0.4
		c0,0.2,0.2,0.4,0.4,0.4V4c-0.2,0-0.4,0.2-0.4,0.4c0,0.2,0.2,0.4,0.4,0.4v0.4c-0.2,0-0.4,0.2-0.4,0.4C22.8,5.8,23,6,23.2,6v12.4h4
		v-5.4c0,0,0.1,0,0.2,0.1C27.6,13,27.8,12.8,27.8,12.6"/>
	<path fill="#FFF" d="M28.6,12.3c-0.2,0-0.4,0.2-0.4,0.4c0,0.2,0.1,0.3,0.3,0.4c0.2,0,0.4-0.2,0.4-0.4C29,12.4,28.8,12.3,28.6,12.3"/>
	<path fill="#FFF" d="M29.7,12.3c-0.2,0-0.3,0.2-0.3,0.4c0,0.1,0,0.2,0.1,0.2c0.1,0.1,0.1,0.1,0.3,0.2c0.2,0,0.4-0.1,0.4-0.3
		C30.2,12.4,30,12.2,29.7,12.3"/>
	<path fill="#FFF" d="M30.6,12.7c0,0.2,0.1,0.3,0.3,0.3c0.2,0,0.3-0.1,0.3-0.1c0.1-0.1,0.1-0.1,0.1-0.2C31.2,12.1,30.6,12.2,30.6,12.7"/>
	<path fill="#FFF" d="M32.1,12.3c-0.2,0-0.3,0.1-0.3,0.3c0,0.2,0.1,0.3,0.3,0.3c0.2,0,0.4-0.1,0.4-0.3C32.5,12.4,32.3,12.3,32.1,12.3"/>
	<path fill="#FFF" d="M33.3,12.3c-0.2,0-0.4,0.2-0.3,0.4c0,0,0,0,0,0.1c0.2-0.1,0.4-0.1,0.6-0.2C33.6,12.4,33.4,12.3,33.3,12.3"/>
	<path fill="#FFF" d="M27.6,12c0,0.2,0.1,0.4,0.3,0.4c0.2,0,0.4-0.2,0.4-0.4c0-0.2-0.2-0.4-0.4-0.4C27.8,11.7,27.6,11.8,27.6,12"/>
	<path fill="#FFF" d="M29.1,12.4c0.1,0,0.2,0,0.2,0c0.1,0,0.2-0.2,0.2-0.3c0-0.3-0.2-0.4-0.4-0.4c-0.2,0-0.3,0.2-0.3,0.4
		C28.8,12.2,29,12.4,29.1,12.4"/>
	<path fill="#FFF" d="M30.3,12.4c0.2,0,0.4-0.1,0.4-0.3c0-0.2-0.2-0.4-0.3-0.4c-0.2,0-0.4,0.2-0.4,0.3C30,12.2,30.1,12.4,30.3,12.4"/>
	<path fill="#FFF" d="M31.5,12.4c0.2,0,0.3-0.1,0.3-0.1c0.2-0.2,0-0.6-0.3-0.5c-0.2,0-0.3,0.2-0.3,0.4C31.2,12.2,31.3,12.3,31.5,12.4"/>
	<path fill="#FFF" d="M32.4,12.1c0,0.2,0.1,0.3,0.3,0.3c0.2,0,0.4-0.1,0.4-0.3C33.1,11.6,32.4,11.6,32.4,12.1"/>
	<path fill="#FFF" d="M33.9,11.7c-0.2,0-0.4,0.1-0.3,0.3c0,0.2,0.1,0.3,0.3,0.3c0.2,0,0.3-0.1,0.4-0.3C34.2,11.9,34.1,11.7,33.9,11.7"/>
	<path fill="#FFF" d="M29,11.4c0-0.2-0.2-0.4-0.4-0.4c-0.2,0-0.4,0.2-0.4,0.4c0,0.2,0.1,0.4,0.3,0.4C28.8,11.8,29,11.7,29,11.4"/>
	<path fill="#FFF" d="M30.1,11.5c0-0.2-0.2-0.4-0.4-0.4c-0.2,0-0.3,0.2-0.3,0.4c0,0.1,0,0.2,0.1,0.2c0.1,0.1,0.1,0.1,0.3,0.2
		C29.9,11.8,30.1,11.7,30.1,11.5"/>
	<path fill="#FFF" d="M31.2,11.6c0.1-0.1,0.1-0.1,0.1-0.2c0-0.4-0.7-0.4-0.7,0.1c0,0.2,0.1,0.3,0.3,0.3C31.1,11.8,31.2,11.7,31.2,11.6"/>
	<path fill="#FFF" d="M32.1,11.8c0.2,0,0.4-0.1,0.4-0.3c0-0.2-0.2-0.3-0.3-0.3c-0.2,0-0.3,0.2-0.3,0.3C31.8,11.6,31.9,11.8,32.1,11.8"/>
	<path fill="#FFF" d="M33.3,11.8c0.2,0,0.3-0.1,0.3-0.3c0-0.2-0.2-0.3-0.3-0.3c-0.2,0-0.4,0.2-0.3,0.4C33,11.7,33.1,11.8,33.3,11.8"/>
	<path fill="#FFF" d="M34.2,11.4c0,0.2,0.1,0.3,0.3,0.3c0.2,0,0.4-0.1,0.3-0.3C34.7,11.1,34.2,11.1,34.2,11.4"/>
	<path fill="#FFF" d="M27.6,10.9c0,0.2,0.1,0.4,0.3,0.4c0.2,0,0.3-0.1,0.4-0.2h0c0,0,0,0,0,0c0,0,0-0.1,0-0.2c0-0.2-0.2-0.4-0.4-0.4
		C27.8,10.5,27.6,10.7,27.6,10.9"/>
	<path fill="#FFF" d="M29.1,11.2c0.1,0,0.2,0,0.2,0c0.1,0,0.2-0.2,0.2-0.3c0-0.3-0.2-0.4-0.4-0.4c-0.2,0-0.3,0.2-0.3,0.4
		C28.8,11.1,29,11.2,29.1,11.2"/>
	<path fill="#FFF" d="M30.3,11.2c0.2,0,0.4-0.1,0.4-0.3c0-0.2-0.2-0.4-0.3-0.4c-0.2,0-0.4,0.2-0.4,0.3C30,11.1,30.1,11.2,30.3,11.2"/>
	<path fill="#FFF" d="M31.5,11.2c0.2,0,0.3-0.1,0.3-0.1c0.2-0.2,0-0.6-0.3-0.5c-0.2,0-0.3,0.2-0.3,0.4C31.2,11.1,31.3,11.2,31.5,11.2"/>
	<path fill="#FFF" d="M32.7,11.2c0.1,0,0.3-0.1,0.3-0.2h0c0,0,0,0,0,0c0,0,0-0.1,0-0.1c0-0.2-0.1-0.3-0.2-0.3c0,0-0.1,0-0.1,0c0,0-0.1,0-0.1,0
		c-0.1,0-0.2,0.1-0.2,0.3c0,0,0,0,0,0c0,0,0,0,0,0C32.4,11.1,32.5,11.2,32.7,11.2"/>
	<path fill="#FFF" d="M33.8,11.2c0.2,0,0.3-0.1,0.4-0.3c0-0.2-0.1-0.3-0.3-0.3c-0.2,0-0.3,0.1-0.3,0.3c0,0,0,0,0,0v0c0,0,0,0,0,0c0,0,0,0,0,0
		C33.6,11.1,33.7,11.1,33.8,11.2"/>
	<path fill="#FFF" d="M27.9,10c0,0,0.1,0,0.1,0c0,0,0,0,0,0c0,0,0.1,0,0.1,0c0,0,0.1,0,0.1,0c0,0,0,0,0,0c0.1-0.1,0.2-0.2,0.2-0.3
		c0-0.1,0-0.1,0-0.2h-0.7c0,0,0,0.1,0,0.2C27.6,9.9,27.7,10,27.9,10"/>
	<path fill="#FFF"  d="M30.5,20.9l-3,8.6l-0.2-0.6c0,0,0,0-0.1,0c-0.2,0-0.4,0.2-0.4,0.4
		c0,0.2,0.2,0.4,0.4,0.4c0.1,0,0.2,0,0.2-0.1v0.6c-0.1-0.1-0.3-0.1-0.4-0.1c-0.3,0.1-0.3,0.6,0,0.7c0.2,0.1,0.3,0,0.4-0.1v0.6
		c-0.1-0.1-0.2-0.1-0.3-0.1c-0.2,0-0.4,0.2-0.3,0.5c0,0.2,0.2,0.4,0.5,0.3c0.1,0,0.1,0,0.2-0.1v0.5c-0.1-0.1-0.1-0.1-0.2-0.1
		c-0.3,0-0.4,0.2-0.4,0.4c0,0.2,0.2,0.4,0.4,0.4c0.1,0,0.2,0,0.2-0.1v0.5c-0.1,0-0.1-0.1-0.2-0.1c-0.3,0-0.5,0.4-0.3,0.7
		c-0.1-0.1-0.4-0.1-0.5,0c0.1-0.1,0.1-0.4,0-0.5c0.3,0.2,0.7,0,0.7-0.3c0-0.2-0.2-0.4-0.4-0.4c-0.2,0-0.4,0.2-0.4,0.4
		c0,0.1,0,0.2,0.1,0.3c-0.1,0-0.2-0.1-0.3-0.1c-0.3,0-0.5,0.2-0.4,0.5l0,0.1c0,0,0,0,0,0c0,0,0,0,0,0l0.2,0.5c0-0.1,0-0.3-0.1-0.4
		c0.1,0.1,0.4,0.1,0.5,0c-0.1,0.1-0.1,0.4,0,0.5c-0.1-0.1-0.3-0.1-0.4,0l0.2,0.6l0.1,0.3v0l0.1,0.2l0.2,0.7h0h0.4h0.4h0.2h0h1.1
		l3.1-9.5v9.5h4V20.9H30.5z M26.9,35.4c-0.1-0.1-0.3-0.1-0.4,0c0.1-0.1,0.1-0.3,0-0.4c0.1,0.1,0.4,0.1,0.4,0
		C26.8,35.1,26.8,35.3,26.9,35.4 M27.5,36c-0.1,0-0.2,0-0.2,0c-0.1,0-0.1,0-0.2,0c0.1-0.1,0-0.3,0-0.4c0.1,0.1,0.3,0.1,0.4,0
		C27.4,35.7,27.4,35.9,27.5,36 M27.5,34.8c-0.1-0.1-0.4-0.1-0.5,0c0.1-0.1,0.1-0.4,0-0.5c0.1,0.1,0.4,0.1,0.5,0v0
		C27.4,34.5,27.4,34.7,27.5,34.8"/>
	<path fill="#FFF"  d="M27.1,28.5L27,27.9c0,0.1-0.1,0.2-0.1,0.2C26.9,28.3,27,28.5,27.1,28.5"/>
	<path fill="#FFF"  d="M27.1,32.3c0-0.2-0.2-0.4-0.4-0.4c-0.2,0-0.4,0.2-0.4,0.4c0,0.2,0.2,0.4,0.4,0.4
		C26.9,32.7,27.1,32.5,27.1,32.3"/>
	<path fill="#FFF"  d="M27.1,31.1c0-0.2-0.1-0.4-0.3-0.4c-0.3,0-0.4,0.2-0.4,0.3c0,0.3,0.2,0.5,0.4,0.4
		C26.9,31.5,27,31.3,27.1,31.1"/>
	<path fill="#FFF"  d="M27,29.9c0-0.2-0.2-0.4-0.4-0.4c-0.2,0-0.4,0.2-0.4,0.4c0,0.2,0.2,0.4,0.4,0.4
		C26.9,30.3,27,30.1,27,29.9"/>
	<path fill="#FFF"  d="M27,28.8c0-0.2-0.2-0.4-0.4-0.4c-0.2,0-0.4,0.2-0.4,0.4c0,0.2,0.2,0.4,0.4,0.4
		C26.9,29.1,27,29,27,28.8"/>
	<path fill="#FFF"  d="M26.3,27.6c0,0.2,0.2,0.3,0.4,0.3c0.1,0,0.2,0,0.2-0.1c0,0,0,0,0,0l-0.2-0.6
		C26.5,27.2,26.3,27.4,26.3,27.6"/>
	<path fill="#FFF"  d="M26.5,26.7l-0.2-0.5C26.3,26.4,26.3,26.6,26.5,26.7"/>
	<path fill="#FFF"  d="M25.7,32.8c0,0.2,0.2,0.4,0.4,0.4c0.2,0,0.4-0.2,0.4-0.4c0-0.2-0.2-0.4-0.4-0.4
		C25.8,32.4,25.7,32.6,25.7,32.8"/>
	<path fill="#FFF"  d="M26.1,32.1c0.2,0,0.3-0.2,0.3-0.3c0-0.3-0.2-0.5-0.4-0.5c-0.2,0-0.4,0.2-0.3,0.5
		C25.7,31.9,25.9,32.1,26.1,32.1"/>
	<path fill="#FFF"  d="M25.9,30.8c0.3,0.1,0.5-0.1,0.6-0.3c0-0.3-0.3-0.5-0.6-0.4
		C25.6,30.3,25.6,30.7,25.9,30.8"/>
	<path fill="#FFF"  d="M26.5,29.3c0-0.2-0.2-0.4-0.4-0.4c-0.2,0-0.4,0.2-0.4,0.4c0,0.2,0.2,0.4,0.4,0.4
		C26.3,29.7,26.4,29.5,26.5,29.3"/>
	<path fill="#FFF"  d="M26.4,28.2c0-0.1,0-0.2,0-0.2c0-0.1-0.2-0.2-0.3-0.2c-0.3,0-0.4,0.2-0.4,0.4
		c0,0.2,0.2,0.3,0.4,0.3C26.3,28.5,26.4,28.4,26.4,28.2"/>
	<path fill="#FFF"  d="M26.4,27c0-0.2-0.1-0.4-0.3-0.4c-0.2,0-0.4,0.2-0.4,0.3c0,0.2,0.2,0.4,0.3,0.4
		C26.3,27.3,26.4,27.2,26.4,27"/>
	<path fill="#FFF"  d="M26.1,26.1c0.1,0,0.1,0,0.2-0.1l-0.2-0.6c-0.2,0-0.4,0.2-0.3,0.4
		C25.8,26,25.9,26.1,26.1,26.1"/>
	<path fill="#FFF"  d="M25.9,32.3c0-0.2-0.2-0.4-0.4-0.4c-0.3,0-0.4,0.2-0.4,0.4c0,0,0,0.1,0,0.1l0,0.1
		c0.1,0.1,0.2,0.2,0.4,0.2C25.7,32.7,25.9,32.5,25.9,32.3"/>
	<path fill="#FFF"  d="M25.1,31c0,0.3,0.2,0.5,0.4,0.4c0.2,0,0.3-0.2,0.3-0.3c0-0.2-0.1-0.4-0.3-0.4
		C25.3,30.7,25.1,30.8,25.1,31"/>
	<path fill="#FFF"  d="M25.5,30.3c0.2,0,0.3-0.2,0.4-0.3c0-0.2-0.2-0.4-0.4-0.4c-0.2,0-0.4,0.2-0.4,0.4
		C25.1,30.1,25.3,30.3,25.5,30.3"/>
	<path fill="#FFF"  d="M25.1,28.7c0,0.2,0.2,0.4,0.4,0.4c0.2,0,0.4-0.1,0.4-0.3c0-0.2-0.2-0.4-0.4-0.4
		C25.3,28.4,25.1,28.5,25.1,28.7"/>
	<path fill="#FFF"  d="M25.5,27.9c0.1,0,0.2,0,0.2-0.1c0.1-0.1,0.1-0.1,0.2-0.3c0-0.2-0.1-0.4-0.3-0.4
		c-0.2,0-0.4,0.2-0.4,0.4C25.2,27.8,25.3,27.9,25.5,27.9"/>
	<path fill="#FFF"  d="M25.7,26.1C25.6,26,25.5,26,25.5,26c-0.4,0-0.4,0.7,0.1,0.7
		c0.2,0,0.3-0.1,0.3-0.3C25.9,26.3,25.8,26.1,25.7,26.1"/>
	<path fill="#FFF"  d="M25.2,25.2c0,0.2,0.1,0.3,0.3,0.3c0.2,0,0.3-0.1,0.3-0.3c0-0.2-0.1-0.4-0.3-0.4
		C25.3,24.9,25.2,25,25.2,25.2"/>
	<path fill="#FFF"  d="M25.6,24.3c0,0,0.1,0,0.1-0.1l-0.2-0.6c-0.2,0-0.3,0.2-0.3,0.3
		C25.2,24.2,25.4,24.4,25.6,24.3"/>
	<path fill="#FFF"  d="M25.3,31.7c0-0.3-0.2-0.5-0.4-0.5c0,0-0.1,0-0.1,0l0.2,0.8
		C25.2,32,25.3,31.9,25.3,31.7"/>
	<path fill="#FFF"  d="M25.3,30.5c0-0.3-0.3-0.5-0.6-0.4c-0.3,0.1-0.3,0.6,0,0.7
		C25,31,25.3,30.8,25.3,30.5"/>
	<path fill="#FFF"  d="M24.5,29.3c0,0.2,0.2,0.4,0.4,0.4c0.2,0,0.4-0.1,0.4-0.3c0-0.2-0.2-0.4-0.4-0.4
		C24.7,28.9,24.5,29.1,24.5,29.3"/>
	<path fill="#FFF"  d="M24.9,28.5c0.2,0,0.3-0.1,0.3-0.3c0-0.1,0-0.2,0-0.2c0-0.1-0.2-0.2-0.3-0.2
		c-0.3,0-0.4,0.2-0.4,0.4C24.6,28.4,24.7,28.5,24.9,28.5"/>
	<path fill="#FFF"  d="M24.9,26.6c-0.2,0-0.4,0.2-0.4,0.3c0,0.2,0.2,0.4,0.3,0.4c0.2,0,0.3-0.1,0.4-0.3
		C25.3,26.8,25.1,26.6,24.9,26.6"/>
	<path fill="#FFF"  d="M25.1,25.5c-0.2-0.2-0.6,0-0.5,0.3c0,0.2,0.2,0.3,0.4,0.3c0.2,0,0.3-0.1,0.3-0.3
		C25.3,25.7,25.2,25.6,25.1,25.5"/>
	<path fill="#FFF"  d="M24.9,24.3c-0.5,0-0.5,0.7,0,0.6c0.2,0,0.3-0.1,0.3-0.3
		C25.3,24.4,25.1,24.3,24.9,24.3"/>
	<path fill="#FFF"  d="M24.6,23.4c0,0.2,0.1,0.4,0.3,0.3c0.2,0,0.3-0.1,0.3-0.3c0-0.2-0.1-0.3-0.3-0.4
		C24.7,23.1,24.6,23.3,24.6,23.4"/>
	<path fill="#FFF"  d="M24.9,22.6c0.1,0,0.1,0,0.2,0L24.9,22c-0.2,0-0.3,0.2-0.3,0.3
		C24.6,22.4,24.7,22.6,24.9,22.6"/>
	<path fill="#FFF"  d="M24.7,29.9c0-0.2-0.2-0.4-0.4-0.4c0,0-0.1,0-0.1,0l0.2,0.7
		C24.6,30.2,24.7,30.1,24.7,29.9"/>
	<path fill="#FFF"  d="M24.7,28.8c0-0.2-0.2-0.4-0.4-0.4c-0.2,0-0.4,0.2-0.4,0.4c0,0.2,0.2,0.4,0.4,0.4
		C24.5,29.1,24.7,29,24.7,28.8"/>
	<path fill="#FFF"  d="M24,27.6c0,0.2,0.2,0.3,0.4,0.3c0.1,0,0.2,0,0.2-0.1c0.1-0.1,0.1-0.1,0.2-0.3
		c0-0.2-0.1-0.4-0.3-0.4C24.1,27.2,23.9,27.4,24,27.6"/>
	<path fill="#FFF"  d="M24.4,26.7c0.2,0,0.3-0.1,0.3-0.3c0-0.2-0.1-0.3-0.1-0.3C24.4,26,24.4,26,24.3,26
		C23.8,26.1,23.9,26.8,24.4,26.7"/>
	<path fill="#FFF"  d="M24.3,24.9c-0.2,0-0.3,0.2-0.3,0.3c0,0.2,0.2,0.3,0.3,0.3c0.2,0,0.3-0.1,0.3-0.3
		C24.7,25,24.5,24.9,24.3,24.9"/>
	<path fill="#FFF"  d="M24.3,23.7c-0.2,0-0.3,0.2-0.3,0.3c0,0.2,0.2,0.4,0.4,0.3c0.1,0,0.2-0.1,0.2-0.3
		C24.6,23.9,24.5,23.7,24.3,23.7"/>
	<path fill="#FFF"  d="M24.3,22.6c-0.4,0-0.3,0.6,0,0.6c0.2,0,0.3-0.1,0.3-0.3
		C24.6,22.7,24.5,22.5,24.3,22.6"/>
	<path fill="#FFF"  d="M24.6,21.7c0-0.2-0.1-0.3-0.3-0.3c-0.3,0-0.4,0.3-0.2,0.5
		C24.3,22.1,24.6,21.9,24.6,21.7"/>
	<path fill="#FFF"  d="M24.1,28.2c0-0.1,0-0.2,0-0.2c0-0.1-0.2-0.2-0.3-0.2c-0.1,0-0.1,0-0.2,0l0.2,0.7
		C24,28.5,24.1,28.3,24.1,28.2"/>
	<path fill="#FFF"  d="M24.1,27c0-0.2-0.1-0.4-0.3-0.4c-0.2,0-0.4,0.2-0.4,0.3c0,0.2,0.2,0.4,0.3,0.4
		C23.9,27.3,24.1,27.2,24.1,27"/>
	<path fill="#FFF"  d="M23.8,26.1c0.2,0,0.3-0.1,0.3-0.3c0-0.2-0.1-0.3-0.1-0.3c-0.2-0.2-0.6,0-0.5,0.3
		C23.4,26,23.6,26.1,23.8,26.1"/>
	<path fill="#FFF"  d="M23.8,24.9c0.2,0,0.3-0.1,0.3-0.3c0-0.2-0.1-0.4-0.3-0.4
		C23.3,24.3,23.3,25,23.8,24.9"/>
	<path fill="#FFF"  d="M23.8,23.1c-0.2,0-0.3,0.1-0.3,0.3c0,0.2,0.1,0.4,0.3,0.3c0.2,0,0.3-0.1,0.3-0.3
		C24.1,23.3,23.9,23.2,23.8,23.1"/>
	<path fill="#FFF"  d="M23.7,22.6c0.2,0,0.3-0.1,0.3-0.3c0-0.2-0.1-0.3-0.3-0.3c-0.2,0-0.3,0.1-0.3,0.3
		C23.4,22.4,23.6,22.6,23.7,22.6"/>
	<path fill="#FFF"  d="M23.8,21.4c0.1,0,0.1,0,0.1,0c0.1,0,0.1-0.1,0.1-0.2c0-0.1,0-0.2-0.1-0.2h-0.4
		C23.4,21.1,23.5,21.4,23.8,21.4"/>
	<path fill="#FFF"  d="M23.5,26.4c0-0.2-0.1-0.3-0.1-0.3c0,0,0,0,0,0v-0.6c0.1-0.1,0.1-0.1,0.1-0.2
		c0-0.1,0-0.2-0.1-0.3v-0.7c0.1-0.1,0.1-0.1,0.1-0.2c0-0.1,0-0.2-0.1-0.3v-0.7c0.1,0,0.1-0.1,0.1-0.2c0-0.1,0-0.2-0.1-0.3v-0.7
		c0,0,0.1-0.1,0.1-0.2c0-0.1,0-0.2-0.1-0.2v-0.6h-4V33H9.5v-2.6h6.8v-3.5H9.5v-2.4h0.3c0,0,0-0.1,0-0.1c0-0.2-0.2-0.4-0.5-0.3
		c-0.1,0-0.1,0-0.2,0.1v0h0c0.1-0.1,0.1-0.2,0.1-0.3c0-0.2-0.2-0.4-0.4-0.4c-0.2,0-0.4,0.2-0.4,0.4c0,0.1,0,0.2,0.1,0.3h0
		C8.4,24.1,8.3,24,8.2,24c-0.1,0-0.2,0-0.3,0.1h0C8,24.1,8,24,8,23.9c0-0.2-0.2-0.4-0.4-0.4c-0.1,0-0.2,0-0.3,0.1
		c0-0.1,0.1-0.2,0.1-0.3c0-0.3-0.3-0.5-0.6-0.4c0,0-0.1,0-0.1,0.1c0.1-0.1,0.1-0.4,0-0.5c0.1,0.1,0.4,0.1,0.5,0
		c-0.1,0.1-0.1,0.1-0.1,0.3c0,0.3,0.2,0.4,0.4,0.4c0.2,0,0.4-0.2,0.4-0.4c0-0.3-0.4-0.5-0.7-0.3c0-0.1,0.1-0.2,0.1-0.3
		c0-0.3-0.4-0.5-0.7-0.3c0.1-0.1,0.1-0.4,0-0.5c0.1,0.1,0.4,0.1,0.5,0c-0.1,0.1-0.1,0.1-0.1,0.3c0,0.2,0.2,0.4,0.4,0.4
		c0.2,0,0.4-0.2,0.4-0.4c0-0.3-0.4-0.5-0.7-0.3c0-0.1,0.1-0.1,0.1-0.2H6.6c0,0.1,0,0.2,0.1,0.2c-0.1-0.1-0.4-0.1-0.5,0
		c0,0,0.1-0.1,0.1-0.2H5.5v15.6h17.9v-9.9C23.4,26.6,23.5,26.5,23.5,26.4 M6.1,24.1C6,24,5.8,24,5.7,24.1c0.1-0.1,0.1-0.3,0-0.4
		c0.1,0.1,0.3,0.1,0.4,0C6,23.7,6,24,6.1,24.1 M6.1,22.9c-0.1-0.1-0.3-0.1-0.4,0c0.1-0.1,0.1-0.3,0-0.4c0.1,0.1,0.3,0.1,0.4,0
		C6,22.6,6,22.8,6.1,22.9 M6.1,21.7c-0.1-0.1-0.3-0.1-0.4,0c0.1-0.1,0.1-0.3,0-0.4c0.1,0.1,0.3,0.1,0.4,0C6,21.4,6,21.6,6.1,21.7
		 M6.7,23.5c-0.1-0.1-0.4-0.1-0.5,0c0.1-0.1,0.1-0.4,0-0.5c0.1,0.1,0.4,0.1,0.5,0C6.6,23.1,6.6,23.4,6.7,23.5 M6.7,22.4
		c-0.1-0.1-0.4-0.1-0.5,0c0.1-0.1,0.1-0.4,0-0.5c0.1,0.1,0.4,0.1,0.5,0C6.6,22,6.6,22.2,6.7,22.4 M7.3,24.2C7.2,24,7,24,6.8,24.1
		c0.1-0.1,0.1-0.4,0-0.5c0.1,0.1,0.4,0.1,0.5,0C7.2,23.8,7.2,24,7.3,24.2L7.3,24.2z"/>
	<path fill="#FFF"  d="M25.9,33.4c0-0.2-0.2-0.4-0.4-0.4c-0.1,0-0.1,0-0.2,0l0.3,0.8
		C25.8,33.8,25.9,33.6,25.9,33.4"/>
	<path fill="#FFF"  d="M10.9,24.3c-0.1-0.3-0.6-0.3-0.7,0c0,0.1,0,0.1,0,0.2H11
		C11,24.4,11,24.3,10.9,24.3"/>
	<path fill="#FFF"  d="M12.1,24.5C12.1,24.5,12.1,24.5,12.1,24.5c0-0.3-0.2-0.4-0.4-0.4
		c-0.2,0-0.4,0.2-0.4,0.4c0,0,0,0,0,0H12.1z"/>
	<path fill="#FFF"  d="M12.9,24.1c-0.2,0-0.3,0.2-0.3,0.4h0.7C13.3,24.2,13.1,24.1,12.9,24.1"/>
	<path fill="#FFF"  d="M14.4,24.5C14.4,24.5,14.4,24.5,14.4,24.5c0-0.2-0.2-0.4-0.3-0.4
		c-0.2,0-0.4,0.2-0.4,0.3c0,0,0,0,0,0H14.4z"/>
	<path fill="#FFF"  d="M15.2,24.1c-0.2,0-0.3,0.2-0.3,0.4h0.7C15.6,24.3,15.5,24.1,15.2,24.1"/>
	<path fill="#FFF"  d="M16.5,24.5v-0.3c-0.2,0-0.4,0.1-0.4,0.3c0,0,0,0,0,0H16.5z"/>
	<path fill="#FFF"  d="M9.9,24.2c0.2,0,0.4-0.1,0.4-0.3c0-0.3-0.2-0.4-0.3-0.4c-0.3,0-0.5,0.2-0.4,0.4
		C9.6,24.1,9.8,24.2,9.9,24.2"/>
	<path fill="#FFF"  d="M11.5,23.8c0-0.2-0.2-0.4-0.4-0.4c-0.2,0-0.4,0.2-0.4,0.4c0,0.2,0.2,0.3,0.3,0.4
		C11.4,24.3,11.6,24.1,11.5,23.8"/>
	<path fill="#FFF"  d="M12.7,23.9c0-0.2-0.2-0.4-0.4-0.4c-0.2,0-0.4,0.2-0.4,0.4c0,0.2,0.2,0.4,0.3,0.4
		C12.5,24.2,12.7,24.1,12.7,23.9"/>
	<path fill="#FFF"  d="M13.9,23.9c0-0.2-0.2-0.4-0.4-0.4c-0.2,0-0.3,0.2-0.3,0.4c0,0.1,0,0.2,0.1,0.2
		c0.1,0.1,0.1,0.1,0.3,0.2C13.7,24.2,13.8,24.1,13.9,23.9"/>
	<path fill="#FFF"  d="M15,24.1C15,24,15,23.9,15,23.8c0-0.4-0.7-0.4-0.7,0.1c0,0.2,0.1,0.3,0.3,0.3
		C14.8,24.2,14.9,24.1,15,24.1"/>
	<path fill="#FFF"  d="M15.8,24.2c0.2,0,0.4-0.1,0.4-0.3c0-0.2-0.2-0.3-0.3-0.3c-0.2,0-0.3,0.1-0.3,0.3
		C15.5,24,15.7,24.2,15.8,24.2"/>
	<path fill="#FFF"  d="M7.8,23.3c0,0.2,0.2,0.4,0.4,0.4c0.2,0,0.4-0.2,0.4-0.4c0-0.3-0.2-0.4-0.4-0.4
		C8,22.9,7.8,23,7.8,23.3"/>
	<path fill="#FFF"  d="M9.3,23.7c0.3,0,0.5-0.2,0.5-0.4c0-0.2-0.2-0.4-0.5-0.3c-0.2,0-0.4,0.2-0.3,0.5
		C9,23.5,9.2,23.6,9.3,23.7"/>
	<path fill="#FFF"  d="M10.2,23.1c-0.1,0.3,0.1,0.5,0.3,0.6c0.3,0,0.5-0.3,0.4-0.6
		C10.8,22.8,10.4,22.8,10.2,23.1"/>
	<path fill="#FFF"  d="M11.7,22.9c-0.2,0-0.4,0.2-0.4,0.4c0,0.2,0.1,0.4,0.3,0.4c0.2,0,0.4-0.2,0.4-0.4
		C12.1,23,11.9,22.9,11.7,22.9"/>
	<path fill="#FFF"  d="M12.9,22.9c-0.2,0-0.3,0.2-0.3,0.4c0,0.2,0.1,0.3,0.3,0.3c0.1,0,0.2,0,0.2,0
		c0.1,0,0.2-0.2,0.2-0.3C13.3,23.1,13.1,22.9,12.9,22.9"/>
	<path fill="#FFF"  d="M14.1,22.9c-0.2,0-0.4,0.2-0.4,0.3c0,0.2,0.1,0.3,0.3,0.4c0.2,0,0.4-0.1,0.4-0.3
		C14.4,23.1,14.3,22.9,14.1,22.9"/>
	<path fill="#FFF"  d="M15.2,22.9c-0.2,0-0.3,0.2-0.3,0.4c0,0.2,0.1,0.3,0.3,0.3c0.2,0,0.3-0.1,0.3-0.1
		C15.7,23.2,15.5,22.9,15.2,22.9"/>
	<path fill="#FFF"  d="M16.5,23c-0.2,0-0.4,0.1-0.4,0.3c0,0.2,0.1,0.3,0.3,0.3c0,0,0.1,0,0.1,0V23z"/>
	<path fill="#FFF"  d="M9.2,22.7c0-0.3-0.2-0.4-0.4-0.4c-0.2,0-0.4,0.2-0.4,0.4c0,0.2,0.2,0.4,0.4,0.4
		C9,23.1,9.2,22.9,9.2,22.7"/>
	<path fill="#FFF"  d="M9.6,22.7c0,0.2,0.2,0.3,0.3,0.3c0.2,0,0.4-0.1,0.4-0.3c0-0.3-0.2-0.4-0.3-0.4
		C9.8,22.3,9.6,22.5,9.6,22.7"/>
	<path fill="#FFF"  d="M10.8,22.7c0,0.2,0.2,0.3,0.3,0.4c0.2,0,0.4-0.2,0.4-0.4c0-0.2-0.2-0.4-0.4-0.4
		C10.9,22.3,10.8,22.5,10.8,22.7"/>
	<path fill="#FFF"  d="M12,22.7c0,0.2,0.1,0.4,0.3,0.4c0.2,0,0.4-0.2,0.4-0.4c0-0.2-0.2-0.4-0.4-0.4
		C12.1,22.3,12,22.5,12,22.7"/>
	<path fill="#FFF"  d="M13.1,22.7c0,0.1,0,0.2,0.1,0.2c0.1,0.1,0.1,0.1,0.3,0.2c0.2,0,0.4-0.1,0.4-0.3
		c0-0.2-0.2-0.4-0.4-0.4C13.3,22.3,13.1,22.5,13.1,22.7"/>
	<path fill="#FFF"  d="M14.3,22.7c0,0.2,0.1,0.3,0.3,0.3c0.2,0,0.3-0.1,0.3-0.1c0.1-0.1,0.1-0.1,0.1-0.2
		C15,22.2,14.3,22.3,14.3,22.7"/>
	<path fill="#FFF"  d="M15.8,23c0.2,0,0.4-0.1,0.4-0.3c0-0.2-0.2-0.3-0.3-0.3c-0.2,0-0.3,0.1-0.3,0.3
		C15.5,22.9,15.7,23,15.8,23"/>
	<path fill="#FFF"  d="M8.6,22.1c0-0.3-0.2-0.4-0.4-0.4c-0.2,0-0.4,0.2-0.4,0.4c0,0.2,0.2,0.4,0.4,0.4
		C8.4,22.5,8.6,22.3,8.6,22.1"/>
	<path fill="#FFF"  d="M9.3,21.7c-0.2,0-0.4,0.2-0.3,0.5c0,0.2,0.2,0.3,0.3,0.3c0.3,0,0.5-0.2,0.5-0.4
		C9.8,21.8,9.5,21.7,9.3,21.7"/>
	<path fill="#FFF"  d="M10.2,21.9c-0.1,0.3,0.1,0.5,0.3,0.6c0.3,0,0.5-0.3,0.4-0.6
		C10.8,21.6,10.4,21.7,10.2,21.9"/>
	<path fill="#FFF"  d="M11.7,21.7c-0.2,0-0.4,0.2-0.4,0.4c0,0.2,0.1,0.4,0.3,0.4c0.2,0,0.4-0.2,0.4-0.4
		C12.1,21.9,11.9,21.7,11.7,21.7"/>
	<path fill="#FFF"  d="M12.9,21.7c-0.2,0-0.3,0.2-0.3,0.4c0,0.2,0.1,0.3,0.3,0.3c0.1,0,0.2,0,0.2,0
		c0.1,0,0.2-0.2,0.2-0.3C13.3,21.9,13.1,21.7,12.9,21.7"/>
	<path fill="#FFF"  d="M14.1,21.7c-0.2,0-0.4,0.2-0.4,0.3c0,0.2,0.1,0.3,0.3,0.4c0.2,0,0.4-0.1,0.4-0.3
		C14.4,21.9,14.3,21.7,14.1,21.7"/>
	<path fill="#FFF"  d="M15.2,21.8c-0.2,0-0.3,0.2-0.3,0.4c0,0.2,0.1,0.3,0.3,0.3c0.2,0,0.3-0.1,0.3-0.1
		C15.7,22,15.5,21.7,15.2,21.8"/>
	<path fill="#FFF"  d="M16.5,21.8c-0.2,0-0.4,0.1-0.4,0.3c0,0.2,0.1,0.3,0.3,0.3c0,0,0.1,0,0.1,0V21.8z"
		/>
	<path fill="#FFF"  d="M8.4,21.5c0,0.2,0.2,0.4,0.4,0.4c0.2,0,0.4-0.2,0.4-0.4c0-0.3-0.2-0.4-0.4-0.4
		C8.6,21.1,8.4,21.3,8.4,21.5"/>
	<path fill="#FFF"  d="M9.6,21.6c0,0.2,0.2,0.3,0.3,0.3c0.2,0,0.4-0.1,0.4-0.3c0-0.3-0.2-0.4-0.3-0.4
		C9.8,21.1,9.6,21.3,9.6,21.6"/>
	<path fill="#FFF"  d="M10.8,21.5c0,0.2,0.2,0.3,0.3,0.4c0.2,0,0.4-0.2,0.4-0.4c0-0.2-0.2-0.4-0.4-0.4
		C10.9,21.1,10.8,21.3,10.8,21.5"/>
	<path fill="#FFF"  d="M12,21.5c0,0.2,0.1,0.4,0.3,0.4c0.2,0,0.4-0.2,0.4-0.4c0-0.2-0.2-0.4-0.4-0.4
		C12.1,21.1,12,21.3,12,21.5"/>
	<path fill="#FFF"  d="M13.1,21.5c0,0.1,0,0.2,0.1,0.2c0.1,0.1,0.1,0.1,0.3,0.2c0.2,0,0.4-0.1,0.4-0.3
		c0-0.2-0.2-0.4-0.4-0.4C13.3,21.2,13.1,21.3,13.1,21.5"/>
	<path fill="#FFF"  d="M14.3,21.6c0,0.2,0.1,0.3,0.3,0.3c0.2,0,0.3-0.1,0.3-0.1c0.1-0.1,0.1-0.1,0.1-0.2
		C15,21,14.3,21.1,14.3,21.6"/>
	<path fill="#FFF"  d="M15.8,21.8c0.2,0,0.4-0.1,0.4-0.3c0-0.2-0.2-0.3-0.3-0.3c-0.2,0-0.3,0.1-0.3,0.3
		C15.5,21.7,15.7,21.8,15.8,21.8"/>
	<path fill="#FFF"  d="M8.2,21.3c0.2,0,0.4-0.1,0.4-0.4H7.8C7.8,21.2,8,21.3,8.2,21.3"/>
	<path fill="#FFF"  d="M9.3,21.3c0.2,0,0.4-0.1,0.5-0.4H9c0,0,0,0,0,0C9,21.2,9.2,21.3,9.3,21.3"/>
	<path fill="#FFF"  d="M10.5,21.3c0.2,0,0.4-0.1,0.4-0.3h-0.8C10.2,21.1,10.3,21.3,10.5,21.3"/>
	<path fill="#FFF"  d="M11.7,21.3c0.2,0,0.4-0.1,0.4-0.3h-0.7C11.4,21.2,11.5,21.3,11.7,21.3"/>
	<path fill="#FFF"  d="M12.9,21.3c0.1,0,0.2,0,0.2,0c0.1,0,0.2-0.2,0.2-0.3c0,0,0,0,0,0h-0.7
		c0,0,0,0,0,0C12.6,21.1,12.7,21.3,12.9,21.3"/>
	<path fill="#FFF"  d="M14.1,21.3c0.2,0,0.4-0.1,0.4-0.3h-0.7C13.8,21.1,13.9,21.3,14.1,21.3"/>
	<path fill="#FFF"  d="M15.2,21.3c0.2,0,0.3-0.1,0.3-0.1c0-0.1,0.1-0.1,0.1-0.2h-0.7
		C14.9,21.1,15.1,21.2,15.2,21.3"/>
	<path fill="#FFF"  d="M16.4,21.2C16.4,21.2,16.5,21.2,16.4,21.2l0.1-0.3h-0.4
		C16.1,21.1,16.2,21.2,16.4,21.2"/>
	<path fill="#FFF"  d="M46.7,12.4h37.6l2.6-2H46.7V8.1h49.2v2.3h-5.4l-2.7,2h0l-3,2.3
		h-5.6l-5.3,4.3h-5.3l-5.5,4.3h-5.6l-5.4,4.2h-5.4v-2.3h4.8l2.3-1.9h-7.1v-2.3l15.7,0l2.7-2H46.7v-2.3h26.7l2.4-2H46.7V12.4
		L46.7,12.4z M46.7,29.7h6.1l5.7-4.4H64l5.2-4.1l5.4,0l5.7-4.4h5.5l5.5-4.3h4.6v2.3h-4l-2.5,2l6.5-0.1v2.3H80.8l-2.7,2.1l17.7-0.1
		v2.3h-26l-2.5,2l28.5-0.1v2.3h-37l-2.6,2.1h39.6v2.3H46.7V29.7L46.7,29.7z"/>
</svg>
